<svg xmlns="http://www.w3.org/2000/svg" xmlns:xlink="http://www.w3.org/1999/xlink" viewBox="0 0 750 440.94"><defs><style>.cls-1{fill:none;}.cls-2{fill:#8ec1c4;}.cls-3{fill:#80b7bb;}.cls-10,.cls-11,.cls-12,.cls-13,.cls-14,.cls-15,.cls-16,.cls-17,.cls-20,.cls-3,.cls-5,.cls-6,.cls-7,.cls-8,.cls-9{fill-rule:evenodd;}.cls-4{clip-path:url(#clip-path);}.cls-21,.cls-5{fill:#fff;}.cls-6{fill:#ededed;}.cls-7{fill:#731602;}.cls-8{fill:#d8d8d8;}.cls-9{fill:#ca531a;}.cls-10{fill:#b43f17;}.cls-11{fill:#bd4618;}.cls-12{fill:#20201e;}.cls-13{fill:#cd5b3b;}.cls-14{fill:#3d7336;}.cls-15,.cls-19{fill:#ecc861;}.cls-16{fill:#2f5b29;}.cls-17{fill:#3d3d3c;}.cls-18{fill:#575756;}.cls-20{fill:#6a986d;}</style><clipPath id="clip-path"><rect class="cls-1" y="32.17" width="750" height="467.83"/></clipPath></defs><title>background2</title><g id="BACKGROUND"><rect class="cls-2" y="0.17" width="750" height="500"/></g><g id="OBJECTS"><path class="cls-3" d="M750,318.57v181.6H0V321.32c44-21.37,56.61-21.37,99.69-3.68,50.47,20.73,88.33-3.55,130.92,13.62,38.46,15.51,71.65,53.1,133.18,42,100.17-18.14,80-84,187.8-55.53C663.94,347.37,719.61,325.54,750,318.57Z"/><g class="cls-4"><path class="cls-5" d="M64,325.41c-.39.21-.17,1.5-1.53,5.18-1.47,4-5.6,9.46-7.21,11.26s1.7,1,2.33.88-8.85,7.51-8.72,9.76,8.24-4.62,8.08-3.47-6.51,6.22-6.72,7.9.81,1.53.81,1.53-9.38,10.32-9.41,11.71,3-.77,3.42-.27-2,3.32.05,3.33,3.22-1.61.44,3.28c-1.15,2-2.58,3.46-3.29,4.78s1.51,1.46,2.76,1C48.06,381,35,395,34.87,397c-.13,1.69,3.6.36,5.3-.59s-5.8,6-5.41,8,4.14.4,4.14.4-10.28,8.68-10.39,10.32c-.82,12.45,58.06,13.63,66.27,4.29,1.53-1.74-6.16-8-6.16-8s.07.16,2,.23-6-9.28-6-9.28,3.5,1.66,3.43-.43-6.48-9.08-6.48-9.08a30.45,30.45,0,0,0,5.62,3.3c2.62,1.05,2.15-.84-.36-5.36S82.1,382,82.1,382s5.41,3,4-.07-9.39-11.47-9.39-11.47,3,2.4,5.9,2.62-4.34-9.84-4.34-9.84,4.5.81,1.52-3.67-8.33-11.23-5.34-8.92,7.36,1.81,4.08-.77-7.5-7-5.27-5.82,4.25,0,2.65-1.34-8.11-9.05-9.53-13.65C65.14,324.89,64.43,324.69,64,325.41Z"/><path class="cls-6" d="M742.33,355.59c-.41.22-.19,1.61-1.64,5.54-1.57,4.27-6,10.13-7.73,12.07s1.82,1.05,2.49.94-9.49,8-9.34,10.45,8.83-4.95,8.65-3.72-7,6.66-7.2,8.47.87,1.64.87,1.64-10,11.06-10.08,12.55,3.21-.83,3.67-.29-2.18,3.56.05,3.56,3.45-1.72.47,3.51c-1.24,2.18-2.76,3.7-3.52,5.12s1.62,1.57,3,1c3.3-1.28-10.67,13.72-10.83,15.8-.14,1.81,3.86.38,5.68-.64s-6.21,6.39-5.8,8.58,4.44.43,4.44.43-11,9.3-11.13,11.06c-.88,13.34,62.2,14.6,71,4.6,1.63-1.86-6.6-8.54-6.6-8.54s.07.17,2.13.25-6.43-9.94-6.43-9.94,3.75,1.78,3.68-.46-6.95-9.73-6.95-9.73a32.63,32.63,0,0,0,6,3.53c2.81,1.13,2.31-.9-.38-5.74s-5.06-9.5-5.06-9.5,5.8,3.18,4.31-.08S756,403.82,756,403.82s3.2,2.57,6.32,2.81-4.65-10.55-4.65-10.55,4.82.87,1.63-3.93-8.92-12-5.72-9.55,7.88,1.94,4.37-.82-8-7.5-5.64-6.23,4.55,0,2.84-1.44-8.69-9.7-10.21-14.62C743.59,355,742.83,354.83,742.33,355.59Z"/><path class="cls-6" d="M488.15,380c-.28.15-.13,1.09-1.1,3.74a33.25,33.25,0,0,1-5.21,8.14c-1.16,1.31,1.23.71,1.68.63s-6.4,5.42-6.3,7.05,6-3.33,5.84-2.51-4.71,4.49-4.86,5.71.58,1.11.58,1.11-6.78,7.46-6.8,8.47,2.17-.56,2.47-.2-1.47,2.4,0,2.4,2.32-1.16.32,2.37c-.84,1.47-1.87,2.5-2.38,3.46s1.09,1.06,2,.7c2.22-.87-7.2,9.25-7.31,10.66-.09,1.22,2.6.26,3.83-.43s-4.19,4.31-3.91,5.79,3,.29,3,.29-7.43,6.27-7.51,7.46c-.59,9,42,9.85,47.89,3.1,1.1-1.25-4.45-5.76-4.45-5.76s0,.12,1.44.17-4.34-6.7-4.34-6.7,2.53,1.2,2.48-.31-4.68-6.56-4.68-6.56a22,22,0,0,0,4.06,2.38c1.9.76,1.56-.6-.26-3.87s-3.41-6.41-3.41-6.41,3.91,2.15,2.91-.05-6.79-8.29-6.79-8.29a9.37,9.37,0,0,0,4.26,1.89c2.11.16-3.13-7.11-3.13-7.11s3.25.59,1.1-2.65-6-8.12-3.86-6.44,5.32,1.31,2.95-.55-5.42-5.06-3.81-4.21,3.07,0,1.92-1-5.86-6.54-6.89-9.86C489,379.6,488.49,379.45,488.15,380Z"/><path class="cls-5" d="M707.7,306.57c-.46.25-.21,1.8-1.83,6.19-1.76,4.76-6.7,11.3-8.62,13.46s2,1.17,2.78,1-10.58,9-10.42,11.66,9.85-5.52,9.65-4.15-7.78,7.43-8,9.45,1,1.83,1,1.83S681,358.4,681,360.06s3.58-.92,4.09-.33-2.43,4,.06,4,3.84-1.92.53,3.92c-1.38,2.43-3.08,4.13-3.93,5.72s1.8,1.75,3.31,1.16c3.68-1.43-11.91,15.3-12.09,17.63-.16,2,4.31.43,6.34-.71s-6.93,7.13-6.47,9.57,5,.48,5,.48-12.29,10.37-12.41,12.34c-1,14.89,69.4,16.29,79.21,5.13,1.82-2.08-7.36-9.53-7.36-9.53s.08.19,2.38.28-7.18-11.09-7.18-11.09,4.19,2,4.1-.51-7.75-10.86-7.75-10.86a36.32,36.32,0,0,0,6.71,3.94c3.14,1.26,2.57-1-.43-6.41s-5.64-10.6-5.64-10.6,6.47,3.55,4.81-.09S723,360.36,723,360.36s3.57,2.86,7.06,3.13-5.18-11.77-5.18-11.77,5.37,1,1.82-4.39-10-13.43-6.38-10.66,8.79,2.16,4.87-.91-9-8.36-6.3-7,5.08,0,3.17-1.6-9.69-10.82-11.39-16.31C709.11,306,708.26,305.71,707.7,306.57Z"/><path class="cls-5" d="M534.9,288.66c-.6.33-.18,2.41-2.12,8.29-2.1,6.37-8.37,15.14-10.83,18s2.79,1.57,3.78,1.4-13.69,12-13.33,15.62,12.9-7.39,12.71-5.55-10,10-10.25,12.65,1.39,2.45,1.39,2.45-14.36,16.52-14.32,18.75,4.75-1.24,5.46-.44-3,5.31.29,5.33,5-2.57.92,5.25c-1.72,3.25-3.91,5.53-5,7.65s2.51,2.34,4.49,1.56c4.85-1.92-15.12,20.49-15.24,23.61-.1,2.71,5.79.57,8.45-.95s-8.9,9.55-8.15,12.81,6.66.64,6.66.64-15.9,13.89-16,16.52c-.52,19.93,93.8,21.81,106.34,6.87,2.33-2.78-10.36-12.76-10.36-12.76s.11.25,3.2.37-10.2-14.85-10.2-14.85,5.71,2.66,5.47-.69-11-14.54-11-14.54a51.28,51.28,0,0,0,9.2,5.28c4.27,1.69,3.39-1.34-.91-8.58s-8.12-14.2-8.12-14.2,8.85,4.76,6.44-.12-15.76-18.36-15.76-18.36,4.93,3.83,9.62,4.2-7.57-15.75-7.57-15.75,7.25,1.3,2.2-5.87-14-18-9.11-14.27,11.89,2.89,6.48-1.22-12.44-11.2-8.8-9.31,6.8,0,4.16-2.14-13.56-14.49-16.12-21.84C536.75,287.83,535.6,287.52,534.9,288.66Z"/><path class="cls-6" d="M461.07,398.41c-.22.12-.1.85-.86,2.92a25.92,25.92,0,0,1-4.07,6.35c-.91,1,1,.55,1.31.49s-5,4.23-4.91,5.5,4.65-2.6,4.55-2-3.67,3.51-3.79,4.46.46.86.46.86-5.29,5.82-5.31,6.6,1.69-.44,1.93-.16-1.15,1.87,0,1.88,1.81-.91.25,1.85c-.65,1.15-1.45,1.95-1.85,2.7s.85.83,1.56.55c1.74-.68-5.61,7.22-5.7,8.31s2,.2,3-.33-3.27,3.36-3.05,4.51,2.33.23,2.33.23-5.79,4.89-5.85,5.82c-.46,7,32.73,7.68,37.35,2.42.86-1-3.47-4.49-3.47-4.49s0,.09,1.12.13-3.38-5.23-3.38-5.23,2,.94,1.94-.24-3.65-5.12-3.65-5.12a17.11,17.11,0,0,0,3.17,1.86c1.48.59,1.21-.47-.2-3s-2.66-5-2.66-5,3.05,1.67,2.27,0-5.29-6.47-5.29-6.47a7.32,7.32,0,0,0,3.33,1.48c1.65.13-2.44-5.55-2.44-5.55s2.54.46.86-2.07-4.69-6.33-3-5,4.15,1,2.3-.43-4.22-3.94-3-3.28,2.4,0,1.5-.75-4.57-5.1-5.37-7.69C461.73,398.12,461.33,398,461.07,398.41Z"/><path class="cls-5" d="M256.44,369.51c-.25.13-.11,1-1,3.3a29.35,29.35,0,0,1-4.6,7.19c-1,1.15,1.09.63,1.49.56s-5.65,4.79-5.56,6.23,5.26-2.94,5.15-2.21-4.15,4-4.29,5,.52,1,.52,1-6,6.59-6,7.48,1.91-.49,2.18-.18-1.3,2.12,0,2.12,2.05-1,.28,2.09c-.74,1.3-1.65,2.2-2.1,3.05s1,.93,1.76.62c2-.76-6.36,8.17-6.45,9.41-.08,1.08,2.3.23,3.38-.38s-3.7,3.81-3.45,5.11,2.64.25,2.64.25-6.56,5.54-6.63,6.59c-.52,7.95,37,8.7,42.29,2.74,1-1.11-3.93-5.09-3.93-5.09s0,.1,1.27.15-3.83-5.92-3.83-5.92,2.24,1.06,2.19-.27-4.14-5.8-4.14-5.8a19.41,19.41,0,0,0,3.58,2.1c1.67.67,1.37-.53-.23-3.42s-3-5.66-3-5.66,3.45,1.9,2.57,0-6-7.32-6-7.32a8.28,8.28,0,0,0,3.77,1.67c1.86.14-2.77-6.28-2.77-6.28s2.87.52,1-2.34-5.31-7.17-3.41-5.69,4.7,1.15,2.6-.49-4.78-4.47-3.36-3.71,2.71,0,1.69-.85-5.17-5.78-6.08-8.71C257.19,369.19,256.74,369.06,256.44,369.51Z"/><path class="cls-5" d="M231.06,390.17c-.25.13-.11,1-1,3.3a29.31,29.31,0,0,1-4.6,7.19c-1,1.15,1.09.63,1.49.56s-5.65,4.79-5.56,6.23,5.26-2.95,5.15-2.21-4.15,4-4.29,5,.52,1,.52,1-6,6.59-6,7.47,1.91-.49,2.18-.18-1.3,2.12,0,2.12,2.05-1,.28,2.09c-.74,1.3-1.65,2.21-2.1,3.05s1,.93,1.76.62c2-.76-6.36,8.17-6.45,9.41-.08,1.08,2.3.23,3.38-.38s-3.7,3.81-3.45,5.11,2.64.25,2.64.25-6.56,5.54-6.63,6.59c-.52,7.95,37,8.7,42.29,2.74,1-1.11-3.93-5.09-3.93-5.09s0,.1,1.27.15-3.83-5.92-3.83-5.92,2.24,1.06,2.19-.27-4.14-5.8-4.14-5.8a19.42,19.42,0,0,0,3.58,2.1c1.67.67,1.37-.53-.23-3.42s-3-5.66-3-5.66,3.45,1.9,2.57,0-6-7.32-6-7.32a8.28,8.28,0,0,0,3.77,1.67c1.86.14-2.77-6.28-2.77-6.28s2.87.52,1-2.34-5.31-7.17-3.41-5.69,4.7,1.15,2.6-.49S235.59,401.3,237,402s2.71,0,1.69-.85-5.17-5.78-6.08-8.71C231.81,389.84,231.36,389.71,231.06,390.17Z"/><path class="cls-5" d="M292.42,391.89c-.25.13-.11,1-1,3.3a29.35,29.35,0,0,1-4.6,7.19c-1,1.15,1.09.63,1.49.56s-5.65,4.79-5.56,6.23,5.26-2.95,5.15-2.21-4.16,4-4.29,5,.52,1,.52,1-6,6.59-6,7.47,1.91-.49,2.18-.17-1.3,2.12,0,2.12,2.05-1,.28,2.09c-.74,1.3-1.65,2.21-2.1,3.05s1,.93,1.76.62c2-.76-6.36,8.17-6.45,9.41-.08,1.08,2.3.23,3.38-.38s-3.7,3.81-3.45,5.11,2.64.25,2.64.25-6.56,5.54-6.63,6.59c-.52,7.95,37,8.7,42.29,2.74,1-1.11-3.93-5.09-3.93-5.09s0,.1,1.27.15S305.6,441,305.6,441s2.24,1.06,2.19-.27-4.14-5.8-4.14-5.8a19.41,19.41,0,0,0,3.58,2.1c1.67.67,1.37-.54-.23-3.42s-3-5.66-3-5.66,3.45,1.9,2.57,0-6-7.32-6-7.32a8.28,8.28,0,0,0,3.77,1.67c1.86.14-2.77-6.28-2.77-6.28s2.87.52,1-2.34-5.31-7.17-3.41-5.69,4.7,1.15,2.6-.49-4.78-4.46-3.36-3.71,2.71,0,1.69-.85-5.17-5.78-6.08-8.71C293.17,391.57,292.72,391.44,292.42,391.89Z"/><path class="cls-6" d="M4.85,224.3c-.79.42-.36,3.07-3.12,10.56-3,8.13-11.43,19.3-14.72,23s3.47,2,4.75,1.79S-26.3,275-26,279.55s16.82-9.42,16.48-7.08-13.29,12.69-13.71,16.13,1.65,3.13,1.65,3.13-19.14,21.07-19.21,23.9,6.12-1.58,7-.56-4.15,6.78.1,6.79,6.56-3.28.9,6.69c-2.36,4.15-5.26,7.05-6.71,9.76-1.35,2.53,3.08,3,5.64,2,6.28-2.45-20.32,26.12-20.63,30.1-.27,3.45,7.36.73,10.82-1.21s-11.83,12.17-11,16.33,8.45.81,8.45.81-21,17.71-21.19,21.07C-69.17,432.8,51,435.2,67.72,416.14c3.11-3.54-12.56-16.26-12.56-16.26s.13.33,4.06.47S47,381.42,47,381.42s7.15,3.39,7-.88S40.75,362,40.75,362a62,62,0,0,0,11.46,6.73c5.35,2.15,4.39-1.71-.73-10.94s-9.63-18.1-9.63-18.1,11,6.06,8.21-.15-19.16-23.41-19.16-23.41S37,321,43,321.5s-8.85-20.09-8.85-20.09,9.18,1.66,3.1-7.49-17-22.93-10.89-18.19,15,3.69,8.32-1.56-15.29-14.28-10.75-11.87,8.67,0,5.42-2.73S12.76,241.08,9.86,231.71C7.25,223.25,5.8,222.85,4.85,224.3Z"/><path class="cls-6" d="M98.23,374.74c-.2.11-.09.79-.8,2.72a24.14,24.14,0,0,1-3.79,5.91c-.84.95.89.51,1.22.46s-4.65,3.94-4.58,5.12,4.33-2.42,4.24-1.82-3.42,3.26-3.53,4.15.42.8.42.8-4.92,5.42-4.94,6.15,1.57-.41,1.8-.15-1.07,1.74,0,1.75,1.69-.84.23,1.72c-.61,1.07-1.35,1.81-1.73,2.51s.79.77,1.45.51c1.62-.63-5.23,6.72-5.31,7.74s1.89.19,2.78-.31-3,3.13-2.84,4.2,2.17.21,2.17.21-5.39,4.55-5.45,5.42c-.43,6.54,30.46,7.15,34.77,2.25.8-.91-3.23-4.18-3.23-4.18s0,.08,1,.12-3.15-4.87-3.15-4.87,1.84.87,1.8-.22-3.4-4.77-3.4-4.77a16,16,0,0,0,2.95,1.73c1.38.55,1.13-.44-.19-2.81s-2.48-4.65-2.48-4.65,2.84,1.56,2.11,0-4.93-6-4.93-6a6.8,6.8,0,0,0,3.1,1.38c1.53.12-2.28-5.17-2.28-5.17s2.36.43.8-1.92-4.37-5.9-2.8-4.68,3.86.95,2.14-.4-3.93-3.67-2.76-3.05,2.23,0,1.39-.7-4.25-4.75-5-7.16C98.84,374.47,98.47,374.37,98.23,374.74Z"/><path class="cls-6" d="M442.21,408.65c-.2.11-.09.77-.78,2.64a23.49,23.49,0,0,1-3.68,5.75c-.82.92.87.5,1.19.45s-4.52,3.83-4.45,5,4.21-2.36,4.12-1.77-3.33,3.17-3.43,4,.41.78.41.78-4.79,5.27-4.8,6,1.53-.39,1.75-.14-1,1.7,0,1.7,1.64-.82.22,1.68c-.59,1-1.32,1.76-1.68,2.44s.77.75,1.41.5c1.57-.61-5.08,6.54-5.16,7.53s1.84.18,2.71-.3-3,3-2.76,4.09,2.12.2,2.12.2-5.25,4.43-5.3,5.27c-.42,6.36,29.64,7,33.83,2.19.78-.89-3.14-4.07-3.14-4.07s0,.08,1,.12-3.07-4.74-3.07-4.74,1.79.85,1.75-.22-3.31-4.64-3.31-4.64a15.48,15.48,0,0,0,2.87,1.68c1.34.54,1.1-.43-.18-2.74s-2.41-4.53-2.41-4.53,2.76,1.52,2.06,0-4.79-5.86-4.79-5.86a6.63,6.63,0,0,0,3,1.34c1.49.12-2.21-5-2.21-5s2.3.41.78-1.87-4.25-5.74-2.72-4.55,3.76.92,2.08-.39-3.83-3.57-2.69-3,2.17,0,1.36-.68-4.14-4.62-4.87-7C442.81,408.39,442.45,408.29,442.21,408.65Z"/><path class="cls-5" d="M413.92,419.2c-.2.11-.09.77-.78,2.64a23.49,23.49,0,0,1-3.68,5.75c-.82.92.87.5,1.19.45s-4.52,3.83-4.45,5,4.21-2.36,4.12-1.77-3.32,3.17-3.43,4,.41.78.41.78-4.79,5.27-4.81,6,1.53-.39,1.75-.14-1,1.7,0,1.7,1.64-.82.22,1.67c-.59,1-1.32,1.76-1.68,2.44s.77.75,1.41.5c1.57-.61-5.08,6.54-5.16,7.53s1.84.18,2.71-.3-3,3-2.76,4.09,2.12.2,2.12.2-5.25,4.43-5.3,5.27c-.42,6.36,29.64,7,33.83,2.19.78-.89-3.14-4.07-3.14-4.07s0,.08,1,.12-3.06-4.74-3.06-4.74,1.79.85,1.75-.22-3.31-4.64-3.31-4.64a15.53,15.53,0,0,0,2.87,1.68c1.34.54,1.1-.43-.18-2.74s-2.41-4.53-2.41-4.53,2.76,1.52,2.05,0-4.79-5.86-4.79-5.86a6.62,6.62,0,0,0,3,1.34c1.49.12-2.21-5-2.21-5s2.3.42.78-1.87-4.25-5.74-2.72-4.55,3.75.92,2.08-.39-3.83-3.57-2.69-3,2.17,0,1.35-.68-4.14-4.62-4.86-7C414.51,418.94,414.15,418.84,413.92,419.2Z"/><path class="cls-5" d="M367.48,423.44c-.2.11-.09.77-.78,2.64a23.47,23.47,0,0,1-3.68,5.75c-.82.92.87.5,1.19.45s-4.52,3.83-4.45,5,4.21-2.36,4.12-1.77-3.32,3.17-3.43,4,.41.78.41.78-4.79,5.27-4.8,6,1.53-.39,1.75-.14-1,1.7,0,1.7,1.64-.82.22,1.67c-.59,1-1.32,1.76-1.68,2.44s.77.75,1.41.5c1.57-.61-5.08,6.54-5.16,7.53s1.84.18,2.71-.3-3,3-2.76,4.09,2.12.2,2.12.2-5.25,4.43-5.3,5.27c-.42,6.36,29.64,7,33.83,2.19.78-.89-3.14-4.07-3.14-4.07s0,.08,1,.12-3.07-4.74-3.07-4.74,1.79.85,1.75-.22-3.31-4.64-3.31-4.64a15.5,15.5,0,0,0,2.87,1.68c1.34.54,1.1-.43-.18-2.74s-2.41-4.53-2.41-4.53,2.76,1.52,2.05,0-4.79-5.86-4.79-5.86a6.63,6.63,0,0,0,3,1.34c1.49.12-2.21-5-2.21-5s2.3.42.78-1.87-4.25-5.74-2.72-4.55,3.76.92,2.08-.39-3.83-3.57-2.69-3,2.17,0,1.36-.68-4.14-4.62-4.86-7C368.08,423.18,367.72,423.08,367.48,423.44Z"/><path class="cls-5" d="M352,399.14c-.2.11-.09.77-.78,2.64a23.49,23.49,0,0,1-3.68,5.75c-.82.92.87.5,1.19.45s-4.52,3.83-4.45,5,4.21-2.36,4.12-1.77-3.32,3.17-3.43,4,.41.78.41.78-4.79,5.27-4.8,6,1.53-.39,1.75-.14-1,1.7,0,1.7,1.64-.82.22,1.67c-.59,1-1.32,1.76-1.68,2.44s.77.75,1.41.5c1.57-.61-5.08,6.54-5.16,7.53s1.84.18,2.71-.3-3,3-2.76,4.08,2.11.2,2.11.2-5.25,4.43-5.3,5.27c-.42,6.36,29.64,7,33.83,2.19.78-.89-3.14-4.07-3.14-4.07s0,.08,1,.12-3.07-4.74-3.07-4.74,1.79.85,1.75-.22-3.31-4.64-3.31-4.64a15.52,15.52,0,0,0,2.87,1.68c1.34.54,1.1-.43-.18-2.74s-2.41-4.53-2.41-4.53,2.76,1.52,2.05,0-4.79-5.86-4.79-5.86a6.63,6.63,0,0,0,3,1.34c1.49.12-2.21-5-2.21-5s2.3.42.78-1.87-4.25-5.74-2.72-4.55,3.76.92,2.08-.39-3.83-3.57-2.69-3,2.17,0,1.36-.68-4.14-4.62-4.86-7C352.55,398.88,352.19,398.78,352,399.14Z"/><path class="cls-5" d="M332.48,411.91c-.2.11-.09.77-.78,2.64A23.46,23.46,0,0,1,328,420.3c-.82.92.87.5,1.19.45s-4.52,3.83-4.45,5,4.21-2.36,4.12-1.77-3.32,3.17-3.43,4,.41.78.41.78-4.79,5.27-4.8,6,1.53-.39,1.75-.14-1,1.7,0,1.7,1.64-.82.23,1.67c-.59,1-1.32,1.76-1.68,2.44s.77.75,1.41.5c1.57-.61-5.08,6.54-5.16,7.53s1.84.18,2.71-.3-3,3-2.76,4.09,2.11.2,2.11.2-5.25,4.43-5.3,5.27c-.42,6.36,29.64,7,33.83,2.19.78-.89-3.14-4.07-3.14-4.07s0,.08,1,.12-3.07-4.74-3.07-4.74,1.79.85,1.75-.22-3.31-4.64-3.31-4.64a15.58,15.58,0,0,0,2.87,1.68c1.34.54,1.1-.43-.18-2.74s-2.41-4.53-2.41-4.53,2.76,1.52,2.05,0-4.79-5.86-4.79-5.86a6.63,6.63,0,0,0,3,1.34c1.49.12-2.21-5-2.21-5s2.3.42.78-1.87-4.25-5.74-2.72-4.55,3.76.92,2.08-.39-3.83-3.57-2.69-3,2.17,0,1.36-.68-4.14-4.62-4.87-7C333.08,411.65,332.72,411.55,332.48,411.91Z"/></g><path class="cls-5" d="M750,500V423.43c-47.38-8.54-100.11-14.41-143.53-10-107.25,10.9-175.08,42.25-304.42,19.08C184.5,411.46,104.74,399.41,0,414.79V500Z"/><path class="cls-6" d="M21.63,412c94.45-10.81,171.1,1,280.42,20.57,41.42,7.42,76.52,9.24,108.63,7.94,14.46,3.23,31,6.36,53.14,9.32,82.81,11,82.81-11.83,150.63-18.93s93.85,5.52,89.91,11-33.12-13.41-127.76,11.83-148.27,7.89-231.07-3.94c-.62-.09-29.22-12.44-63.07-3.16-35,9.58,48.42,19.59,49.27,19.72,78.08,11.83,82,0,67.43,10.25s-84,3.15-157.73-2.37-107.25-8.28-156.55-4.34-34.7-8.28,26.42-9.07,85.17.39,75.71-7.1c-2.11-1.67-25.1-.49-29.16-1.3-18.89-3.77-35-1.86-48.92-1.86-42.59,0-43.62-17-42.19-25.24,1.19-6.83-16.28-7.81-46.71-6.24C7.79,419.73,1.9,414.21,21.63,412Z"/><path class="cls-7" d="M200.76,350c15.64-11.14,24.07-17,28.57-20,18.2-12.32-26.08,29.11-27.38,30.48C201.94,360.46,193.27,351.59,200.76,350Z"/><path class="cls-7" d="M215.75,339.56c1.08-6.15,1.42-10.1,1.8-12.28,1.73-9.85,1.13,10.82,1.15,11.78C218.7,339.07,217.13,341.43,215.75,339.56Z"/><path class="cls-5" d="M164.22,337.52c-9,.56-18.7,5.87-29.64,14.52-32.56,25.74-41,87.38,32.93,87.53,27.33.06,58-12.31,58-41.85C225.47,379.11,200.42,335.25,164.22,337.52Z"/><path class="cls-8" d="M164.22,337.52c-9,.56-18.7,5.87-29.64,14.52-32.56,25.74-41,87.38,32.93,87.53,12.18,0,25-2.42,35.5-7.75-10.27,1.36-23.93,1.93-37-1.38-25.63-6.51-21.69-32.93-19.32-45.15S152,364,166.8,363.81a36,36,0,0,0,29.62-15.64C187.3,341.22,176.39,336.76,164.22,337.52Z"/><path class="cls-8" d="M116.58,418.07c-14.8.56-28.88,9.84-28.88,16.28,0,14.71,50.35,13.44,52.13,1.93C140.82,429.9,131.39,417.51,116.58,418.07Z"/><path class="cls-5" d="M116.58,418.07a43.55,43.55,0,0,0-16.88,4.27c-2.58,2.33-4.12,4.76-4.12,6.89,0,11.17,29.06,13.12,43.8,8.37a4.35,4.35,0,0,0,.44-1.31C140.82,429.9,131.39,417.51,116.58,418.07Z"/><path class="cls-5" d="M212,418.07c14.8.56,24.94,9.84,24.94,16.28,0,7-50.35,13.44-52.13,1.93C183.79,429.9,197.17,417.51,212,418.07Z"/><path class="cls-9" d="M139.12,338.21c-1.18.2-2.17,1.58-1.38,5.52s-3.72,5.07-3,6.9c3,7.09,19.29,11.15,33.57,9.83a47,47,0,0,0,24.33-9.84c7.07-5.67,1.06-7.54-.12-9.46-1-1.56-.78-3.84-1.27-5.39a3.74,3.74,0,0,0-1.49-1.71S156.07,344.91,139.12,338.21Z"/><path class="cls-10" d="M139.12,338.21c-1.18.2-2.17,1.58-1.38,5.52s-3.72,5.07-3,6.9c.94,2.26,3.25,4.21,6.41,5.78a154.19,154.19,0,0,1,9-16.09A35.32,35.32,0,0,1,139.12,338.21Z"/><path class="cls-10" d="M139.29,355.36c3.86,2.41,9.6,4.1,15.85,4.87.19-5.18,2.56-12.24,5.25-15.84-9.46-2-12.22,3.35-17.7,7.1A8,8,0,0,0,139.29,355.36Z"/><path class="cls-8" d="M106.54,293.86c-4.66.34-7.23,4.49-7.23,8.46,0,9.05,16.41,8.59,16.41-.69C115.73,297.67,111.2,293.52,106.54,293.86Z"/><path class="cls-5" d="M106.54,293.86a7.3,7.3,0,0,0-5,2.39v.06c0,6.54,10.67,6.89,12.8,1.46A9.18,9.18,0,0,0,106.54,293.86Z"/><path class="cls-8" d="M159,281.74c-19.71,1.46-30.56,19-30.56,35.77,0,38.28,69.4,36.3,69.4-2.92C197.87,297.81,178.74,280.28,159,281.74Z"/><path class="cls-5" d="M159,281.74a30.91,30.91,0,0,0-21.59,10.82,39.79,39.79,0,0,0-4,17.45c0,30.6,44.33,35.47,62.13,16.17a28.57,28.57,0,0,0,2.34-11.59C197.87,297.81,178.74,280.28,159,281.74Z"/><path class="cls-9" d="M182.49,278.07c-3.15-9.86-10.25-18.14-25.63-18.93s-34.31,5.92-45,29.18,5.52-2.76,13.8,2.37,3.55,10.25,8.28,7.1S182.49,278.07,182.49,278.07Z"/><path class="cls-11" d="M108.42,297.83c.55,2.54,11.11-11,17.29-7.14a11.75,11.75,0,0,1,5,5.24,284.17,284.17,0,0,0,28.73-13.15c7.79-3.94,2.56-8.67-7.79-5.52s-11.44,3.15-18.93,1.77-15.58,7.29-21.59,16.36A25.93,25.93,0,0,0,108.42,297.83Z"/><path class="cls-5" d="M131.19,305.28c13.27-11.23,42.56-18.91,52.69-14.59,2.33,1,2.67,1.87,3.74,2,1.55.25,2.73-1,2.34-1.82-.66-1.45-2-2.75-3.12-4.75-3.44-6.32-1.86-9.16-5.49-11.13-2.8-1.53-9.52-3.09-19.1-1.86-13.43,1.72-28.74,7.77-34.24,15.89-1.64,2.43.32,3.48.67,6.75a13.55,13.55,0,0,1-.62,5.44c-.59,1.74-2.18,4.2,1.84,5.34C130.45,306.75,130,306.33,131.19,305.28Z"/><path class="cls-8" d="M131.19,305.28c13.27-11.23,42.56-18.91,52.69-14.59,2.33,1,2.67,1.87,3.74,2,1.55.25,2.73-1,2.34-1.82a12.72,12.72,0,0,0-1.45-2.23c-1.57.56-2.19-1.9-14.61-2.06s-29.48,7-35,9.76-2.67,0-4.24-6.31-2-5.2-1-6.59a23.19,23.19,0,0,0-5.66,5.58c-1.64,2.43.32,3.48.67,6.75a13.55,13.55,0,0,1-.62,5.44c-.59,1.74-2.18,4.2,1.84,5.34C130.45,306.75,130,306.33,131.19,305.28Z"/><path class="cls-10" d="M175.7,323.13c3.48,1.27,38.33-14.89,38.33-14.89L179,306.88C164.94,306.34,171,321.41,175.7,323.13Z"/><path class="cls-9" d="M212.91,308.2,179,306.88c-9.3-.36-9.78,6.14-7.67,11.07a4.08,4.08,0,0,0,.86.45C174.89,319.4,201.56,311.6,212.91,308.2Z"/><path class="cls-12" d="M153.42,320.18a.93.93,0,1,1,1.75-.63q.22.62.51,1.23a13.63,13.63,0,0,0,9,7.38,17.47,17.47,0,0,0,10.15-.14c.27-.1.54-.21.8-.33a.93.93,0,0,1,.78,1.69c-.29.13-.61.26-1,.39a19.42,19.42,0,0,1-11.28.18,15.45,15.45,0,0,1-10.15-8.4Q153.69,320.92,153.42,320.18Z"/><path class="cls-12" d="M151.87,306.93a.93.93,0,1,1-1.86-.15,6.21,6.21,0,0,1,2.3-4.47,4.79,4.79,0,0,1,2.27-1,4.16,4.16,0,0,1,2.46.41,6,6,0,0,1,2.88,3.87.93.93,0,1,1-1.78.53,4.23,4.23,0,0,0-1.92-2.74,2.32,2.32,0,0,0-1.38-.22,2.94,2.94,0,0,0-1.39.61A4.36,4.36,0,0,0,151.87,306.93Z"/><path class="cls-12" d="M174.74,301.8a.93.93,0,1,1-1.86-.14,5.2,5.2,0,0,1,1.93-3.74,4.05,4.05,0,0,1,1.92-.83,3.54,3.54,0,0,1,2.09.34,5,5,0,0,1,2.42,3.23.93.93,0,0,1-1.78.53,3.25,3.25,0,0,0-1.46-2.11,1.7,1.7,0,0,0-1-.16,2.19,2.19,0,0,0-1,.46A3.35,3.35,0,0,0,174.74,301.8Z"/><path class="cls-7" d="M122.39,368.83c2.8,1.94,9.75-3.85,9.28-7.3-.2-1.46-36.94-18-51.13-23.45C68.08,333.28,119.38,366.74,122.39,368.83Z"/><path class="cls-7" d="M103.34,349.07c-1-2.64-9.12-23-7.12-14.68l3.54,14.81S102.16,351.59,103.34,349.07Z"/><path class="cls-10" d="M179.31,307.66a.46.46,0,1,1,.61.7,5.32,5.32,0,0,0-1.26,1.66,9.57,9.57,0,0,0-.77,5.13,7.7,7.7,0,0,0,1.37,4,1.6,1.6,0,0,0,.47.39.47.47,0,0,1-.41.83,2.52,2.52,0,0,1-.76-.62,8.62,8.62,0,0,1-1.59-4.5,10.51,10.51,0,0,1,.87-5.63A6.26,6.26,0,0,1,179.31,307.66Z"/><path class="cls-10" d="M185.88,308.25a.46.46,0,1,1,.61.7,3.6,3.6,0,0,0-.86,1.12,6.6,6.6,0,0,0-.53,3.53,5.28,5.28,0,0,0,.93,2.72,1,1,0,0,0,.29.24.46.46,0,0,1-.42.83,1.91,1.91,0,0,1-.58-.46,6.2,6.2,0,0,1-1.15-3.24,7.51,7.51,0,0,1,.62-4A4.49,4.49,0,0,1,185.88,308.25Z"/><path class="cls-10" d="M192.44,308.85a.46.46,0,1,1,.61.7,1.87,1.87,0,0,0-.44.58l0,0a3.62,3.62,0,0,0-.27,1.89,2.84,2.84,0,0,0,.49,1.46.38.38,0,0,0,.11.09.46.46,0,0,1-.41.83,1.27,1.27,0,0,1-.39-.31,3.78,3.78,0,0,1-.71-2,4.57,4.57,0,0,1,.36-2.4l0,0A2.79,2.79,0,0,1,192.44,308.85Z"/><path class="cls-10" d="M199.27,309.44a.46.46,0,1,1,.61.7.84.84,0,0,0-.2.26,1.78,1.78,0,0,0-.14.95,1.37,1.37,0,0,0,.22.69h0a.46.46,0,0,1-.42.83.9.9,0,0,1-.28-.22,2.3,2.3,0,0,1-.44-1.21,2.71,2.71,0,0,1,.23-1.45,1.75,1.75,0,0,1,.42-.54Zm.49,2.6h0Z"/><path class="cls-10" d="M155.31,350.29a.93.93,0,0,1,.21-1.85,48.82,48.82,0,0,0,16.89-.84,50.76,50.76,0,0,0,11.38-4.19,31.06,31.06,0,0,0,3-1.72h0a10.92,10.92,0,0,0,1.88-1.48.93.93,0,1,1,1.34,1.29,12.72,12.72,0,0,1-2.21,1.75h0a32.73,32.73,0,0,1-3.23,1.82,52.63,52.63,0,0,1-11.79,4.34A50.65,50.65,0,0,1,155.31,350.29Z"/><path class="cls-10" d="M155.51,356a.93.93,0,0,1,.21-1.85,56.3,56.3,0,0,0,16.93-.41A42.7,42.7,0,0,0,184,350c5.71-2.86,7.95-5.83,8-5.84a.93.93,0,1,1,1.48,1.12s-2.49,3.32-8.61,6.38a44.56,44.56,0,0,1-11.83,3.9A58.18,58.18,0,0,1,155.51,356Z"/><path class="cls-9" d="M160.56,345.11c-.54.28-2.36-.39-2.8.21C150.24,355.56,145.43,377,145.62,385c.2,8.48-1.58,8.67-4.93,8.67s-13-1.58-13.21-5.32,6.7-42.29,17.74-48c1.15-.6,4.15,1.87,6.94,2.37C156.27,343.48,159.25,342.13,160.56,345.11Z"/><path class="cls-10" d="M151.22,344.87a.93.93,0,1,1,1.49,1.11c-10,13.46-11.84,44.16-11.84,44.25a.93.93,0,0,1-1.86-.11C139,390,140.84,358.78,151.22,344.87Z"/><path class="cls-10" d="M144.62,343.88a.93.93,0,1,1,1.49,1.11c-10,13.46-11.84,44.17-11.85,44.25a.93.93,0,0,1-1.86-.11C132.41,389.05,134.23,357.79,144.62,343.88Z"/><path class="cls-13" d="M178,364.53a5.28,5.28,0,0,1,5.16,4.74A4.27,4.27,0,0,1,178.8,374a5.28,5.28,0,0,1-5.16-4.74A4.27,4.27,0,0,1,178,364.53Z"/><path class="cls-10" d="M178.15,366.62a.73.73,0,0,1,.71.66.59.59,0,0,1-.6.66.73.73,0,0,1-.71-.66A.59.59,0,0,1,178.15,366.62Z"/><path class="cls-10" d="M181,369.27a.59.59,0,0,1-.6.66.73.73,0,0,1-.71-.66.59.59,0,0,1,.6-.66A.73.73,0,0,1,181,369.27Z"/><path class="cls-10" d="M178.5,370.6a.73.73,0,0,1,.71.66.59.59,0,0,1-.6.66.73.73,0,0,1-.71-.66A.59.59,0,0,1,178.5,370.6Z"/><path class="cls-10" d="M177,369.27a.59.59,0,0,1-.6.66.73.73,0,0,1-.71-.66.59.59,0,0,1,.6-.66A.73.73,0,0,1,177,369.27Z"/><path class="cls-10" d="M178,365.5a4.2,4.2,0,0,1,4.1,3.77,3.4,3.4,0,0,1-3.44,3.77,4.2,4.2,0,0,1-4.1-3.77A3.4,3.4,0,0,1,178,365.5Zm2.52,1.37a3.7,3.7,0,0,0-2.49-1,3.06,3.06,0,0,0-3.1,3.4,3.79,3.79,0,0,0,3.7,3.4,3.06,3.06,0,0,0,3.1-3.4A3.73,3.73,0,0,0,180.57,366.87Z"/><path class="cls-13" d="M181.61,377.83a5.28,5.28,0,0,1,5.16,4.74,4.27,4.27,0,0,1-4.32,4.74,5.28,5.28,0,0,1-5.16-4.74A4.27,4.27,0,0,1,181.61,377.83Z"/><path class="cls-10" d="M181.79,379.92a.73.73,0,0,1,.71.66.59.59,0,0,1-.6.66.73.73,0,0,1-.71-.66A.59.59,0,0,1,181.79,379.92Z"/><path class="cls-10" d="M184.67,382.57a.59.59,0,0,1-.6.66.73.73,0,0,1-.71-.66.59.59,0,0,1,.6-.66A.73.73,0,0,1,184.67,382.57Z"/><path class="cls-10" d="M182.14,383.9a.73.73,0,0,1,.71.66.59.59,0,0,1-.6.66.73.73,0,0,1-.71-.66A.59.59,0,0,1,182.14,383.9Z"/><path class="cls-10" d="M180.7,382.57a.59.59,0,0,1-.6.66.73.73,0,0,1-.71-.66.59.59,0,0,1,.6-.66A.73.73,0,0,1,180.7,382.57Z"/><path class="cls-10" d="M181.7,378.8a4.2,4.2,0,0,1,4.1,3.77,3.4,3.4,0,0,1-3.44,3.77,4.2,4.2,0,0,1-4.1-3.77,3.4,3.4,0,0,1,3.44-3.77Zm2.52,1.37a3.7,3.7,0,0,0-2.49-1,3.06,3.06,0,0,0-3.1,3.4,3.78,3.78,0,0,0,3.7,3.4,3.06,3.06,0,0,0,3.1-3.4A3.72,3.72,0,0,0,184.22,380.17Z"/><path class="cls-8" d="M236.3,431.45C216,440.81,195.54,439,193.85,428a8.34,8.34,0,0,1,1.66-5.47c-5,3-8.77,7-10.17,10.36a6.46,6.46,0,0,0-.55,3.39,4,4,0,0,0,.58,1.54c5.93,9.35,51.55,3.21,51.55-3.47A7.91,7.91,0,0,0,236.3,431.45Z"/><path class="cls-5" d="M93.31,411.75c3.82.14,7.44,2.54,7.44,4.2,0,3.79-24.81,4.65-25.27,1.68C75.23,416,89.49,411.61,93.31,411.75Z"/><polygon class="cls-7" points="612.31 371.71 601.21 371.71 598.71 371.71 585.47 433.62 628.05 433.62 614.81 371.71 612.31 371.71"/><path class="cls-14" d="M610,117.43c-1.12.6-.51,4.37-4.45,15.05-4.27,11.58-16.3,27.5-21,32.76s4.95,2.86,6.77,2.55S565.61,189.61,566,196.16s24-13.42,23.48-10.09-18.93,18.08-19.54,23,2.35,4.45,2.35,4.45-27.28,30-27.37,34.06,8.71-2.25,10-.8-5.92,9.65.15,9.68,9.35-4.67,1.28,9.54c-3.36,5.91-7.5,10-9.57,13.91-1.93,3.61,4.39,4.25,8,2.83,9-3.49-29,37.23-29.4,42.89-.38,4.91,10.48,1,15.42-1.72s-16.85,17.35-15.74,23.28,12,1.16,12,1.16-29.89,25.24-30.2,30c-.68,10.41,13,18.11,33.35,23.15,4.68,1.16,8.54,4.35,13.83,5.22,51.88,8.6,130.08,1.66,145.51-15.9,4.44-5-17.91-23.18-17.91-23.18s.19.46,5.79.67-17.46-27-17.46-27,10.19,4.84,10-1.25-18.85-26.41-18.85-26.41,8.71,6.52,16.34,9.58,6.26-2.44-1-15.59-13.73-25.79-13.73-25.79,15.74,8.64,11.7-.21-27.3-33.36-27.3-33.36,8.67,7,17.16,7.63-12.61-28.62-12.61-28.62,13.08,2.36,4.42-10.67S631.91,184,640.6,190.71,662,196,652.46,188.49s-21.8-20.35-15.32-16.92,12.36.06,7.72-3.9S621.28,141.34,617.15,128C613.42,115.93,611.36,115.36,610,117.43Z"/><path class="cls-15" d="M607.93,97.55q-.35,1-.69,2c-4.63.68-8.86,1.38-11.74,1.94-9.3,1.67-5,3.7,1.87,6.36,2.28.89,3.86.75,6,1.49-6.13,18.37-3.5,18.44.8,14.54,2.64-2.39,6.17-7.08,7.92-7.61,2.57-.78,4.16.83,10.81,5.73,6,4.45,3.23-4-.51-14.14,5.44-3.26,11.51-7.5,12-9.9.25-1.29-7.24-.87-16,.13-.46-1-.92-2-1.37-2.85C611.27,83.81,611.08,88.45,607.93,97.55Z"/><path class="cls-13" d="M594.64,152.33a3,3,0,1,1,3.14-5.15,27.21,27.21,0,0,0,14.32,4,36.51,36.51,0,0,0,16.24-4,3,3,0,0,1,2.71,5.38,42.55,42.55,0,0,1-19,4.67A33.18,33.18,0,0,1,594.64,152.33Z"/><path class="cls-13" d="M573.75,203.16a3,3,0,0,1,4.15-4.37C590,210.35,602.56,218,613.61,220.9a31.16,31.16,0,0,0,13.82.75,19.09,19.09,0,0,0,10.3-5.6c2.9-3,5.16-7.3,6.6-12.87a3,3,0,1,1,5.83,1.51c-1.71,6.61-4.48,11.74-8.07,15.51a25,25,0,0,1-13.51,7.37,37.07,37.07,0,0,1-16.49-.85C600.08,223.62,586.59,215.41,573.75,203.16Z"/><path class="cls-13" d="M555.34,267a3,3,0,0,1,3.52-4.89,99.69,99.69,0,0,0,9.07,5.81c19.8,11.21,39.11,12.65,54.71,9.54,15.42-3.06,27.09-10.47,31.91-17.17a16.07,16.07,0,0,0,.95-1.47,3,3,0,1,1,5.24,3,22.53,22.53,0,0,1-1.3,2c-5.56,7.74-18.64,16.2-35.64,19.58-16.81,3.34-37.58,1.8-58.84-10.23A105.69,105.69,0,0,1,555.34,267Z"/><path class="cls-13" d="M541.74,303a3,3,0,1,1,3.82-4.65c23.79,19.52,45.87,31.15,66.53,35.11,20.39,3.91,39.48.3,57.56-10.59a3,3,0,0,1,3.12,5.17C653.37,339.74,632.87,343.6,611,339.4,589.3,335.25,566.34,323.2,541.74,303Z"/><path class="cls-16" d="M571.82,212.58c8.14,2.16,12.51-5.4,8.92,6.58-3.12,10.41,11.33,1.06,12.59,1.82.87,4.4-2.32,7.61,4.52,7.08l-.06,0a3.68,3.68,0,0,1,1.53-.22c-3.27,3.3-8,2.17-8.16-3.56a14.81,14.81,0,0,1-5.54,2.75c-9.61,1.83-9.16-4.2-8.12-9.73-2.31.57-4.14.28-7.52-.47a2.33,2.33,0,1,1,1.84-4.28Zm8.87,3.61a2.38,2.38,0,0,0,.59-.26Z"/><path class="cls-16" d="M644.94,192.71c-7.39-2.18-7.2-10.17-10.1.9-2.52,9.62-9.35-4.56-10.7-4.57-2.77,3-1.81,7-6.9,3.38l0,0a3.36,3.36,0,0,0-1.09-.9c1,4.13,5.23,5.51,8.07,1.1a13.55,13.55,0,0,0,3,4.78c6.64,6,9.15,1.08,11-3.73,1.53,1.54,3.1,2.19,6.1,3.22a2.13,2.13,0,1,0,.6-4.22Zm-8.64-1.4a2.19,2.19,0,0,1-.34-.48Z"/><path class="cls-16" d="M669,318.27c-10.71-6-9.25-16.67-13.58-.15-3.75,14.35-14-6.8-16-6.81-4.14,4.52-2.7,10.51-10.3,5l.06.07a5,5,0,0,0-1.63-1.35c1.48,6.17,7.8,8.22,12,1.64,1.16,2.6,2.35,5.19,4.5,7.13,9.91,9,13.66,1.61,16.37-5.57,2.29,2.3,4.62,3.27,9.1,4.8,1.74.25,6,1,6.26-.78S670.82,319.37,669,318.27Z"/><path class="cls-16" d="M537.24,346c10.71-6,9.25-16.67,13.58-.15,3.75,14.35,14-6.8,16-6.82,4.14,4.52,2.7,10.52,10.3,5l-.06.07a5,5,0,0,1,1.63-1.35c-1.48,6.17-7.8,8.22-12,1.65-1.16,2.6-2.35,5.19-4.5,7.13-9.91,9-13.66,1.61-16.37-5.57-2.29,2.3-4.62,3.27-9.1,4.8-1.74.25-6,1-6.26-.78S535.4,347.08,537.24,346Z"/><path class="cls-16" d="M565.64,253.57c8.29-4.67,7.17-12.92,10.52-.12,2.91,11.12,10.81-5.27,12.37-5.28,3.21,3.5,2.09,8.15,8,3.91l0,.05a3.88,3.88,0,0,1,1.26-1c-1.14,4.78-6,6.37-9.33,1.27a15.66,15.66,0,0,1-3.49,5.53c-7.67,6.94-10.58,1.25-12.68-4.32-1.77,1.78-3.58,2.53-7.05,3.72-1.35.19-4.66.74-4.85-.6S564.21,254.42,565.64,253.57Z"/><path class="cls-16" d="M677.39,363.4c-13.38-7.53-11.57-20.83-17-.18-4.69,17.93-17.44-8.5-20-8.52-5.17,5.64-3.37,13.14-12.87,6.3l.07.09a6.25,6.25,0,0,0-2-1.69c1.85,7.71,9.75,10.27,15,2.06,1.45,3.24,2.93,6.48,5.62,8.91,12.38,11.2,17.06,2,20.46-7,2.86,2.87,5.78,4.09,11.37,6,2.17.31,7.51,1.2,7.82-1S679.69,364.78,677.39,363.4Z"/><path class="cls-13" d="M519.9,362.81a3,3,0,1,1,5.12-3.16,45.14,45.14,0,0,0,7.74,9.44c15.71,14.59,40.92,17.16,66.13,13.72,25.58-3.49,51-13.15,66.76-22.85a56.8,56.8,0,0,0,11.6-9,3,3,0,0,1,4.41,4.11,62.7,62.7,0,0,1-12.85,10c-16.35,10.07-42.7,20.09-69.12,23.7-26.79,3.65-53.79.73-71-15.28A51.06,51.06,0,0,1,519.9,362.81Z"/><path class="cls-16" d="M588.92,167.4c5.19-1.53,5.06-7.15,7.1.63,1.77,6.76,6.57-3.2,7.52-3.21,2,2.13,1.27,5,4.85,2.38l0,0a2.38,2.38,0,0,1,.77-.64c-.7,2.9-3.68,3.87-5.67.77a9.53,9.53,0,0,1-2.12,3.36c-4.66,4.22-6.43.76-7.71-2.62-1.08,1.08-2.18,1.54-4.29,2.26a1.5,1.5,0,1,1-.42-3Z"/><path class="cls-17" d="M554.19,268.95a.75.75,0,1,1,.12-1.5c8.74.7,13.14,5.11,17.32,9.3,1,1,2.06,2.07,3.15,3a24.51,24.51,0,0,0,9.76,5.26,23.5,23.5,0,0,0,10.9.32,29.48,29.48,0,0,0,7.55-3.3c6.66-3.61,15-8.16,29.22-4.8,9.1,2.15,16.14,2.13,21.35.62,5.86-1.69,9.39-5.27,10.9-9.72a.75.75,0,1,1,1.43.48c-1.67,4.9-5.53,8.83-11.91,10.68-5.45,1.58-12.75,1.62-22.12-.59-13.62-3.22-21.72,1.17-28.16,4.66-2.84,1.54-5.37,2.91-8,3.44a25,25,0,0,1-11.59-.34,26,26,0,0,1-10.37-5.58c-1.09-1-2.15-2-3.23-3.1C566.57,273.81,562.38,269.6,554.19,268.95Z"/><ellipse class="cls-18" cx="569.48" cy="279.43" rx="2.04" ry="2.3" transform="translate(64.5 663.32) rotate(-63.38)"/><path class="cls-13" d="M569.5,279.38c1.06.53,2.15,4.12.65,7.11s-5.37,4.09-6.09,3.73-2.15-4.12-.65-7.11S568.44,278.84,569.5,279.38Z"/><path class="cls-5" d="M567.61,280.91a.2.2,0,0,1,.36.17,9.16,9.16,0,0,1-1.46,2.15,3.33,3.33,0,0,1,1.12.5l.21.16a4.74,4.74,0,0,1,.25-1.43l.48-1.26a.2.2,0,0,1,.36.18s0,0-.46,1.22a4.86,4.86,0,0,0-.23,1.67,3.62,3.62,0,0,1,.62,1,1.84,1.84,0,0,1,.15.58.56.56,0,0,1-.16.48.4.4,0,0,1-.24.09.36.36,0,0,1-.16,0h0a.93.93,0,0,1-.41-.61,5,5,0,0,1-.18-1c0-.1,0-.2,0-.3a3,3,0,0,0-.44-.38,3,3,0,0,0-1.22-.49,6.12,6.12,0,0,1-.75.64,2.23,2.23,0,0,1-.58.31h0a.46.46,0,0,1-.51-.1.48.48,0,0,1-.1-.35.84.84,0,0,1,.15-.44,1.16,1.16,0,0,1,.63-.41,2.54,2.54,0,0,1,.86-.09h.18a8.77,8.77,0,0,0,1.56-2.24Zm-2.4,3a5.11,5.11,0,0,0,.44-.36,2,2,0,0,0-.52.07.76.76,0,0,0-.42.26.42.42,0,0,0-.08.23.17.17,0,0,0,0,.07l.09,0h0a1.82,1.82,0,0,0,.47-.25Zm3.29,1.53a2.76,2.76,0,0,0-.2-.39,4,4,0,0,0,.13.63.74.74,0,0,0,.17.35.26.26,0,0,0,0-.14A1.46,1.46,0,0,0,568.5,285.42Z"/><ellipse class="cls-18" cx="588.03" cy="286.17" rx="2.04" ry="2.3" transform="translate(172.64 791.27) rotate(-76.52)"/><path class="cls-15" d="M588,286.12c1.16.28,3,3.52,2.25,6.78s-4.3,5.21-5.08,5-3-3.52-2.25-6.78S586.89,285.84,588,286.12Z"/><path class="cls-5" d="M586.55,288a.2.2,0,0,1,.39.09,9.12,9.12,0,0,1-.93,2.43,3.32,3.32,0,0,1,1.21.23l.24.11a4.68,4.68,0,0,1-.08-1.45c.17-1.3.18-1.33.18-1.33a.2.2,0,0,1,.39.09s0,0-.17,1.29a4.82,4.82,0,0,0,.16,1.68,3.62,3.62,0,0,1,.83.82,1.88,1.88,0,0,1,.27.53.56.56,0,0,1,0,.5.41.41,0,0,1-.21.15.36.36,0,0,1-.16,0h0a.93.93,0,0,1-.54-.5,5,5,0,0,1-.41-1l-.08-.29a3.13,3.13,0,0,0-.51-.27,3,3,0,0,0-1.3-.2,5.88,5.88,0,0,1-.59.79,2.14,2.14,0,0,1-.5.43h0a.46.46,0,0,1-.52,0,.48.48,0,0,1-.18-.32.82.82,0,0,1,0-.47,1.15,1.15,0,0,1,.52-.54,2.52,2.52,0,0,1,.81-.28l.18,0a8.81,8.81,0,0,0,1-2.54Zm-1.66,3.45a5,5,0,0,0,.35-.45,1.91,1.91,0,0,0-.49.19.77.77,0,0,0-.35.35.44.44,0,0,0,0,.24.17.17,0,0,0,0,.07l.09,0h0a1.79,1.79,0,0,0,.4-.35Zm3.55.75a2.82,2.82,0,0,0-.28-.33,3.84,3.84,0,0,0,.27.58c.1.17.19.29.25.31a.27.27,0,0,0,0-.14A1.43,1.43,0,0,0,588.44,292.23Z"/><ellipse class="cls-18" cx="606.55" cy="284.05" rx="2.3" ry="2.04" transform="translate(-55.46 182.41) rotate(-16.37)"/><path class="cls-13" d="M606.53,284c1.14-.34,4.38,1.55,5.32,4.76s-1.14,6.66-1.9,6.88-4.38-1.55-5.32-4.76S605.39,284.33,606.53,284Z"/><path class="cls-5" d="M606.19,286.41a.2.2,0,1,1,.38-.12,9.14,9.14,0,0,1,.4,2.56,3.33,3.33,0,0,1,1.17-.4l.26,0a4.72,4.72,0,0,1-.79-1.21L607.1,286a.2.2,0,1,1,.38-.11s0,0,.5,1.21a4.8,4.8,0,0,0,1,1.38,3.64,3.64,0,0,1,1.12.3,1.86,1.86,0,0,1,.5.32.56.56,0,0,1,.21.46.39.39,0,0,1-.11.23.36.36,0,0,1-.13.09h0a.92.92,0,0,1-.72-.17A4.89,4.89,0,0,1,609,289l-.22-.21a3.22,3.22,0,0,0-.58,0,3,3,0,0,0-1.22.47,6,6,0,0,1-.11,1,2.18,2.18,0,0,1-.21.62h0a.46.46,0,0,1-.44.28.48.48,0,0,1-.31-.19.82.82,0,0,1-.19-.43,1.16,1.16,0,0,1,.18-.73,2.56,2.56,0,0,1,.57-.65l.14-.11a8.83,8.83,0,0,0-.39-2.7Zm.27,3.81a5,5,0,0,0,.08-.56,1.92,1.92,0,0,0-.33.41.77.77,0,0,0-.13.47.44.44,0,0,0,.1.22l0,0,.05-.08h0a1.84,1.84,0,0,0,.17-.5Zm3.45-1.12a3,3,0,0,0-.41-.15,3.88,3.88,0,0,0,.52.37.74.74,0,0,0,.37.14s0-.07-.09-.12A1.5,1.5,0,0,0,609.92,289.1Z"/><ellipse class="cls-18" cx="625.87" cy="278.15" rx="2.3" ry="2.04" transform="translate(-37.8 108.95) rotate(-9.66)"/><path class="cls-15" d="M625.86,278.1c1.17-.2,4.17,2,4.73,5.35s-1.91,6.48-2.69,6.61-4.17-2-4.73-5.35S624.69,278.3,625.86,278.1Z"/><path class="cls-5" d="M625.25,280.45a.2.2,0,0,1,.4-.08,9.18,9.18,0,0,1,.1,2.59,3.32,3.32,0,0,1,1.2-.26h.26a4.69,4.69,0,0,1-.64-1.3c-.35-1.27-.36-1.29-.36-1.29a.2.2,0,0,1,.4-.07s0,0,.35,1.25a4.83,4.83,0,0,0,.81,1.48,3.63,3.63,0,0,1,1.08.42,1.87,1.87,0,0,1,.46.38.56.56,0,0,1,.15.48.4.4,0,0,1-.13.21.35.35,0,0,1-.14.07h0a.93.93,0,0,1-.69-.25,5,5,0,0,1-.75-.73l-.19-.23a3.06,3.06,0,0,0-.58,0,3,3,0,0,0-1.27.33,6,6,0,0,1-.23,1,2.19,2.19,0,0,1-.29.59h0a.46.46,0,0,1-.47.22.48.48,0,0,1-.29-.23.83.83,0,0,1-.14-.45,1.16,1.16,0,0,1,.26-.7,2.51,2.51,0,0,1,.64-.58l.15-.09a8.75,8.75,0,0,0-.07-2.73Zm-.17,3.82a4.68,4.68,0,0,0,.15-.55,2,2,0,0,0-.38.37.77.77,0,0,0-.18.46.43.43,0,0,0,.07.23l0,.05.06-.07h0a1.8,1.8,0,0,0,.23-.48Zm3.56-.71a3,3,0,0,0-.39-.2,3.87,3.87,0,0,0,.47.43.76.76,0,0,0,.35.18s0-.07-.07-.13A1.48,1.48,0,0,0,628.63,283.56Z"/><ellipse class="cls-18" cx="648.61" cy="281.22" rx="2.3" ry="2.04" transform="translate(-51.27 380.97) rotate(-31.55)"/><path class="cls-13" d="M648.59,281.18c1-.62,4.63.34,6.38,3.2s.65,6.72,0,7.14-4.63-.34-6.38-3.2S647.57,281.8,648.59,281.18Z"/><path class="cls-5" d="M648.89,283.59a.2.2,0,1,1,.34-.22,9.1,9.1,0,0,1,1.06,2.37,3.33,3.33,0,0,1,1-.69l.25-.09a4.71,4.71,0,0,1-1.08-1l-.82-1.07a.2.2,0,1,1,.34-.21s0,0,.8,1a4.82,4.82,0,0,0,1.3,1.08,3.61,3.61,0,0,1,1.16,0,1.87,1.87,0,0,1,.57.18.56.56,0,0,1,.32.39.39.39,0,0,1,0,.25.34.34,0,0,1-.1.12h0a.93.93,0,0,1-.74,0,5,5,0,0,1-1-.39l-.27-.15a3.26,3.26,0,0,0-.55.17,3,3,0,0,0-1.06.78,6,6,0,0,1,.15,1,2.19,2.19,0,0,1,0,.66h0a.46.46,0,0,1-.35.38.48.48,0,0,1-.35-.1.83.83,0,0,1-.29-.36,1.16,1.16,0,0,1,0-.75,2.56,2.56,0,0,1,.38-.77l.11-.14a8.81,8.81,0,0,0-1.08-2.51Zm1.26,3.61a4.72,4.72,0,0,0-.07-.56,1.91,1.91,0,0,0-.21.48.77.77,0,0,0,0,.49.43.43,0,0,0,.16.19l.06,0,0-.09h0a1.77,1.77,0,0,0,0-.53Zm3-2a2.84,2.84,0,0,0-.44,0,3.89,3.89,0,0,0,.6.22.72.72,0,0,0,.39,0s0-.05-.12-.09A1.51,1.51,0,0,0,653.19,285.22Z"/><path class="cls-5" d="M603.77,174.64a7.18,7.18,0,0,1,.41-3,2.39,2.39,0,0,1,.62-.92,1.17,1.17,0,0,1,1-.28,1.6,1.6,0,0,1,.75.43c.95.91.09,2.24-.82,3.19a9.88,9.88,0,0,1-.81.76c-.4.33-.83.41-1,.29a.45.45,0,0,1-.2-.52Zm.82-.77a2.43,2.43,0,0,0,1.38-1.19c.43-.87.24-1.92-.58-1.23A3.25,3.25,0,0,0,604.59,173.87Z"/><circle class="cls-18" cx="603.95" cy="176.48" r="2.5"/><path class="cls-15" d="M602.4,195.19a9.38,9.38,0,1,0-9.38-9.38A9.4,9.4,0,0,0,602.4,195.19Z"/><path class="cls-13" d="M602.42,176.43a22.26,22.26,0,0,0-3.8,8.35,34.38,34.38,0,0,0-1,9.12,9.42,9.42,0,0,1-3-2.78,37.28,37.28,0,0,1,1-7.06,28.24,28.24,0,0,1,2.5-6.63,9.34,9.34,0,0,1,4.21-1Zm-3.1,18.24a9.36,9.36,0,0,0,3,.52,34.31,34.31,0,0,1,1-9.45,22.54,22.54,0,0,1,3.64-8.13,9.32,9.32,0,0,0-3-1,26.44,26.44,0,0,0-3.61,8.45,37.53,37.53,0,0,0-1.05,9.65ZM604,195a37.42,37.42,0,0,1,1.06-8.43,26.85,26.85,0,0,1,3.32-8,9.45,9.45,0,0,1,2.06,2.41,24.76,24.76,0,0,0-2.46,6.34A34.28,34.28,0,0,0,607,194,9.3,9.3,0,0,1,604,195Z"/><path class="cls-5" d="M583.9,234.48a5.84,5.84,0,0,0-.73-2.31,1.94,1.94,0,0,0-.62-.65,1,1,0,0,0-.88-.08,1.3,1.3,0,0,0-.54.45c-.64.86.23,1.81,1.09,2.45a8.23,8.23,0,0,0,.75.5c.37.21.72.21.84.1a.37.37,0,0,0,.09-.44Zm-.76-.5a2,2,0,0,1-1.27-.77c-.47-.64-.45-1.51.29-1.07A2.64,2.64,0,0,1,583.14,234Z"/><circle class="cls-18" cx="584.5" cy="235.5" r="2.04" transform="translate(-31.38 102.1) rotate(-9.72)"/><path class="cls-15" d="M589.19,252.3a9.38,9.38,0,1,0-9.38-9.38A9.4,9.4,0,0,0,589.19,252.3Z"/><path class="cls-13" d="M583.73,235.3A81.54,81.54,0,0,0,597,237.75a9.33,9.33,0,0,1,1.34,3.15,84.41,84.41,0,0,1-17-3.15,9.43,9.43,0,0,1,2.36-2.45Zm-3.27,4.18a9.32,9.32,0,0,0-.64,3,89.62,89.62,0,0,0,18.42,2.94,9.39,9.39,0,0,0,.32-2.45c0-.18,0-.37,0-.55a86.09,86.09,0,0,1-18.08-2.9Zm-.49,5.2a87,87,0,0,0,17.46,2.71,9.4,9.4,0,0,1-2.38,2.85,91.13,91.13,0,0,1-13.66-2.09A9.31,9.31,0,0,1,580,244.68Z"/><path class="cls-5" d="M616.94,307.13a6.29,6.29,0,0,0-.79-2.5,2.08,2.08,0,0,0-.67-.7,1,1,0,0,0-.95-.08,1.4,1.4,0,0,0-.58.48c-.69.92.25,1.95,1.18,2.64a9.53,9.53,0,0,0,.81.54c.4.23.78.23.9.1a.4.4,0,0,0,.1-.48Zm-.82-.54a2.13,2.13,0,0,1-1.37-.83c-.5-.69-.49-1.62.31-1.15A2.84,2.84,0,0,1,616.12,306.58Z"/><circle class="cls-18" cx="617.59" cy="308.23" r="2.2" transform="translate(-43.14 108.6) rotate(-9.71)"/><path class="cls-15" d="M622.44,325.19a9.38,9.38,0,1,0-9.38-9.38A9.4,9.4,0,0,0,622.44,325.19Z"/><path class="cls-13" d="M617,308.19a81.5,81.5,0,0,0,13.27,2.45,9.34,9.34,0,0,1,1.34,3.15,84.41,84.41,0,0,1-17-3.15,9.42,9.42,0,0,1,2.36-2.45Zm-3.27,4.18a9.35,9.35,0,0,0-.64,3,89.64,89.64,0,0,0,18.42,2.94,9.38,9.38,0,0,0,.32-2.45c0-.18,0-.37,0-.55a86,86,0,0,1-18.08-2.9Zm-.49,5.2a87,87,0,0,0,17.46,2.71,9.41,9.41,0,0,1-2.38,2.85A91.22,91.22,0,0,1,614.65,321,9.33,9.33,0,0,1,613.22,317.57Z"/><path class="cls-5" d="M558.88,314.37a6.28,6.28,0,0,1,.79-2.5,2.08,2.08,0,0,1,.67-.7,1,1,0,0,1,1-.08,1.4,1.4,0,0,1,.58.48c.69.92-.25,1.95-1.18,2.64a8.33,8.33,0,0,1-.81.54c-.4.23-.78.23-.9.1a.4.4,0,0,1-.1-.48Zm.82-.54a2.12,2.12,0,0,0,1.37-.83c.5-.69.49-1.62-.31-1.15A2.85,2.85,0,0,0,559.7,313.83Z"/><circle class="cls-18" cx="558.23" cy="315.48" r="2.2" transform="translate(153.11 812.49) rotate(-80.29)"/><path class="cls-15" d="M553.38,332.44a9.38,9.38,0,1,0-9.38-9.38A9.4,9.4,0,0,0,553.38,332.44Z"/><path class="cls-13" d="M558.84,315.43a81.43,81.43,0,0,1-13.27,2.45,9.31,9.31,0,0,0-1.34,3.15,84.41,84.41,0,0,0,17-3.15,9.44,9.44,0,0,0-2.36-2.45Zm3.27,4.18a9.29,9.29,0,0,1,.64,3,89.65,89.65,0,0,1-18.42,2.94,9.4,9.4,0,0,1-.32-2.45c0-.18,0-.37,0-.55a86.06,86.06,0,0,0,18.08-2.9Zm.49,5.2a87,87,0,0,1-17.46,2.71,9.4,9.4,0,0,0,2.38,2.85,91.32,91.32,0,0,0,13.65-2.09A9.32,9.32,0,0,0,562.6,324.82Z"/><path class="cls-5" d="M638.06,229.15a5.83,5.83,0,0,0,1.19-2.11,1.92,1.92,0,0,0,.05-.9,1,1,0,0,0-.54-.7,1.3,1.3,0,0,0-.7-.09c-1.06.12-1.16,1.4-1,2.47a8.33,8.33,0,0,0,.15.89c.09.41.34.67.5.68a.37.37,0,0,0,.39-.23Zm-.15-.9a2,2,0,0,1-.3-1.45c.15-.78.79-1.36,1-.51A2.64,2.64,0,0,1,637.91,228.25Z"/><circle class="cls-18" cx="637.72" cy="230.29" r="2.04" transform="translate(68.18 598.19) rotate(-52.72)"/><circle class="cls-19" cx="635.49" cy="238.78" r="9.38" transform="translate(7.9 497.61) rotate(-43.01)"/><path class="cls-13" d="M637.35,229.59A81.57,81.57,0,0,0,644.61,241a9.32,9.32,0,0,1-1.39,3.13,84.39,84.39,0,0,1-9.27-14.56,9.42,9.42,0,0,1,3.4.06Zm-5.29.46a9.32,9.32,0,0,0-2.6,1.54,89.69,89.69,0,0,0,10.41,15.48,9.39,9.39,0,0,0,2-1.43l.39-.39a86,86,0,0,1-10.21-15.2Zm-4.14,3.19a9.32,9.32,0,0,0-1.57,3.41,91.33,91.33,0,0,0,7.78,11.41,9.43,9.43,0,0,0,3.71-.2A87.07,87.07,0,0,1,627.92,233.24Z"/><path class="cls-17" d="M570.47,205.11a.53.53,0,0,1,0-1.05c6.11,0,9.4,2.88,12.52,5.58.77.67,1.54,1.33,2.35,1.94a17.08,17.08,0,0,0,7.05,3.15,16.37,16.37,0,0,0,7.59-.34,20.52,20.52,0,0,0,5.08-2.68c4.44-2.85,10-6.44,20.06-4.84,6.43,1,11.33.65,14.87-.67,4-1.48,6.25-4.15,7.08-7.31a.52.52,0,1,1,1,.26c-.91,3.49-3.39,6.42-7.73,8-3.71,1.38-8.78,1.78-15.4.72-9.63-1.54-15,1.93-19.33,4.69a21.14,21.14,0,0,1-5.36,2.8,17.41,17.41,0,0,1-8.08.36,18.15,18.15,0,0,1-7.49-3.35c-.81-.61-1.6-1.3-2.4-2C579.33,207.86,576.2,205.15,570.47,205.11Z"/><ellipse class="cls-18" cx="619.39" cy="208.43" rx="2.3" ry="2.04" transform="translate(-33.12 172.08) rotate(-15.41)"/><path class="cls-20" d="M619.37,208.38c1.15-.32,4.35,1.62,5.24,4.85s-1.25,6.64-2,6.85-4.35-1.62-5.24-4.85S618.23,208.7,619.37,208.38Z"/><path class="cls-5" d="M619,210.78a.2.2,0,0,1,.39-.11,9.14,9.14,0,0,1,.36,2.57,3.31,3.31,0,0,1,1.17-.38l.26,0a4.76,4.76,0,0,1-.77-1.23l-.49-1.25a.2.2,0,0,1,.39-.11s0,0,.48,1.21a4.83,4.83,0,0,0,1,1.4,3.62,3.62,0,0,1,1.12.31,1.86,1.86,0,0,1,.5.33.56.56,0,0,1,.2.46.39.39,0,0,1-.11.23.36.36,0,0,1-.13.09h0a.93.93,0,0,1-.71-.18,5,5,0,0,1-.82-.65l-.22-.21a3.13,3.13,0,0,0-.58,0,3,3,0,0,0-1.23.45,5.83,5.83,0,0,1-.13,1,2.15,2.15,0,0,1-.22.62h0a.46.46,0,0,1-.45.27.48.48,0,0,1-.31-.19.82.82,0,0,1-.18-.43,1.16,1.16,0,0,1,.19-.73,2.51,2.51,0,0,1,.58-.64l.14-.11a8.77,8.77,0,0,0-.34-2.71Zm.21,3.82a4.85,4.85,0,0,0,.09-.56,2,2,0,0,0-.34.41.77.77,0,0,0-.13.47.43.43,0,0,0,.1.23l0,0,.05-.08h0a1.83,1.83,0,0,0,.18-.5Zm3.47-1.06a2.93,2.93,0,0,0-.41-.16,3.87,3.87,0,0,0,.52.38.73.73,0,0,0,.37.15.27.27,0,0,0-.09-.12A1.48,1.48,0,0,0,622.67,213.54Z"/><ellipse class="cls-18" cx="595.06" cy="215.84" rx="2.04" ry="2.3" transform="translate(246.43 744.18) rotate(-76.52)"/><path class="cls-15" d="M595.08,215.79c1.16.28,3,3.52,2.25,6.78s-4.3,5.21-5.08,5-3-3.52-2.25-6.78S593.92,215.51,595.08,215.79Z"/><path class="cls-5" d="M593.59,217.71a.2.2,0,0,1,.39.09,9.21,9.21,0,0,1-.93,2.43,3.31,3.31,0,0,1,1.21.23l.24.11a4.71,4.71,0,0,1-.08-1.45c.18-1.3.18-1.33.18-1.33a.2.2,0,0,1,.39.09s0,0-.17,1.29a4.81,4.81,0,0,0,.16,1.68,3.61,3.61,0,0,1,.83.82,1.87,1.87,0,0,1,.28.53.56.56,0,0,1,0,.5.4.4,0,0,1-.21.15.37.37,0,0,1-.16,0h0a.93.93,0,0,1-.54-.5,4.9,4.9,0,0,1-.41-1l-.09-.29a3.16,3.16,0,0,0-.51-.27,3,3,0,0,0-1.3-.2,6,6,0,0,1-.59.8,2.2,2.2,0,0,1-.5.43h0a.46.46,0,0,1-.52,0,.48.48,0,0,1-.18-.32.83.83,0,0,1,0-.47,1.15,1.15,0,0,1,.52-.54,2.53,2.53,0,0,1,.81-.28l.18,0a8.81,8.81,0,0,0,1-2.54Zm-1.66,3.45a4.93,4.93,0,0,0,.35-.45,1.93,1.93,0,0,0-.49.19.76.76,0,0,0-.35.35.42.42,0,0,0,0,.24.19.19,0,0,0,0,.07l.09,0h0a1.78,1.78,0,0,0,.4-.35Zm3.55.75a2.86,2.86,0,0,0-.28-.34,3.87,3.87,0,0,0,.27.58c.1.18.19.29.25.31a.27.27,0,0,0,0-.15A1.47,1.47,0,0,0,595.47,221.9Z"/><ellipse class="cls-18" cx="638.97" cy="206.78" rx="2.3" ry="2.04" transform="translate(-30.56 154.19) rotate(-13.44)"/><path class="cls-15" d="M639,206.73c1.16-.28,4.29,1.77,5.07,5s-1.47,6.59-2.25,6.78-4.29-1.77-5.07-5S637.79,207,639,206.73Z"/><path class="cls-5" d="M638.49,209.12a.2.2,0,1,1,.39-.1,9.13,9.13,0,0,1,.27,2.58,3.33,3.33,0,0,1,1.18-.34h.26a4.71,4.71,0,0,1-.73-1.25c-.43-1.24-.45-1.27-.45-1.27a.2.2,0,0,1,.39-.09s0,0,.44,1.23a4.83,4.83,0,0,0,.9,1.43,3.63,3.63,0,0,1,1.11.35,1.88,1.88,0,0,1,.48.35.56.56,0,0,1,.18.47.4.4,0,0,1-.12.22.35.35,0,0,1-.13.08h0a.93.93,0,0,1-.71-.21,4.94,4.94,0,0,1-.8-.67l-.21-.22a3.15,3.15,0,0,0-.58,0,3,3,0,0,0-1.25.41,6,6,0,0,1-.16,1,2.18,2.18,0,0,1-.25.61h0a.46.46,0,0,1-.46.25.48.48,0,0,1-.3-.21.82.82,0,0,1-.17-.44,1.16,1.16,0,0,1,.21-.72,2.52,2.52,0,0,1,.6-.62l.15-.1a8.78,8.78,0,0,0-.25-2.72Zm.08,3.82a4.71,4.71,0,0,0,.11-.56,1.92,1.92,0,0,0-.35.39.77.77,0,0,0-.15.47.43.43,0,0,0,.09.23l0,.05.06-.08h0a1.77,1.77,0,0,0,.2-.49Zm3.5-.94a3,3,0,0,0-.4-.17,3.92,3.92,0,0,0,.5.4.74.74,0,0,0,.36.16s0-.07-.08-.12A1.45,1.45,0,0,0,642.08,212Z"/><path class="cls-17" d="M593.44,153.82a16.37,16.37,0,0,0,7.41-.37,20.58,20.58,0,0,0,5.08-2.68c4.44-2.85,10-6.44,20.06-4.84l1,.15.82,1.17q-1-.12-2-.28c-9.63-1.54-15,1.93-19.33,4.69a21.17,21.17,0,0,1-5.36,2.8,17.41,17.41,0,0,1-8.08.36l-.28-.06Z"/><ellipse class="cls-18" cx="623.19" cy="146.68" rx="2.3" ry="2.04" transform="translate(-17.03 149) rotate(-13.45)"/><path class="cls-15" d="M623.18,146.63c1.16-.28,4.29,1.77,5.07,5s-1.48,6.59-2.25,6.78-4.29-1.77-5.07-5S622,146.91,623.18,146.63Z"/><path class="cls-5" d="M622.72,149a.2.2,0,0,1,.14-.25.2.2,0,0,1,.25.14,9.1,9.1,0,0,1,.27,2.58,3.32,3.32,0,0,1,1.18-.34h.26a4.74,4.74,0,0,1-.73-1.25l-.45-1.27a.2.2,0,0,1,.39-.09s0,0,.44,1.23a4.83,4.83,0,0,0,.9,1.43,3.61,3.61,0,0,1,1.11.35,1.87,1.87,0,0,1,.49.35.56.56,0,0,1,.18.47.39.39,0,0,1-.12.22.36.36,0,0,1-.13.08h0a.93.93,0,0,1-.71-.21,4.93,4.93,0,0,1-.8-.67l-.21-.22a3.11,3.11,0,0,0-.58,0,3,3,0,0,0-1.25.41,6,6,0,0,1-.16,1,2.21,2.21,0,0,1-.25.61h0a.46.46,0,0,1-.46.25.48.48,0,0,1-.3-.21.83.83,0,0,1-.17-.44,1.16,1.16,0,0,1,.22-.72,2.49,2.49,0,0,1,.6-.62l.15-.1a8.75,8.75,0,0,0-.25-2.72Zm.08,3.82a4.75,4.75,0,0,0,.11-.56,1.94,1.94,0,0,0-.35.39.77.77,0,0,0-.15.47.42.42,0,0,0,.09.23l0,.05.06-.08h0a1.78,1.78,0,0,0,.2-.49Zm3.5-.94a2.9,2.9,0,0,0-.4-.17,3.93,3.93,0,0,0,.5.4.74.74,0,0,0,.36.16s0-.07-.08-.12A1.51,1.51,0,0,0,626.3,151.9Z"/><ellipse class="cls-18" cx="610.65" cy="149.82" rx="2.3" ry="2.04" transform="translate(-17.86 167.64) rotate(-15.41)"/><path class="cls-20" d="M610.63,149.77c1.15-.32,4.35,1.62,5.24,4.85s-1.25,6.64-2,6.85-4.35-1.62-5.24-4.85S609.49,150.09,610.63,149.77Z"/><path class="cls-5" d="M610.26,152.17a.2.2,0,1,1,.39-.12,9.17,9.17,0,0,1,.36,2.57,3.32,3.32,0,0,1,1.17-.38l.26,0a4.71,4.71,0,0,1-.77-1.23l-.49-1.25a.2.2,0,1,1,.39-.11s0,0,.48,1.21a4.81,4.81,0,0,0,1,1.4,3.63,3.63,0,0,1,1.12.31,1.87,1.87,0,0,1,.5.33.56.56,0,0,1,.2.46.4.4,0,0,1-.11.23.35.35,0,0,1-.13.09h0a.93.93,0,0,1-.71-.18,4.93,4.93,0,0,1-.82-.65l-.21-.21a3.15,3.15,0,0,0-.58,0,3,3,0,0,0-1.23.45,6,6,0,0,1-.13,1,2.16,2.16,0,0,1-.23.62h0a.47.47,0,0,1-.45.27.48.48,0,0,1-.31-.2.84.84,0,0,1-.18-.43,1.16,1.16,0,0,1,.19-.73,2.54,2.54,0,0,1,.58-.64l.14-.11a8.82,8.82,0,0,0-.34-2.71Zm.21,3.82a4.85,4.85,0,0,0,.09-.56,1.91,1.91,0,0,0-.34.4.77.77,0,0,0-.14.47.43.43,0,0,0,.1.23l0,0,.05-.08h0a1.81,1.81,0,0,0,.18-.5Zm3.47-1.06a2.88,2.88,0,0,0-.41-.16,4,4,0,0,0,.52.38.73.73,0,0,0,.37.15s0-.07-.09-.12A1.43,1.43,0,0,0,613.94,154.93Z"/><ellipse class="cls-18" cx="599.57" cy="155.75" rx="2.04" ry="2.3" transform="translate(149.27 581.16) rotate(-57.93)"/><path class="cls-13" d="M599.59,155.71c1,.63,1.75,4.3,0,7.14s-5.74,3.57-6.41,3.14-1.75-4.3,0-7.14S598.59,155.08,599.59,155.71Z"/><path class="cls-5" d="M597.57,157.06a.2.2,0,0,1,.35.21,9.14,9.14,0,0,1-1.65,2,3.31,3.31,0,0,1,1.07.61l.19.18a4.73,4.73,0,0,1,.38-1.4l.59-1.21a.2.2,0,0,1,.34.21s0,0-.57,1.17a4.84,4.84,0,0,0-.38,1.64,3.62,3.62,0,0,1,.52,1,1.83,1.83,0,0,1,.09.59.55.55,0,0,1-.2.46.4.4,0,0,1-.24.07.37.37,0,0,1-.16,0h0a.93.93,0,0,1-.35-.65,5,5,0,0,1-.08-1q0-.15,0-.3a3.12,3.12,0,0,0-.4-.42,3,3,0,0,0-1.17-.6,6,6,0,0,1-.81.57,2.2,2.2,0,0,1-.61.25h0a.46.46,0,0,1-.5-.15.48.48,0,0,1-.07-.36.83.83,0,0,1,.2-.43,1.16,1.16,0,0,1,.66-.35,2.55,2.55,0,0,1,.86,0l.18,0a8.77,8.77,0,0,0,1.77-2.08Zm-2.67,2.74a4.82,4.82,0,0,0,.48-.31,1.93,1.93,0,0,0-.53,0,.77.77,0,0,0-.44.22.43.43,0,0,0-.1.22.18.18,0,0,0,0,.07h.1a1.76,1.76,0,0,0,.49-.21Zm3.13,1.84a3,3,0,0,0-.16-.41,3.93,3.93,0,0,0,.07.64.72.72,0,0,0,.14.37.28.28,0,0,0,0-.14A1.46,1.46,0,0,0,598,161.63Z"/><path class="cls-17" d="M529.45,336.93a.7.7,0,1,1,1.16-.8c5.24,7.55,10.57,12.47,16.28,14.5s11.76,1.17,18.6-2.77c9.86-5.67,20.18-3,33.73.46a211.89,211.89,0,0,0,20.87,4.57c24.25,3.76,31.41-5,38.93-14.17l.07-.08h0c7.89-9.65,17.59-9.21,17.62-9.21a.7.7,0,1,1,0,1.4s-9-.41-16.48,8.7h0l-.06.08c-7.78,9.51-15.18,18.55-40.23,14.66a213.38,213.38,0,0,1-21-4.6c-13.23-3.4-23.32-6-32.68-.6-7.22,4.16-13.7,5-19.76,2.88S534.86,344.72,529.45,336.93Z"/><ellipse class="cls-18" cx="545.01" cy="351.62" rx="2.04" ry="2.3" transform="translate(-42.33 626.77) rotate(-57.93)"/><path class="cls-15" d="M545,351.58c1,.63,1.75,4.3,0,7.14s-5.74,3.57-6.41,3.14-1.75-4.3,0-7.14S544,350.94,545,351.58Z"/><path class="cls-5" d="M543,352.92a.2.2,0,0,1,.35.21,9.17,9.17,0,0,1-1.65,2,3.31,3.31,0,0,1,1.07.61l.19.18a4.73,4.73,0,0,1,.38-1.4l.59-1.21a.2.2,0,1,1,.34.21s0,0-.57,1.17a4.84,4.84,0,0,0-.38,1.64,3.63,3.63,0,0,1,.52,1,1.86,1.86,0,0,1,.09.59.56.56,0,0,1-.2.46.4.4,0,0,1-.24.07.36.36,0,0,1-.16,0h0a.93.93,0,0,1-.35-.65,4.94,4.94,0,0,1-.08-1c0-.1,0-.2,0-.3a3.18,3.18,0,0,0-.4-.42,3,3,0,0,0-1.17-.6,6.11,6.11,0,0,1-.81.57,2.25,2.25,0,0,1-.61.25h0a.46.46,0,0,1-.5-.15.48.48,0,0,1-.07-.36.82.82,0,0,1,.19-.42,1.16,1.16,0,0,1,.66-.35,2.5,2.5,0,0,1,.86,0l.18,0a8.78,8.78,0,0,0,1.77-2.08Zm-2.67,2.74a5,5,0,0,0,.48-.31,1.89,1.89,0,0,0-.53,0,.77.77,0,0,0-.44.22.43.43,0,0,0-.1.22.16.16,0,0,0,0,.07h.1a1.79,1.79,0,0,0,.49-.21Zm3.13,1.84a2.86,2.86,0,0,0-.16-.41,3.81,3.81,0,0,0,.07.64.73.73,0,0,0,.14.37.25.25,0,0,0,0-.14A1.45,1.45,0,0,0,543.47,357.5Z"/><ellipse class="cls-18" cx="560.99" cy="352.08" rx="2.3" ry="2.04" transform="translate(-73.42 161.83) rotate(-15.42)"/><path class="cls-20" d="M561,352c1.15-.32,4.35,1.62,5.24,4.85s-1.25,6.64-2,6.85-4.35-1.62-5.24-4.85S559.83,352.34,561,352Z"/><path class="cls-5" d="M560.6,354.43a.2.2,0,0,1,.39-.11,9.18,9.18,0,0,1,.36,2.57,3.31,3.31,0,0,1,1.17-.38l.26,0a4.7,4.7,0,0,1-.77-1.23c-.48-1.22-.49-1.25-.49-1.25a.2.2,0,0,1,.14-.25.2.2,0,0,1,.25.14s0,0,.48,1.21a4.8,4.8,0,0,0,1,1.4,3.61,3.61,0,0,1,1.12.32,1.81,1.81,0,0,1,.5.33.57.57,0,0,1,.2.46.41.41,0,0,1-.11.23.35.35,0,0,1-.13.09h0a.92.92,0,0,1-.71-.18,4.9,4.9,0,0,1-.82-.65l-.22-.21a3.05,3.05,0,0,0-.58,0,3,3,0,0,0-1.23.45,6,6,0,0,1-.13,1,2.18,2.18,0,0,1-.23.62h0a.46.46,0,0,1-.45.27.49.49,0,0,1-.31-.2.83.83,0,0,1-.18-.43,1.16,1.16,0,0,1,.19-.73,2.52,2.52,0,0,1,.58-.64l.14-.11a8.83,8.83,0,0,0-.34-2.71Zm.21,3.82a4.87,4.87,0,0,0,.09-.56,2,2,0,0,0-.34.41.77.77,0,0,0-.13.47.44.44,0,0,0,.1.23l0,0,.05-.08h0a1.78,1.78,0,0,0,.18-.5Zm3.47-1.06a2.66,2.66,0,0,0-.41-.16,3.87,3.87,0,0,0,.52.38.72.72,0,0,0,.37.15.28.28,0,0,0-.09-.12A1.49,1.49,0,0,0,564.28,357.19Z"/><ellipse class="cls-18" cx="583.18" cy="347.62" rx="2.04" ry="2.3" transform="translate(126.01 849.55) rotate(-78.47)"/><path class="cls-13" d="M583.19,347.57c1.17.24,3.15,3.41,2.48,6.7s-4.12,5.35-4.9,5.19-3.15-3.41-2.48-6.7S582,347.33,583.19,347.57Z"/><path class="cls-5" d="M581.76,349.54a.2.2,0,0,1,.4.07,9.17,9.17,0,0,1-.84,2.46,3.28,3.28,0,0,1,1.22.19l.24.1a4.72,4.72,0,0,1-.13-1.44c.13-1.31.13-1.34.13-1.34a.2.2,0,0,1,.39.08s0,0-.12,1.3a4.84,4.84,0,0,0,.22,1.67,3.61,3.61,0,0,1,.86.79,1.89,1.89,0,0,1,.29.52.56.56,0,0,1,0,.5.39.39,0,0,1-.2.15.35.35,0,0,1-.16,0h0a.93.93,0,0,1-.55-.49,4.91,4.91,0,0,1-.44-.95l-.1-.29a3.23,3.23,0,0,0-.52-.25,3,3,0,0,0-1.3-.15,6,6,0,0,1-.56.81,2.19,2.19,0,0,1-.48.45h0a.47.47,0,0,1-.52,0,.48.48,0,0,1-.19-.31.84.84,0,0,1,0-.47,1.17,1.17,0,0,1,.5-.56,2.54,2.54,0,0,1,.8-.31l.18,0a8.8,8.8,0,0,0,.92-2.57Zm-1.54,3.5a5,5,0,0,0,.34-.46,2,2,0,0,0-.49.21.77.77,0,0,0-.33.36.44.44,0,0,0,0,.24.21.21,0,0,0,0,.07l.08,0h0a1.77,1.77,0,0,0,.39-.36Zm3.57.62a3.11,3.11,0,0,0-.29-.33,3.82,3.82,0,0,0,.29.57c.11.17.2.28.26.3a.25.25,0,0,0,0-.14A1.5,1.5,0,0,0,583.79,353.67Z"/><ellipse class="cls-18" cx="598.71" cy="351.23" rx="2.3" ry="2.04" transform="translate(-71.86 171.92) rotate(-15.43)"/><path class="cls-20" d="M598.7,351.18c1.15-.32,4.35,1.62,5.24,4.85s-1.25,6.64-2,6.85-4.35-1.62-5.24-4.85S597.55,351.49,598.7,351.18Z"/><path class="cls-5" d="M598.32,353.58a.2.2,0,1,1,.39-.11,9.17,9.17,0,0,1,.36,2.57,3.32,3.32,0,0,1,1.17-.38l.26,0a4.69,4.69,0,0,1-.77-1.23l-.49-1.25a.2.2,0,1,1,.39-.11s0,0,.48,1.21a4.86,4.86,0,0,0,1,1.39,3.64,3.64,0,0,1,1.12.31,1.84,1.84,0,0,1,.5.33.56.56,0,0,1,.2.46.41.41,0,0,1-.11.23.35.35,0,0,1-.13.09h0a.94.94,0,0,1-.71-.18,4.85,4.85,0,0,1-.82-.65l-.22-.21a3.23,3.23,0,0,0-.58,0,3,3,0,0,0-1.23.45,5.94,5.94,0,0,1-.13,1,2.2,2.2,0,0,1-.22.62h0a.46.46,0,0,1-.45.27.48.48,0,0,1-.31-.2.83.83,0,0,1-.18-.43,1.16,1.16,0,0,1,.19-.72,2.53,2.53,0,0,1,.58-.64l.14-.11a8.8,8.8,0,0,0-.34-2.71Zm.21,3.82a5,5,0,0,0,.09-.56,1.89,1.89,0,0,0-.34.41.76.76,0,0,0-.13.47.42.42,0,0,0,.1.22l0,0,.05-.08h0a1.8,1.8,0,0,0,.18-.5Zm3.47-1.06a2.9,2.9,0,0,0-.41-.16,3.89,3.89,0,0,0,.52.38.73.73,0,0,0,.36.15.27.27,0,0,0-.08-.12A1.47,1.47,0,0,0,602,356.34Z"/><ellipse class="cls-18" cx="618.75" cy="355.03" rx="2.04" ry="2.3" transform="translate(-10.59 690.93) rotate(-57.94)"/><path class="cls-15" d="M618.78,355c1,.63,1.75,4.3,0,7.14s-5.74,3.57-6.41,3.14-1.75-4.3,0-7.14S617.77,354.36,618.78,355Z"/><path class="cls-5" d="M616.75,356.33a.2.2,0,1,1,.35.21,9.13,9.13,0,0,1-1.65,2,3.32,3.32,0,0,1,1.07.61l.19.18a4.72,4.72,0,0,1,.38-1.4l.59-1.21a.2.2,0,0,1,.34.21s0,0-.57,1.17a4.84,4.84,0,0,0-.39,1.64,3.61,3.61,0,0,1,.53,1,1.89,1.89,0,0,1,.09.59.56.56,0,0,1-.2.46.4.4,0,0,1-.24.07.38.38,0,0,1-.15,0h0a.93.93,0,0,1-.35-.65,5,5,0,0,1-.08-1c0-.1,0-.2,0-.3a3.14,3.14,0,0,0-.4-.42,3,3,0,0,0-1.17-.6,6,6,0,0,1-.81.57,2.18,2.18,0,0,1-.61.25h0a.46.46,0,0,1-.5-.15.48.48,0,0,1-.07-.36.85.85,0,0,1,.19-.43,1.17,1.17,0,0,1,.66-.35,2.53,2.53,0,0,1,.86,0l.18,0a8.77,8.77,0,0,0,1.77-2.08Zm-2.67,2.74a4.64,4.64,0,0,0,.48-.31,1.92,1.92,0,0,0-.53,0,.77.77,0,0,0-.44.22.44.44,0,0,0-.1.22.18.18,0,0,0,0,.07h.1a1.72,1.72,0,0,0,.49-.21Zm3.13,1.84a3,3,0,0,0-.16-.41,3.92,3.92,0,0,0,.07.64.74.74,0,0,0,.14.37.27.27,0,0,0,0-.14A1.49,1.49,0,0,0,617.21,360.91Z"/><ellipse class="cls-18" cx="636.89" cy="355.39" rx="2.3" ry="2.04" transform="translate(-91.81 385.82) rotate(-31.55)"/><path class="cls-13" d="M636.86,355.35c1-.62,4.63.34,6.38,3.2s.65,6.72,0,7.14-4.63-.34-6.38-3.2S635.85,356,636.86,355.35Z"/><path class="cls-5" d="M637.17,357.76a.2.2,0,0,1,.34-.22,9.2,9.2,0,0,1,1.06,2.37,3.32,3.32,0,0,1,1-.69l.25-.09a4.69,4.69,0,0,1-1.08-1l-.82-1.07a.2.2,0,0,1,.34-.21s0,0,.8,1a4.82,4.82,0,0,0,1.3,1.08,3.61,3.61,0,0,1,1.16,0,1.85,1.85,0,0,1,.57.18.56.56,0,0,1,.32.39.4.4,0,0,1,0,.25.38.38,0,0,1-.1.12h0a.93.93,0,0,1-.74,0,5,5,0,0,1-1-.39l-.27-.15a3.16,3.16,0,0,0-.55.17,3,3,0,0,0-1.06.78,6,6,0,0,1,.15,1,2.23,2.23,0,0,1,0,.66h0a.46.46,0,0,1-.35.38.47.47,0,0,1-.35-.1.83.83,0,0,1-.29-.36,1.16,1.16,0,0,1,0-.75,2.51,2.51,0,0,1,.38-.77l.11-.14a8.78,8.78,0,0,0-1.08-2.51Zm1.26,3.61a4.7,4.7,0,0,0-.07-.57,2,2,0,0,0-.21.48.78.78,0,0,0,0,.49.44.44,0,0,0,.16.19l.06,0,0-.09h0a1.79,1.79,0,0,0,0-.53Zm3-2a2.85,2.85,0,0,0-.44,0,3.92,3.92,0,0,0,.6.22.74.74,0,0,0,.39,0,.27.27,0,0,0-.12-.09A1.44,1.44,0,0,0,641.47,359.39Z"/><ellipse class="cls-18" cx="653.78" cy="348.88" rx="2.3" ry="2.04" transform="translate(-61.55 542.4) rotate(-43.22)"/><path class="cls-15" d="M653.75,348.84c-.87.81-.88,4.56,1.41,7s6.32,2.39,6.9,1.84.88-4.56-1.41-7S654.62,348,653.75,348.84Z"/><path class="cls-5" d="M656,349.77a.2.2,0,1,0-.3.27,9.19,9.19,0,0,0,2,1.65,3.32,3.32,0,0,0-.93.8l-.15.21a4.7,4.7,0,0,0-.64-1.3l-.81-1.07a.2.2,0,1,0-.29.27l.79,1a4.84,4.84,0,0,1,.7,1.54,3.61,3.61,0,0,0-.31,1.12,1.84,1.84,0,0,0,0,.6.56.56,0,0,0,.29.41.4.4,0,0,0,.25,0,.35.35,0,0,0,.14-.07h0a.93.93,0,0,0,.22-.7,4.92,4.92,0,0,0-.12-1c0-.1,0-.2-.07-.3a3,3,0,0,1,.31-.49,3,3,0,0,1,1-.82,5.83,5.83,0,0,0,.9.4,2.16,2.16,0,0,0,.65.13h0a.46.46,0,0,0,.46-.24.48.48,0,0,0,0-.37.83.83,0,0,0-.27-.38,1.16,1.16,0,0,0-.72-.22,2.53,2.53,0,0,0-.84.16l-.17.06a8.82,8.82,0,0,1-2.14-1.7Zm3.15,2.17a5,5,0,0,1-.53-.21,2,2,0,0,1,.52-.08.78.78,0,0,1,.47.13.44.44,0,0,1,.14.2.2.2,0,0,1,0,.07h-.11a1.83,1.83,0,0,1-.52-.11Zm-2.71,2.41a2.83,2.83,0,0,1,.08-.43,3.93,3.93,0,0,1,.06.64.74.74,0,0,1-.06.39.27.27,0,0,1-.06-.13A1.48,1.48,0,0,1,656.44,354.35Z"/><ellipse class="cls-18" cx="664.36" cy="335.24" rx="2.3" ry="2.04" transform="translate(-65.2 188.6) rotate(-15.41)"/><path class="cls-20" d="M664.34,335.19c1.15-.32,4.35,1.62,5.24,4.85s-1.25,6.64-2,6.85-4.35-1.62-5.24-4.85S663.2,335.51,664.34,335.19Z"/><path class="cls-5" d="M664,337.59a.2.2,0,0,1,.39-.12,9.18,9.18,0,0,1,.36,2.57,3.31,3.31,0,0,1,1.17-.38l.26,0a4.72,4.72,0,0,1-.77-1.23l-.49-1.25a.2.2,0,0,1,.39-.11s0,0,.48,1.21a4.82,4.82,0,0,0,1,1.4,3.6,3.6,0,0,1,1.12.31,1.88,1.88,0,0,1,.5.33.56.56,0,0,1,.2.46.4.4,0,0,1-.11.23.36.36,0,0,1-.13.09h0a.93.93,0,0,1-.71-.18,5,5,0,0,1-.82-.65l-.22-.21a3.14,3.14,0,0,0-.58,0,3,3,0,0,0-1.23.45,6,6,0,0,1-.13,1,2.19,2.19,0,0,1-.23.62h0a.46.46,0,0,1-.45.27.49.49,0,0,1-.31-.2.83.83,0,0,1-.18-.43,1.16,1.16,0,0,1,.19-.73,2.54,2.54,0,0,1,.58-.64l.14-.11a8.79,8.79,0,0,0-.34-2.71Zm.21,3.82a4.82,4.82,0,0,0,.09-.56,1.94,1.94,0,0,0-.34.4.77.77,0,0,0-.14.47.44.44,0,0,0,.1.22l0,0,.05-.08h0a1.76,1.76,0,0,0,.18-.5Zm3.47-1.06a2.78,2.78,0,0,0-.41-.16,3.72,3.72,0,0,0,.51.38.74.74,0,0,0,.37.15s0-.07-.08-.12A1.48,1.48,0,0,0,667.65,340.35Z"/><path class="cls-16" d="M672.5,395c-14.92-3-12.79-14.07-22.59-2.56s-8.53,6.39-24.3,5.54c-10.19-.55-7.12,3.88-14.24,6.28-3.9,1.32-16.66,2-22.84,1-17.48-3-18.68-3.75-27.29-2.08s-19.45-4.69-24.18-2.51c6.94,1.88,10.16,6.53,18.61,7,51.5,3,129,.14,143.93-16.87,3.51-4-9.74-16.17-15.43-21.09a22.29,22.29,0,0,1-6-.33L677,369C683.29,384,686.38,397.81,672.5,395Z"/><path class="cls-16" d="M532,399.11c8.48,1.58,9.27,2.76,11.83,7.89s6.31,8.08,20.31,5.13,20.9-4.53,38.05,7.1,18.53-.79,31.94-6.31,21.1-4.34,39.24-3.55,19.12-5.72,18.34-9.46,3.75-3.35,10.45.59,9.07-.59,4.14-8.28-13.6-13.8-14.59-12.22-3,11.24-10.06,15.58-21.1,4.93-41.8,7.1c-18.1,1.9-32.34,10.2-84.76,3.6C547.58,405.31,541.38,400.58,532,399.11Z"/><path class="cls-8" d="M581.88,428.49c-14.8,3.9-28.88,13-28.88,17,0,9.11,50.35-3.76,52.13-11.31C606.12,430,596.69,424.59,581.88,428.49Z"/><path class="cls-5" d="M581.88,428.49A79.11,79.11,0,0,0,565,435.18c-2.58,2.06-4.12,3.94-4.12,5.25,0,5.66,22.42,3.62,37.58-1.15,1.55-.49,6.43-4.08,6.67-5.09C606.12,430,596.69,424.59,581.88,428.49Z"/><path class="cls-5" d="M622.42,427a79.63,79.63,0,0,0-17.84,3.9c-2.9,1.63-4.73,3.24-4.94,4.54-1.13,6.87,28.65,5.88,44.34,1.85a2.8,2.8,0,0,0,.59-.84C646.23,432.4,637.75,425.49,622.42,427Z"/><path class="cls-5" d="M72.2,175.77a.75.75,0,0,1,1.49,0v4.4l3-3a1.32,1.32,0,0,1,1.76.73v4.32l3.12-3.12a.75.75,0,0,1,1.05,1.05l-3.12,3.12h4.32a1.32,1.32,0,0,1,.73,1.76l-3.05,3H86a.75.75,0,0,1,0,1.49h-4.4l3.05,3a1.32,1.32,0,0,1-.73,1.77H79.56l3.11,3.11a.74.74,0,0,1-1.05,1.05l-3.11-3.11v4.31a1.32,1.32,0,0,1-1.77.73l-3-3v4.4a.75.75,0,0,1-1.49,0v-4.4l-3,3a1.32,1.32,0,0,1-1.77-.73V195.4l-3.11,3.11a.75.75,0,0,1-1.05-1.05l3.11-3.11H62a1.32,1.32,0,0,1-.73-1.77l3.05-3h-4.4a.75.75,0,1,1,0-1.49h4.4l-3.05-3a1.32,1.32,0,0,1,.73-1.76h4.32l-3.12-3.12a.75.75,0,0,1,1.05-1.05l3.12,3.12v-4.32a1.32,1.32,0,0,1,1.76-.73l3,3v-4.4ZM77,198.61v-4.7l-3.33-3.33v4.7L77,198.61Zm-4.82-3.33v-4.7l-3.33,3.33v4.7l3.33-3.33Zm1.49-13V187L77,183.66V179l-3.33,3.33ZM68.88,179v4.7L72.2,187v-4.7L68.88,179Zm-1.05,13.9,3.33-3.33h-4.7l-3.33,3.33Zm10.25-8.14L74.75,188h4.7l3.33-3.33Zm4.7,8.14-3.33-3.33h-4.7l3.33,3.33Zm-19.66-8.14L66.45,188h4.7l-3.33-3.33Z"/><path class="cls-5" d="M516.21,96.91a.75.75,0,0,1,1.49,0v4.4l3-3a1.32,1.32,0,0,1,1.76.73v4.32l3.12-3.12a.75.75,0,0,1,1.05,1.05l-3.12,3.12h4.32a1.32,1.32,0,0,1,.73,1.76l-3,3.05H530a.75.75,0,0,1,0,1.49h-4.4l3,3a1.32,1.32,0,0,1-.73,1.77h-4.31l3.11,3.11a.75.75,0,0,1-1.05,1.05l-3.11-3.11v4.31a1.32,1.32,0,0,1-1.76.73l-3-3v4.4a.75.75,0,0,1-1.49,0v-4.4l-3,3a1.32,1.32,0,0,1-1.77-.73v-4.31l-3.11,3.11a.75.75,0,0,1-1.05-1.05l3.11-3.11H506a1.32,1.32,0,0,1-.73-1.77l3-3h-4.4a.75.75,0,1,1,0-1.49h4.4l-3-3.05a1.32,1.32,0,0,1,.73-1.76h4.32l-3.12-3.12a.75.75,0,1,1,1.05-1.05l3.12,3.12V99a1.32,1.32,0,0,1,1.76-.73l3,3v-4.4ZM521,119.75V115l-3.32-3.33v4.7l3.32,3.32Zm-4.82-3.32v-4.7L512.89,115v4.7l3.33-3.32Zm1.49-13v4.7L521,104.8v-4.7l-3.33,3.33Zm-4.82-3.33v4.7l3.33,3.33v-4.7l-3.33-3.33Zm-1,13.9,3.33-3.33h-4.7L507.13,114Zm10.25-8.14-3.33,3.33h4.7l3.33-3.33Zm4.7,8.14-3.32-3.33h-4.7l3.33,3.33Zm-19.66-8.14,3.33,3.33h4.7l-3.33-3.33Z"/><path class="cls-5" d="M676.31,193.12a.75.75,0,0,1,1.49,0v4.4l3-3.05a1.32,1.32,0,0,1,1.76.73v4.32l3.12-3.12a.74.74,0,1,1,1.05,1.05l-3.12,3.12H688a1.32,1.32,0,0,1,.73,1.76l-3,3h4.4a.75.75,0,1,1,0,1.49h-4.4l3,3a1.32,1.32,0,0,1-.73,1.77h-4.31l3.11,3.11a.75.75,0,1,1-1.05,1.05l-3.11-3.11v4.31a1.32,1.32,0,0,1-1.77.73l-3-3.05v4.4a.75.75,0,0,1-1.49,0v-4.4l-3,3.05a1.32,1.32,0,0,1-1.77-.73v-4.31l-3.11,3.11a.75.75,0,0,1-1.05-1.05l3.11-3.11h-4.31a1.32,1.32,0,0,1-.73-1.77l3-3H664a.75.75,0,1,1,0-1.49h4.4l-3-3a1.32,1.32,0,0,1,.73-1.76h4.32l-3.12-3.12a.74.74,0,0,1,1.05-1.05l3.12,3.12v-4.32a1.32,1.32,0,0,1,1.76-.73l3,3.05v-4.4ZM681.12,216v-4.7l-3.33-3.33v4.7l3.33,3.33Zm-4.82-3.33v-4.7L673,211.26V216l3.33-3.33Zm1.49-13v4.7l3.33-3.33v-4.7l-3.33,3.33ZM673,196.31V201l3.33,3.33v-4.7L673,196.31Zm-1.05,13.9,3.33-3.32h-4.7l-3.33,3.32Zm10.25-8.14-3.33,3.33h4.7l3.33-3.33Zm4.7,8.14-3.33-3.32h-4.7l3.32,3.32Zm-19.66-8.14,3.33,3.33h4.7l-3.33-3.33Z"/><path class="cls-5" d="M200.75,130a.75.75,0,1,1,1.49,0v4.4l3-3.05a1.32,1.32,0,0,1,1.76.73v4.32l3.12-3.12a.75.75,0,1,1,1.05,1.05l-3.12,3.12h4.32a1.32,1.32,0,0,1,.73,1.76l-3,3.05h4.4a.75.75,0,1,1,0,1.49h-4.4l3,3a1.32,1.32,0,0,1-.73,1.77h-4.31l3.11,3.11a.75.75,0,1,1-1.05,1.05l-3.11-3.11V154a1.32,1.32,0,0,1-1.77.73l-3-3v4.4a.75.75,0,1,1-1.49,0v-4.4l-3,3a1.32,1.32,0,0,1-1.77-.73v-4.31l-3.11,3.11a.75.75,0,1,1-1.05-1.05l3.11-3.11h-4.31a1.32,1.32,0,0,1-.73-1.77l3-3h-4.4a.75.75,0,0,1,0-1.49h4.4l-3-3.05a1.32,1.32,0,0,1,.73-1.76h4.32l-3.12-3.12a.75.75,0,1,1,1.05-1.05l3.12,3.12v-4.32a1.32,1.32,0,0,1,1.76-.73l3,3.05V130Zm4.82,22.84v-4.7l-3.33-3.32v4.7l3.33,3.33Zm-4.82-3.33v-4.7l-3.32,3.32v4.7l3.32-3.33Zm1.49-13v4.7l3.33-3.33v-4.7l-3.33,3.33Zm-4.82-3.33v4.7l3.33,3.33v-4.7l-3.33-3.33Zm-1,13.9,3.32-3.33H195l-3.33,3.33ZM206.63,139l-3.33,3.33H208l3.33-3.33Zm4.7,8.14L208,143.79h-4.7l3.32,3.33ZM191.67,139,195,142.3h4.7L196.37,139Z"/><path class="cls-5" d="M91.92,75.62a.75.75,0,0,1,1.49,0V80l3-3a1.32,1.32,0,0,1,1.76.73V82l3.12-3.12A.75.75,0,1,1,102.39,80l-3.12,3.12h4.32a1.32,1.32,0,0,1,.73,1.76l-3.05,3h4.4a.75.75,0,1,1,0,1.49h-4.4l3.05,3a1.32,1.32,0,0,1-.73,1.77H99.28l3.11,3.11a.75.75,0,1,1-1.05,1.05l-3.11-3.11v4.31a1.32,1.32,0,0,1-1.77.73l-3-3v4.4a.75.75,0,0,1-1.49,0v-4.4l-3,3a1.32,1.32,0,0,1-1.77-.73V95.24L84,98.36a.75.75,0,1,1-1.05-1.05l3.11-3.11H81.74A1.32,1.32,0,0,1,81,92.42l3-3h-4.4a.75.75,0,1,1,0-1.49h4.4l-3-3a1.32,1.32,0,0,1,.73-1.76h4.32L82.94,80A.75.75,0,1,1,84,78.9L87.11,82V77.7A1.32,1.32,0,0,1,88.87,77l3,3v-4.4Zm4.82,22.84v-4.7l-3.33-3.32v4.7l3.33,3.33Zm-4.82-3.33v-4.7l-3.33,3.32v4.7l3.33-3.33Zm1.49-13v4.7l3.33-3.33V78.8l-3.33,3.33ZM88.59,78.8v4.7l3.33,3.33v-4.7L88.59,78.8Zm-1,13.9,3.32-3.33h-4.7L82.84,92.7Zm10.25-8.14-3.33,3.33h4.7l3.33-3.33Zm4.7,8.14-3.32-3.33h-4.7l3.33,3.33ZM82.84,84.56l3.33,3.33h4.7l-3.33-3.33Z"/><path class="cls-5" d="M213.14,229.26a.55.55,0,1,1,1.1,0v3.26l2.26-2.26a1,1,0,0,1,1.3.54V234l2.31-2.31a.55.55,0,0,1,.78.78l-2.31,2.31h3.19a1,1,0,0,1,.54,1.3l-2.26,2.26h3.26a.55.55,0,0,1,0,1.1h-3.26l2.26,2.26a1,1,0,0,1-.54,1.31h-3.19l2.3,2.3a.55.55,0,0,1-.78.78l-2.3-2.3V247a1,1,0,0,1-1.31.54l-2.26-2.26v3.26a.55.55,0,1,1-1.1,0v-3.26l-2.26,2.26a1,1,0,0,1-1.31-.54v-3.19l-2.3,2.3a.55.55,0,0,1-.78-.78l2.3-2.3h-3.19a1,1,0,0,1-.54-1.31l2.26-2.26h-3.26a.55.55,0,0,1,0-1.1h3.26l-2.26-2.26a1,1,0,0,1,.54-1.3h3.19l-2.31-2.31a.55.55,0,0,1,.78-.78l2.31,2.31v-3.19a1,1,0,0,1,1.3-.54l2.26,2.26v-3.26Zm3.56,16.9v-3.48l-2.46-2.46v3.48l2.46,2.46Zm-3.56-2.46v-3.48l-2.46,2.46v3.48l2.46-2.46Zm1.1-9.62v3.48l2.46-2.46v-3.48l-2.46,2.46Zm-3.57-2.46v3.48l2.46,2.46v-3.48l-2.46-2.46Zm-.78,10.29,2.46-2.46h-3.48l-2.46,2.46Zm7.59-6L215,238.34h3.48l2.46-2.46Zm3.48,6-2.46-2.46H215l2.46,2.46Zm-14.55-6,2.46,2.46h3.48l-2.46-2.46Z"/><path class="cls-5" d="M705.26,89.67a.55.55,0,0,1,1.1,0v3.26l2.26-2.26a1,1,0,0,1,1.3.54v3.19l2.31-2.31a.55.55,0,0,1,.78.78l-2.31,2.31h3.19a1,1,0,0,1,.54,1.3l-2.26,2.26h3.26a.55.55,0,1,1,0,1.1h-3.26l2.26,2.26a1,1,0,0,1-.54,1.31h-3.19l2.3,2.3a.55.55,0,0,1-.78.78l-2.3-2.3v3.19a1,1,0,0,1-1.31.54l-2.26-2.26v3.26a.55.55,0,0,1-1.1,0v-3.26L703,107.93a1,1,0,0,1-1.31-.54V104.2l-2.3,2.3a.55.55,0,0,1-.78-.78l2.3-2.3h-3.19a1,1,0,0,1-.54-1.31l2.26-2.26h-3.26a.55.55,0,1,1,0-1.1h3.26l-2.26-2.26a1,1,0,0,1,.54-1.3h3.19l-2.31-2.31a.55.55,0,0,1,.78-.78l2.31,2.31V91.22a1,1,0,0,1,1.3-.54l2.26,2.26V89.67Zm3.56,16.9V103.1l-2.46-2.46v3.48l2.46,2.46Zm-3.56-2.46v-3.48l-2.46,2.46v3.48l2.46-2.46Zm1.1-9.62V98l2.46-2.46V92l-2.46,2.46ZM702.79,92v3.48L705.26,98V94.49L702.79,92ZM702,102.32l2.46-2.46H701l-2.46,2.46Zm7.59-6-2.46,2.46h3.48l2.46-2.46Zm3.48,6-2.46-2.46h-3.48l2.46,2.46Zm-14.55-6L701,98.75h3.48L702,96.29Z"/><circle class="cls-21" cx="186.22" cy="104.7" r="3.35"/><circle class="cls-21" cx="60.04" cy="160.3" r="3.35"/><circle class="cls-21" cx="120.66" cy="190.56" r="2.07"/><circle class="cls-21" cx="193.61" cy="108.94" r="2.07"/><circle class="cls-21" cx="561.81" cy="79.86" r="3.35"/><circle class="cls-21" cx="554.22" cy="88.43" r="2.07"/><circle class="cls-21" cx="707.32" cy="159.9" r="3.35"/><circle class="cls-21" cx="689.87" cy="164.93" r="2.07"/><circle class="cls-21" cx="77.19" cy="72.17" r="3.35"/><circle class="cls-21" cx="70.39" cy="78.77" r="2.07"/><circle class="cls-21" cx="138.01" cy="88.83" r="2.07"/><circle class="cls-21" cx="94.24" cy="149.55" r="2.07"/><circle class="cls-21" cx="282.24" cy="67.04" r="3.35"/><circle class="cls-21" cx="275.43" cy="73.65" r="2.07"/><circle class="cls-21" cx="225.75" cy="60.04" r="2.07"/><circle class="cls-21" cx="520.5" cy="56.1" r="2.07"/><circle class="cls-21" cx="663.15" cy="73.35" r="3.35"/><circle class="cls-21" cx="684.54" cy="82.12" r="2.07"/><circle class="cls-21" cx="695.39" cy="136.15" r="2.07"/><circle class="cls-21" cx="201.1" cy="203.18" r="2.07"/><circle class="cls-21" cx="73.84" cy="261.09" r="2.07"/><circle class="cls-21" cx="108.42" cy="235" r="2.07"/><circle class="cls-21" cx="238.98" cy="284.96" r="2.07"/><circle class="cls-21" cx="492.19" cy="266.08" r="2.07"/><circle class="cls-21" cx="529.18" cy="142.45" r="2.07"/><circle class="cls-21" cx="724.76" cy="218.16" r="2.07"/><circle class="cls-21" cx="156.84" cy="159.9" r="2.76"/><circle class="cls-21" cx="25.93" cy="114.95" r="2.76"/><circle class="cls-21" cx="460.57" cy="101.44" r="2.07"/><circle class="cls-21" cx="457.91" cy="86.76" r="3.35"/><circle class="cls-21" cx="643.24" cy="114.36" r="3.35"/><circle class="cls-21" cx="211.85" cy="54.62" r="3.35"/></g></svg>