<svg id="Layer_1" data-name="Layer 1" xmlns="http://www.w3.org/2000/svg" viewBox="0 0 254.82 129.21"><defs><style>.cls-1{fill:#1a7072;}.cls-2{fill:#010100;}.cls-3{fill:#020101;}.cls-4{fill:#0b0805;}.cls-5{fill:#160d09;}.cls-6{fill:#18110d;}.cls-7{fill:#140b07;}.cls-8{fill:#17130c;}.cls-9{fill:#fe8000;}.cls-10{fill:#fe6b00;}.cls-11{fill:#fea700;}.cls-12{fill:#fe7300;}.cls-13{fill:#fe7600;}.cls-14{fill:#fe9c00;}.cls-15{fill:#fe9200;}.cls-16{fill:#fe6700;}.cls-17{fill:#fe5800;}.cls-18{fill:#fea200;}.cls-19{fill:#fe5d00;}.cls-20{fill:#fe8800;}.cls-21{fill:#fe8500;}.cls-22{fill:#fd4e00;}.cls-23{fill:#fcab00;}.cls-24{fill:#fe8d00;}.cls-25{fill:#fe5700;}.cls-26{fill:#fe6300;}.cls-27{fill:#fe9700;}.cls-28{fill:#fd9200;}.cls-29{fill:#fe7b00;}.cls-30{fill:#fe7000;}.cls-31{fill:#fe6200;}.cls-32{fill:#fe8e00;}.cls-33{fill:#fe8400;}.cls-34{fill:#fe5300;}.cls-35{fill:#fe8900;}.cls-36{fill:#fe9800;}.cls-37{fill:#fc4800;}.cls-38{fill:#fe5200;}.cls-39{fill:#fe9e00;}.cls-40{fill:#fd4c00;}.cls-41{fill:#fca300;}.cls-42{fill:#fba700;}.cls-43{fill:#fc4600;}.cls-44{fill:#fe7f00;}.cls-45{fill:#fe5100;}.cls-46{fill:#fda500;}.cls-47{fill:#fd4b00;}.cls-48{fill:#fd8d00;}.cls-49{fill:#fe6c00;}.cls-50{fill:#fd6b00;}.cls-51{fill:#fd6500;}.cls-52{fill:#fe6100;}.cls-53{fill:#fd6f00;}.cls-54{fill:#fc4500;}.cls-55{fill:#fda900;}.cls-56{fill:#fe4b00;}.cls-57{fill:#fd5d00;}.cls-58{fill:#fe9d00;}.cls-59{fill:#fe7100;}.cls-60{fill:#fea600;}.cls-61{fill:#fd6600;}.cls-62{fill:#fe7700;}.cls-63{fill:#fa6000;}.cls-64{fill:#fe5e00;}.cls-65{fill:#fe4d00;}.cls-66{fill:#fd4800;}.cls-67{fill:#fca900;}.cls-68{fill:#fd7000;}.cls-69{fill:#fa7500;}.cls-70{fill:#fda600;}.cls-71{fill:#fe6600;}.cls-72{fill:#fd7f00;}.cls-73{fill:#fe8a00;}.cls-74{fill:#fd8400;}.cls-75{fill:#080502;}.cls-76{fill:#050302;}.cls-77{fill:#fd7600;}.cls-78{fill:#fd6700;}.cls-79{fill:#030201;}.cls-80{fill:#fd7a00;}.cls-81{fill:#fe7a00;}.cls-82{fill:#fd8300;}.cls-83{fill:#efefef;}.cls-84{fill:#f8f8f8;}</style></defs><title>logo</title><path class="cls-1" d="M53.51,48.5c1-.51,1.86-.86,2.64-1.35C60.29,44.58,64.4,42,68.53,39.4A3,3,0,0,0,70,36.63c.09-4.65.29-9.3.47-13.95.06-1.48.38-1.74,1.8-1.5a10.54,10.54,0,0,1,1.43.35c2.36.75,2.89,1.41,2.7,3.84Q75.31,40,74.11,54.53c-.37,4.55-.82,9.09-1.13,13.64-.09,1.39-.68,1.93-2,1.9l-2.68,0c-1,0-1.27-.49-1.15-1.47q1-8.84,2-17.7c.21-1.94.28-3.9.43-6.17-.67.32-1.05.49-1.42.69-4.44,2.4-8.88,4.79-13.29,7.25a1.63,1.63,0,0,0-.7,1.32c1.21,7,2.43,13.91,3.8,20.84.31,1.58.11,2.67-1.24,3.55-.79.51-1.51,1.11-2.26,1.67s-1.43.62-1.71-.57c-1.06-4.53-2.39-9-3.16-13.57Q47.47,53,45.89,40.13c-.89-7.28-1.42-14.6-2.07-21.9-.32-3.56-.53-7.14-.79-10.71-.16-2.22,0-2.44,2.26-2.15,1.41.18,2.81.53,4.21.81a1.43,1.43,0,0,1,1.25,1.6c.11,5.37.11,10.74.48,16.09.52,7.72,1.32,15.41,2,23.12C53.28,47.43,53.39,47.84,53.51,48.5Z"/><path class="cls-1" d="M154.74,19.23a10.7,10.7,0,0,0-1.48.08c-7,1.47-13.88,3-20.85,4.42-5.76,1.13-11.53,1.28-16.81-1.84a22.24,22.24,0,0,1-4-3.69c-.68-.68-.54-1.29.29-1.86a11.14,11.14,0,0,1,5.84-1.72,1.34,1.34,0,0,1,1.07.7c.91,3.55,3.56,5,6.8,5a48.77,48.77,0,0,0,10.1-1c11.41-2.41,22.76-5.11,34.17-7.58,5.9-1.28,11.85-2.41,17.95-1.62s11.91,2,17,5.57c2.25,1.55,2.32,1.9.58,4.07a8.15,8.15,0,0,1-2,1.76,2.63,2.63,0,0,1-3.51-.24c-2.81-2.39-6.34-3.23-9.87-3.88-6.88-1.28-13.8-1-20.71-.28-3,.31-5.94.77-8.92,1.08a1.78,1.78,0,0,0-1.72,1.51,109.51,109.51,0,0,0-4.26,37A119.82,119.82,0,0,0,158,81a2,2,0,0,1-.71,2.37,23.11,23.11,0,0,1-3,1.76c-1,.5-1.63.07-1.79-1-.8-5.3-1.8-10.58-2.36-15.91A113.22,113.22,0,0,1,150.63,40c.94-6.44,2.48-12.8,3.76-19.19C154.48,20.33,154.59,19.87,154.74,19.23Z"/><path class="cls-1" d="M14.21,43.79c.61,8.61,1,16.61,3.44,24.32a14.49,14.49,0,0,0,3.49,6.4,8.89,8.89,0,0,0,9.69,2c3.34-1.17,4.93-3.94,5.22-7.32a32.22,32.22,0,0,0-.31-6.26c-.13-1.14-.08-2,1-2.6,1.3-.68,2.55-1.46,3.89-2,1-.42,1.61,0,1.78,1.12A45.4,45.4,0,0,1,43,72.18c-.77,6-3.22,8.85-9,10.4-9.4,2.51-17-1.22-21.19-10.36A57.42,57.42,0,0,1,8.94,59,61.38,61.38,0,0,1,7.65,44.88c.23-5.75,1.32-11.3,4.77-16.09a17.87,17.87,0,0,1,11.23-7.45c3.7-.74,6.7.6,9.11,3.33,3.23,3.66,4.73,8.15,5.81,12.8.18.77,0,1.39-.88,1.52-1.54.25-3.08.45-4.63.59-.82.08-1.1-.44-1.22-1.25a33.92,33.92,0,0,0-1-5.12c-1.48-4.81-5-6.18-9.51-3.74-3.68,2-5.63,5.27-6.5,9.22A47,47,0,0,0,14.21,43.79Z"/><path class="cls-1" d="M94.49,28.49c5.37-.36,9.09,2.09,11.49,6.67s3.09,9.5.05,14.27c-1.7,2.67-4.31,3.92-7.28,4.57-2.09.46-2.06.44-1.72,2.55C98.38,65,101.3,73,104.21,80.93a22.52,22.52,0,0,0,.94,2.51,2,2,0,0,1-.88,2.95,10.11,10.11,0,0,1-1.39.81c-2.27,1-3.23.49-4-1.82A240.48,240.48,0,0,1,91.1,55.69a2,2,0,0,0-2-1.87c-3.17-.53-2.72-1-3.21,2.35-.79,5.35-1.35,10.73-2.07,16.09a1.89,1.89,0,0,1-1,1.32c-1.7.54-3.45.9-5.19,1.32-1.06.25-1.38-.16-1.17-1.22,1.46-7.55,2.87-15.1,4.34-22.65,1.26-6.49,2.62-13,3.85-19.46a2.21,2.21,0,0,1,2.23-2.13C89.44,29.2,92,28.81,94.49,28.49ZM92.84,35l-.08.25a11,11,0,0,0-2.39.2,1.88,1.88,0,0,0-1.17,1.12c-.6,3.11-1.1,6.25-1.56,9.39-.06.39.24,1.15.51,1.22,3.06.83,6.18,1.23,9.2-.07A5.8,5.8,0,0,0,101,41.71c.12-2.32-.67-4.34-2.88-5.3A36.87,36.87,0,0,0,92.84,35Z"/><path class="cls-1" d="M168.26,39.92c-.21,1-.46,2-.62,3.06-1,6.36-1.43,12.72.33,19,.82,2.92,1.81,5.8,2.72,8.7.28.88.58,1.89-.34,2.44a13.36,13.36,0,0,1-3.26,1.25c-.19.05-.72-.51-.83-.87-1.28-4.42-2.75-8.79-3.66-13.29a63.75,63.75,0,0,1-1-10.92,36.63,36.63,0,0,1,3.16-16.05A1.7,1.7,0,0,1,166.55,32c1.25,0,2.51,0,3.76,0,.93,0,1.35.32,1.5,1.27.55,3.58,1.16,7.15,1.78,10.71.19,1.07.48,2.12.72,3.17h.36c.54-2,1-3.93,1.64-5.85q2-6.16,4.26-12.27c.75-2.08,2.45-2.81,4.55-2.87a10.61,10.61,0,0,1,7.3,2.1c1.81,1.45,3.67,2.84,5.45,4.33a3.52,3.52,0,0,1,1,4.44c-4,9.75-8,19.53-12,29.27-1.1,2.65-3.06,3.17-5.69,1.81-1-.52-.7-1.17-.35-1.89,1.55-3.17,3.14-6.33,4.62-9.53,2.67-5.76,5.28-11.54,6.83-17.73.81-3.23-1.77-7.21-5.1-7.6a2.45,2.45,0,0,0-2.7,1.56c-1.91,4.47-3.88,8.92-5.6,13.46-1.17,3.09-1.93,6.33-2.92,9.48a2.38,2.38,0,0,1-.91,1.19c-.73.47-1.33.32-1.61-.64-1.4-4.76-2.82-9.51-4.23-14.26-.21-.72-.39-1.46-.58-2.19Z"/><path class="cls-1" d="M247.88,31.19c-.44,3.23-.85,6.46-1.36,9.68-.07.45-.6.91-1,1.21a3.32,3.32,0,0,1-1.28.38c-2.76.55-3.39-.12-3.14-2.84.31-3.42.49-6.87.57-10.3a13.42,13.42,0,0,0-.59-3.68,1.59,1.59,0,0,0-2.43-1.06,7.82,7.82,0,0,0-2.26,1.84,25.12,25.12,0,0,0-4.66,9.71c-.9,3.56.22,6.32,2.66,8.88a102.34,102.34,0,0,1,7.38,8.49c4.6,6.05,4.29,12.45.74,18.86a13.15,13.15,0,0,1-9.67,7.14c-3.74.62-6.47-.6-8.35-3.89-2.52-4.41-2.34-9.07-1.23-13.81a3.34,3.34,0,0,1,.19-.64c.51-1.11.78-2.86,1.61-3.19a16.1,16.1,0,0,1,5.48-.67c1,0,.86.89.66,1.63-.64,2.37-1.36,4.72-1.85,7.12a11.85,11.85,0,0,0,0,3.86c.33,2.45,2.25,3.39,4.44,2.23,2.5-1.32,3.92-3.58,5-6.11,2.06-5,.69-9.21-2.72-13.09-2-2.31-3.94-4.74-5.81-7.19-3.85-5-4.18-10.6-2.16-16.41,1.33-3.83,3.33-7.23,6.86-9.49,4.43-2.83,9.71-1.49,11.5,3a21.92,21.92,0,0,1,1.13,4.81,23.48,23.48,0,0,1,0,3.48Z"/><path class="cls-1" d="M212.6,86.42c-4-.11-4.37-.57-3.73-4.39q2-12,4.07-24.06c.45-2.66.4-2.73-2.27-3-1.69-.2-3.39-.34-5-.7-1.43-.31-2,.26-2.42,1.52-.85,2.54-1.89,5-2.71,7.56a3.44,3.44,0,0,1-2.54,2.3,2.89,2.89,0,0,1-1.18.22c-1.16-.16-2.31-.41-3.47-.62a23,23,0,0,1,.89-2.85Q201,47.45,207.94,32.55c1-2.14,2.19-4.2,3.4-6.23,2.57-4.33,7-4.25,10.43-2.68a1.77,1.77,0,0,1,.68,1.48c-.86,6.6-1.84,13.19-2.69,19.79-.79,6.12-1.43,12.26-2.2,18.37-.9,7.14-1.88,14.27-2.84,21.4C214.47,86.48,214.45,86.48,212.6,86.42Zm-7.22-36.27c2.81.33,5.32.66,7.85.88.27,0,.78-.49.86-.82.28-1.21.45-2.46.63-3.69.79-5.65,1.59-11.31,2.32-17,.07-.52-.23-1.48-.55-1.57a2,2,0,0,0-1.72.48,17.29,17.29,0,0,0-2.39,3.82c-2,4.73-3.83,9.51-5.72,14.29C206.21,47.72,205.83,48.89,205.39,50.16Z"/><path class="cls-1" d="M133,46.39c0,2.86,1.19,5.31,2.4,7.78a105.8,105.8,0,0,1,5.14,11,11.45,11.45,0,0,1-12.86,15.11,7.25,7.25,0,0,1-6.09-6c-.72-4.14.06-8.18.95-12.21.18-.81.71-1,1.42-.73s1.28.42,1.89.69c2,.87,2.14,1.43,1.74,3.53a41.07,41.07,0,0,0-.64,5.18c-.1,1.5,0,3.17,1.54,3.88s3.17.17,4.58-.72c2.15-1.35,2.7-3.45,2.52-5.82a22.81,22.81,0,0,0-2.47-8c-2.08-4.41-4.07-8.86-4.66-13.79a15.44,15.44,0,0,1,4.13-12.84c3.12-3.39,8.31-3.69,11.3-.69a7.34,7.34,0,0,1,2.24,5.71A35.47,35.47,0,0,1,145,45.05a4.05,4.05,0,0,1-4.16,2.74c-1.14-.11-1.43-.57-1.16-1.7.43-1.83.89-3.65,1.16-5.5a11.06,11.06,0,0,0-.11-3.05c-.15-1.12-.7-2.33-1.85-2.32a3.67,3.67,0,0,0-2.66,1.42,25.14,25.14,0,0,0-2.55,5.4A25,25,0,0,0,133,46.39Z"/><path class="cls-1" d="M109.67,74.8c.52-3.77,1.07-8.07,1.71-12.36,1.47-10,3-20,4.47-29.94.26-1.73.53-1.91,2.17-1.35,1,.33,1.93.71,2.92,1s1.4.89,1.14,2.06c-.86,3.79-1.68,7.59-2.37,11.4-1.61,8.88-3.14,17.77-4.7,26.65-.07.4-.13.79-.2,1.19-.5,2.93-.78,3.17-3.81,3.27C109.81,76.76,109.61,76.56,109.67,74.8Z"/><path d="M168.75,86.29c3.84,1.49,7.68,3,11.53,4.45a1.24,1.24,0,0,1,.86,1.36c0,9.51,0,19,0,28.53,0,1.33-1,1.21-1.63,1.7s-1-.2-1.31-.57l-10.41-11c.16,2.23.25,4.16.45,6.07.34,3.42.25,3.59-3.15,4.14q-5.39.87-10.79,1.67c-1.78.26-1.88.15-1.88-1.58,0-11.09,0-22.17-.06-33.26,0-1.34.75-1.63,1.54-2.07s1.28.35,1.78.82a.56.56,0,0,1,.07.59c-1-.11-1.41.25-1.21,1.27a5.86,5.86,0,0,1,0,1q0,.81,0,1.61c0,.49,0,1,0,1.47q0,1,0,2c0,.58,0,1.17,0,1.75,0,.41,0,.82,0,1.23s0,1,0,1.45,0,1.09,0,1.64c0,.23,0,.45,0,.68s0,.44,0,.65,0,.57,0,.85,0,.28,0,.42,0,.57,0,.85,0,.44,0,.66,0,.45,0,.67c0,.54,0,1.08,0,1.62s0,.8,0,1.19,0,1,0,1.46,0,1,0,1.48,0,1.15,0,1.73c0,.41,0,.83,0,1.24,0,.58,0,1.16,0,1.75s0,1,0,1.5,0,1.16,0,1.73c0,2,0,2,2,1.72,3.24-.44,6.45-1.1,9.7-1.49.43,0,1,.07,1.09-.56a15.66,15.66,0,0,0-.27-2.84c0-.23,0-.47,0-.7a7.4,7.4,0,0,0-.22-2.35,10.59,10.59,0,0,1-.07-1.7,16.62,16.62,0,0,0-.26-2.84,2,2,0,0,1,.19-.91c.23-.34.5-.21.78-.08a20.75,20.75,0,0,1,1.61,1.53q.6.63,1.23,1.23a11,11,0,0,1,1.24,1.49c.52.61,1.12,1.15,1.68,1.71s1.18,1.2,1.79,1.79c.4.43.83.83,1.23,1.26a9.66,9.66,0,0,0,1.56,1.79c.76.75,1.51,1.52,2.34,2.33,0-.95,0-1.83-.06-2.71,0-.46,0-.92,0-1.38s0-1.14,0-1.71,0-1.16,0-1.75,0-1.16,0-1.75,0-1,0-1.48,0-.81,0-1.22,0-1,0-1.44,0-1.09,0-1.63c0-.22,0-.45,0-.67s0-.44,0-.65,0-.57,0-.85,0-.28,0-.42,0-.57,0-.85,0-.44,0-.66,0-.45,0-.67c0-.54,0-1.08,0-1.62s0-.8,0-1.2,0-1,0-1.46,0-1.13,0-1.69,0-1.07,0-1.6c.17-1.13-.54-1.56-1.46-1.81-1.44-.7-3-1.1-4.48-1.72a43.3,43.3,0,0,0-4.56-1.88c-.62-.23-1.34-.36-1.6-1.12C168.15,86.11,168.42,86.12,168.75,86.29Z"/><path class="cls-2" d="M132,100.93c5.15,2.23,6.51,8.48,2.75,13-3,3.64-7.13,5.54-11.63,6.47-4.87,1-9.69.74-14.19-1.76a2.16,2.16,0,0,1-1.28-2.05c-.26-5.9,0-11.83-.74-17.71a19.46,19.46,0,0,0-1.2-5.3c-.33-.77-.34-1.34.55-1.81a31.61,31.61,0,0,1,20.44-3.28C133.43,89.6,135.54,95.72,132,100.93Z"/><path d="M151,96.92c.49.44.26,1,.26,1.53q0,10,0,19.94c0,1.91-.38,2.47-2.22,2.72-3.46.48-6.94.83-10.4,1.29-1.27.17-1.61-.27-1.6-1.52.05-7,0-14.08,0-21.13,0-.79,0-1.36,1-1.63s.59-.93.14-1.6a6.64,6.64,0,0,1-.25-7.38,8.26,8.26,0,0,1,8-3.68,6.78,6.78,0,0,1,3.82,10.89C149.85,97.26,150.67,96.55,151,96.92Z"/><path class="cls-2" d="M206.58,117.13c-3.11,4.2-7.45,5.53-12.37,4.8-6.74-1-10.26-5.61-12-11.73-3.14-11,3.43-21.35,14.6-23.15a12.52,12.52,0,0,1,8.95,1.62,2,2,0,0,1,1,2.29c-.54,3.1-1,6.23-1.55,9.32-.22,1.14-.13,1.57,1.12,1.19a6.11,6.11,0,0,1,1.32-.11,2.22,2.22,0,0,1,1.87.14.46.46,0,0,1-.21.43c-1.32.65-2.77.54-4.17.72a1.15,1.15,0,0,1-1.16-.49,6.47,6.47,0,0,1,.29-3.1,5.13,5.13,0,0,1,.18-.67,7.17,7.17,0,0,0,.21-2,11.29,11.29,0,0,1,.37-1.53,19.53,19.53,0,0,0,.3-2c.15-.55.18-1.12.29-1.68.37-.92,0-1.47-.88-1.78-4-2.36-8.07-1.79-12.1,0a23.87,23.87,0,0,0-2.48,1.51c-.68.61-1.47,1.09-2.11,1.75s-1.14,1.39-1.69,2.1-.88,1.26-1.25,1.94a6.26,6.26,0,0,0-.53,1.24,7.37,7.37,0,0,0-.52,1.51c-.09.42-.2.83-.25,1.26a8.79,8.79,0,0,0-.26,2.48,10.86,10.86,0,0,0,.14,2.79c.15.58.09,1.2.27,1.78s.12,1,.27,1.45c.09.32.18.64.29,1s.19.61.32.9a15.12,15.12,0,0,0,.83,1.89q.17.23.31.47a8.69,8.69,0,0,0,.66,1.15,8.23,8.23,0,0,0,1.37,1.65c.5.52,1,1,1.55,1.53a8.7,8.7,0,0,0,2.25,1.4,12.14,12.14,0,0,0,11,0,6,6,0,0,0,1.93-1.44c.51-.34.67-1,1.15-1.33a.52.52,0,0,1,.39,0C206.58,116.62,206.76,116.82,206.58,117.13Z"/><path class="cls-2" d="M210.37,101.06c.7-6.18,6.22-12.23,12.89-13.84,5.28-1.27,10.35-1,14.66,2.91.11.29-.07.4-.3.48-.75,0-1.24-.51-1.81-.87-5-2.9-10.13-2.78-15.28-.34A14,14,0,0,0,218,91.16a4.62,4.62,0,0,0-1.53,1.45,14.25,14.25,0,0,0-1.7,2.09,10.45,10.45,0,0,0-.82,1.5c-.23.45-.46.9-.67,1.36a6.32,6.32,0,0,0-.26.72,8.59,8.59,0,0,0-.24,1,10.42,10.42,0,0,0-.27,1.69,7.8,7.8,0,0,0-.22,2.25,9.33,9.33,0,0,0,.13,2.52c.16.57.09,1.18.27,1.75.11.4.15.82.28,1.22s.19.64.3,1a7,7,0,0,0,.58,1.43,11.34,11.34,0,0,0,1.13,2,10.07,10.07,0,0,0,.91,1.23,10.74,10.74,0,0,0,1.82,2,12.37,12.37,0,0,0,1.95,1.49,14.79,14.79,0,0,0,15.28,0c.84-.37,1.34-1.22,2.19-1.6a1.38,1.38,0,0,1,.82-.19c.21.09.38.2.26.47-4.85,4.59-10.61,6.29-16.94,4.27s-9.75-6.95-10.93-13.43a6.73,6.73,0,0,1-.6-1.82,6.25,6.25,0,0,1,0-.74A7.24,7.24,0,0,1,210.37,101.06Z"/><path class="cls-3" d="M168.75,86.29l-.64.28c.19,1.09.33,2.18.55,3.26.12.58.2,1.16.34,1.73a12.56,12.56,0,0,0,.26,1.29c.12.57.21,1.15.34,1.72a15.2,15.2,0,0,0,.29,1.73c.08.51.18,1,.29,1.52a2.51,2.51,0,0,1,0,1.11c-.37.77-.79.34-1.22.06a7.73,7.73,0,0,0-1.51-1.29,23.46,23.46,0,0,0-1.86-1.5,1.34,1.34,0,0,1-.55-1.1c.1-.21.22-.37.49-.24l1.86,1.36c-.2-2.78-.9-5.29-1.32-7.86C165.76,86.61,167,85.66,168.75,86.29Z"/><path class="cls-4" d="M239.42,91.61c3.9,4.09,4.77,9.09,4.27,14.45a14.84,14.84,0,0,1-4.65,9.51c-.25.06-.35-.09-.4-.3a1.3,1.3,0,0,1,.26-.73c.36-.6.84-1.11,1.2-1.71a7.54,7.54,0,0,0,.86-1.46,10.93,10.93,0,0,0,.57-1.22,9.62,9.62,0,0,1,.54-1.49,5.45,5.45,0,0,0,.34-1.18c.18-.56.12-1.16.26-1.72a8,8,0,0,0,.15-2.24,7.23,7.23,0,0,0-.14-2,4.58,4.58,0,0,1-.11-.64,4.28,4.28,0,0,0-.44-1.79,3.15,3.15,0,0,1-.16-.8c0-.13,0-.26,0-.39a4.92,4.92,0,0,0-.7-1.77c-.22-.47-.46-.93-.69-1.39a17.33,17.33,0,0,0-1.4-2.11,1.1,1.1,0,0,1-.21-.78C239,91.64,239.16,91.48,239.42,91.61Z"/><path class="cls-4" d="M210.1,104.93v.6c-.36.46.24,1.07-.25,1.51-.35,3.6-.9,7.14-3.27,10.09l-.35-.59a8,8,0,0,1,.68-2.12,11.74,11.74,0,0,1,.57-1.08,7.35,7.35,0,0,0,.6-1.92c.13-.4.19-.82.29-1.23.19-.56.14-1.16.28-1.72a5.3,5.3,0,0,0,.15-1.58,6.89,6.89,0,0,1,.13-1.7c.43-1.11-.2-2.37.5-3.44l.07-.08c.66.07.49.54.48,1A5.51,5.51,0,0,0,210.1,104.93Z"/><path class="cls-5" d="M155.67,87.25l0-.69c2.69,2,5.14,4.35,7.67,6.57a.44.44,0,0,1,.06.57c-.89.14-1.3-.65-1.95-1a25.6,25.6,0,0,0-2.12-1.8,20.17,20.17,0,0,0-2.08-1.79C156.84,88.43,155.7,88.32,155.67,87.25Z"/><path class="cls-6" d="M163.36,93.74v-.6a6.5,6.5,0,0,1,2.13,1.72l-.37.35c-.72.18-1.11-.32-1.56-.72A.74.74,0,0,1,163.36,93.74Z"/><path class="cls-7" d="M239.42,91.61l-.36.36c-.63.09-1-.34-1.35-.73a.86.86,0,0,1-.16-.77l.36-.34A4.7,4.7,0,0,1,239.42,91.61Z"/><path class="cls-8" d="M238.76,115.23l.28.35a1.53,1.53,0,0,1-.83.92l-.35-.35A.8.8,0,0,1,238.76,115.23Z"/><path class="cls-9" d="M167.51,107.62l-.57-.31a9.39,9.39,0,0,1-3.21.15c-2.5,0-5,0-7.52,0a2.56,2.56,0,0,1-2-.46v-1.77a2.32,2.32,0,0,1,1.82-.41q11.29,0,22.59,0a2.32,2.32,0,0,1,1.82.41V107a2.82,2.82,0,0,1-2.1.46C174.76,107.54,171.13,107.32,167.51,107.62Z"/><path class="cls-10" d="M169,98.71c.39-.16.37.84.89.31a1.77,1.77,0,0,1,1.36-.45q3.91-.06,7.82,0a1.78,1.78,0,0,1,1.36.45v1.77a2.33,2.33,0,0,1-1.82.41q-11.29,0-22.59,0a2.33,2.33,0,0,1-1.82-.41V99a2,2,0,0,1,1.5-.46c4.15-.06,8.3.06,12.44-.07A1.69,1.69,0,0,1,169,98.71Z"/><path class="cls-11" d="M167.76,119.12c-.09.79-.7.5-1.14.55-.6-.38-1.24-.12-1.87-.11-3,0-6,0-9,0a2,2,0,0,1-1.51-.45v-1.77a2.75,2.75,0,0,1,2.09-.46c2.94,0,5.88,0,8.82,0C167.51,116.9,167.51,116.9,167.76,119.12Z"/><path class="cls-12" d="M180.48,102v.89a2.33,2.33,0,0,1-1.82.41q-11.29,0-22.59,0a2.33,2.33,0,0,1-1.82-.41V102a2.32,2.32,0,0,1,1.82-.41q11.29,0,22.59,0A2.32,2.32,0,0,1,180.48,102Z"/><path class="cls-13" d="M154.26,104.05v-.89a1.63,1.63,0,0,1,1-.14h24.21a1.63,1.63,0,0,1,1,.14v.89a2.33,2.33,0,0,1-1.82.41q-11.29,0-22.59,0A2.33,2.33,0,0,1,154.26,104.05Z"/><path class="cls-14" d="M154.26,115.88v-1.77a2.13,2.13,0,0,1,1.65-.46c3.24,0,6.47,0,9.71,0,1.14,0,1.92.32,1.85,1.64l0,.6a2.21,2.21,0,0,1-1.66.47q-5,0-9.91,0A2.14,2.14,0,0,1,154.26,115.88Z"/><path class="cls-15" d="M154.26,112.92v-1.77a2.79,2.79,0,0,1,2.1-.45c3.39,0,6.79,0,10.18,0a.68.68,0,0,1,.62.48l.08,1.78a2.07,2.07,0,0,1-1.64.47q-4.85,0-9.69,0A2.12,2.12,0,0,1,154.26,112.92Z"/><path class="cls-16" d="M169,98.71a8,8,0,0,1-2.6.32c-4.06,0-8.13,0-12.19,0V97.54a2.52,2.52,0,0,1,1.95-.47c3.09,0,6.18,0,9.28,0a5.34,5.34,0,0,1,2.14.45A4,4,0,0,1,169,98.71Z"/><path class="cls-17" d="M169.28,94.59c-.35-.53-.25-1.17-.41-1.74a1.78,1.78,0,0,1,1.48-.49c2.88,0,5.76,0,8.64,0a1.93,1.93,0,0,1,1.49.46v1.77A1.94,1.94,0,0,1,179,95q-4.1,0-8.2,0A2.15,2.15,0,0,1,169.28,94.59Z"/><path class="cls-18" d="M154.26,115.88h13.23a15.36,15.36,0,0,1,.27,3.24c-.05-1.69-1.08-1.84-2.5-1.8-3.66.1-7.33,0-11,0Z"/><path class="cls-19" d="M169.28,94.59h11.2v1.77a1.93,1.93,0,0,1-1.49.46q-3.94,0-7.88,0a2,2,0,0,1-1.5-.46A3.57,3.57,0,0,1,169.28,94.59Z"/><path class="cls-19" d="M163.75,94.25l1.38,1,.74.82a1.83,1.83,0,0,1-1.65.76c-2.92.09-5.84.07-8.76,0a1.59,1.59,0,0,1-1.2-.44V94.59a1.4,1.4,0,0,1,1.05-.42A82.1,82.1,0,0,1,163.75,94.25Z"/><path class="cls-20" d="M167.17,111.14l-.25-.29a3.13,3.13,0,0,0-2.32-.73q-4.2,0-8.39,0a2.58,2.58,0,0,1-2-.45v-1.48a2.11,2.11,0,0,1,1.64-.47q4.68,0,9.36,0a2.22,2.22,0,0,1,1.65.47A11.85,11.85,0,0,1,167.17,111.14Z"/><path class="cls-21" d="M167.51,107.62c.35-.77,1-.6,1.66-.61h11.31v1.48c-.61.57-1.37.43-2.1.46-3.13.09-6.28-.19-9.41.19A6.22,6.22,0,0,1,167.51,107.62Z"/><path class="cls-22" d="M168.71,91.63a3.4,3.4,0,0,1-.33-1.75c.14-.93.91-.72,1.47-.75a35.89,35.89,0,0,1,4.49.07A34.72,34.72,0,0,1,178.79,91c.06.75-.53,1-1,1a47.19,47.19,0,0,1-8.55,0A1,1,0,0,1,168.71,91.63Z"/><path class="cls-23" d="M154.26,119.13h10.82c.58,0,1.2-.11,1.55.54-3.76.6-7.53,1.18-11.28,1.8-.91.15-1.28-.08-1.14-1A12.4,12.4,0,0,0,154.26,119.13Z"/><path class="cls-24" d="M154.26,109.67c3.79,0,7.58,0,11.36,0,.89,0,1.46.16,1.3,1.2a3.06,3.06,0,0,1-1.7.3h-11Z"/><path class="cls-25" d="M163.75,94.25a4.65,4.65,0,0,1-2.58.33c-2.3,0-4.61,0-6.91,0V92.52a1.48,1.48,0,0,1,1.19-.44c2.06.1,4.16-.45,6.17.43l1.74,1.23Z"/><path class="cls-26" d="M169.61,96.36h10.87v1.48a1.94,1.94,0,0,1-1.49.46q-3.8,0-7.59,0a2.07,2.07,0,0,1-1.5-.46A2.54,2.54,0,0,1,169.61,96.36Z"/><path class="cls-27" d="M154.26,112.92h13a6,6,0,0,1,.22,2.36c-.25-.9-.75-1.23-1.76-1.21-3.82.08-7.63,0-11.45,0Z"/><path class="cls-28" d="M180.48,111.15v1.77a2.59,2.59,0,0,1-1.94.44,53.38,53.38,0,0,0-5.4.16,8.13,8.13,0,0,1-1.75-1.84c0-.65.47-.87,1-.9a52.74,52.74,0,0,1,7.5,0A1,1,0,0,1,180.48,111.15Z"/><path class="cls-29" d="M154.26,104.05h26.22v.59a2.13,2.13,0,0,1-1.55.29H155.81a2.13,2.13,0,0,1-1.55-.29Z"/><path class="cls-30" d="M180.48,102H154.26v-.59a2.13,2.13,0,0,1,1.55-.29h23.12a2.13,2.13,0,0,1,1.55.29Z"/><path class="cls-30" d="M180.48,101.39H154.26v-.59h26.22Z"/><path class="cls-29" d="M154.26,104.64h26.22v.59H154.26Z"/><path class="cls-31" d="M154.26,96.36c3,0,5.91,0,8.86,0a8.52,8.52,0,0,0,2.76-.35,8.48,8.48,0,0,1,1.75,1.48l-13.36,0Z"/><path class="cls-32" d="M180.48,111.15H173c-.57,0-1.21-.15-1.56.53l-1.25-1.34c0-.81.62-1,1.18-1a71.73,71.73,0,0,1,8.39,0,1.13,1.13,0,0,1,.77.39Z"/><path class="cls-33" d="M166.9,108.19H154.26V107h10.83a3.28,3.28,0,0,1,1.85.3Z"/><path class="cls-34" d="M168.71,91.63H177a1.94,1.94,0,0,0,1.84-.67c1,.24,2.07.38,1.69,1.86l-11.61,0C168.57,92.47,168.73,92,168.71,91.63Z"/><path class="cls-35" d="M180.48,109.67H172a1.94,1.94,0,0,0-1.83.67,3.89,3.89,0,0,1-1.16-1.21c.15-.9.86-.63,1.39-.64,3.37,0,6.74,0,10.11,0Z"/><path class="cls-36" d="M173.13,113.52c.31-.69.93-.59,1.51-.59h5.84v1.77a2.62,2.62,0,0,1-1.95.43,17.54,17.54,0,0,0-3.65.23A8.37,8.37,0,0,1,173.13,113.52Z"/><path class="cls-16" d="M169.89,97.84h10.58V99H169.93Z"/><path class="cls-37" d="M174.34,89.2c-.71.69-1.59.23-2.38.35-1.18.18-2.44-.35-3.58.33-.16-1.1-1-2.15-.28-3.32Z"/><path class="cls-38" d="M161.62,92.51h-7.36V91c1.73-.76,3.51-.52,5.29-.3A8.36,8.36,0,0,1,161.62,92.51Z"/><path class="cls-39" d="M174.88,115.36c.1-.79.71-.65,1.23-.66h4.37v1.77a5.34,5.34,0,0,1-4.51,0Z"/><path class="cls-40" d="M159.55,90.74c-1.74.55-3.53.2-5.29.3V89.26A3.8,3.8,0,0,1,157.5,89,7.55,7.55,0,0,1,159.55,90.74Z"/><path class="cls-13" d="M180.48,103.16H154.26v-.3h26.22Z"/><path class="cls-41" d="M176,116.51l4.51,0v1.48c-.91.66-1.92.4-2.91.3A6.46,6.46,0,0,1,176,116.51Z"/><path class="cls-42" d="M177.57,118.25c.92-.62,1.95-.16,2.91-.3v3.44Z"/><path class="cls-43" d="M157.5,89a11.49,11.49,0,0,1-3.24.31V86.4c.68-.06.92.64,1.42.86C156.06,88.05,157.06,88.2,157.5,89Z"/><path class="cls-17" d="M108.35,95.21l-.59-2.09c0-.72.5-.89,1.05-1a8,8,0,0,1,1.62-.09h19.18a4.12,4.12,0,0,1,2.42.47,3.4,3.4,0,0,1,.82,2.08,3,3,0,0,1-2.25.47q-9.14,0-18.29,0A37.11,37.11,0,0,0,108.35,95.21Z"/><path class="cls-44" d="M109.29,107l0-1.77a2.66,2.66,0,0,1,2-.48q11.19,0,22.39,0a2.67,2.67,0,0,1,2,.48,5,5,0,0,1,.56,2.65c-3.66-.79-7.34-.49-11-.2-1.71-.74-3.45-.38-5.18-.13-2.84-.17-5.69,0-8.53-.09A2.88,2.88,0,0,1,109.29,107Z"/><path class="cls-15" d="M135.29,111.76a3.52,3.52,0,0,1-1.15,1.85,22.55,22.55,0,0,0-4-.22H111.91a4.05,4.05,0,0,1-2.3-.34,2.79,2.79,0,0,1-.12-1.92,2.17,2.17,0,0,1,1.65-.43c3.17,0,6.34,0,9.51,0,.64.13,1.25-.23,1.89-.14,3.23.35,6.46.08,9.69.16a12,12,0,0,1,2.2.09C134.93,110.87,135.61,110.92,135.29,111.76Z"/><path class="cls-45" d="M132,92.51H109.59c-.66,0-1.42-.23-1.82.6-.65-.74-.49-1.19.43-1.54a13.88,13.88,0,0,1,3.08-1.15,25.51,25.51,0,0,1,4.4-.15c4.08,0,8.15,0,12.23,0a5.14,5.14,0,0,1,1.9.14A4,4,0,0,1,132,92.51Z"/><path class="cls-19" d="M108.35,95.21c.21-1,1-.61,1.56-.61q11.47,0,22.95,0l.08,1.48a3.36,3.36,0,0,1-2.23.45c-2.42.1-4.86-.21-7.27.2a1.65,1.65,0,0,1-1.13,0,3.45,3.45,0,0,0-3.5.59,3.71,3.71,0,0,0-2.72-.81c-2.49.11-5-.21-7.46.24A2.69,2.69,0,0,1,108.35,95.21Z"/><path class="cls-27" d="M109.6,112.92q11.51,0,23,0c.58,0,1.36-.3,1.53.68a3,3,0,0,1-1.24,1.32c-7-.13-14,0-21-.06a3.81,3.81,0,0,1-2.29-.35A1.45,1.45,0,0,1,109.6,112.92Z"/><path class="cls-14" d="M109.61,114.4c7.27,0,14.54,0,21.81,0,.51,0,1.24-.36,1.48.51a5.76,5.76,0,0,1-2.06,1.52c-6.3-.23-12.59,0-18.89-.11a3.45,3.45,0,0,1-2.41-.47l0-1.1A.22.22,0,0,1,109.61,114.4Z"/><path class="cls-18" d="M109.54,115.88h19.61c.62,0,1.32-.18,1.69.57a8.66,8.66,0,0,1-2.66,1.43,8.33,8.33,0,0,0-2.76,0c-4.7,0-9.4-.1-14.1,0C110.49,117.43,109.19,117.39,109.54,115.88Z"/><path class="cls-29" d="M135.56,105.23H109.26l0-1.18a2.57,2.57,0,0,1,1.81-.47c7.55,0,15.11.06,22.66-.06a1.77,1.77,0,0,1,1,.23C134.93,104.28,135.68,104.5,135.56,105.23Z"/><path class="cls-46" d="M111.33,117.88c.17-.71.75-.51,1.2-.51q7.23,0,14.46,0c.45,0,1-.2,1.2.52a20.12,20.12,0,0,1-16.08.41A8.32,8.32,0,0,1,111.33,117.88Z"/><path class="cls-13" d="M134.7,103.75a8.18,8.18,0,0,1-2.46.3q-11.5,0-23,0l0-.5a.65.65,0,0,1,.07-.8,3.35,3.35,0,0,1,2-.3h19.06a13.07,13.07,0,0,0,2.06-.08l.52-.2C133.46,102.78,134.37,102.95,134.7,103.75Z"/><path class="cls-47" d="M129.8,90.4a8.54,8.54,0,0,1-2.76.35c-3.79,0-7.58,0-11.37,0a16.47,16.47,0,0,1-4.39-.31,28.4,28.4,0,0,1,16.42-1A4.37,4.37,0,0,1,129.8,90.4Z"/><path class="cls-12" d="M132.95,102.18l0,.39a1,1,0,0,1-.56.14c-7.67,0-15.34,0-23,0-.36-.32-.25-.68-.11-1.06a2.38,2.38,0,0,1,1.66-.4c2.82,0,5.64,0,8.46,0,.73.06,1.42-.29,2.16-.22a54.36,54.36,0,0,0,7.8.17c.53,0,1.08-.16,1.58.17A4.49,4.49,0,0,1,132.95,102.18Z"/><path class="cls-48" d="M135.29,111.76c-.13-.82-.78-.61-1.28-.61-3.1,0-6.2,0-9.31,0a7.86,7.86,0,0,1-2.47-.32,3,3,0,0,1,2.47-1.66c3.07.09,6.14,0,9.21,0a5,5,0,0,1,1.59.15.88.88,0,0,1,.41.33A3.34,3.34,0,0,1,135.29,111.76Z"/><path class="cls-21" d="M124.93,107.59c.08-.63.55-.59,1-.59,3,0,5.91,0,8.87,0a1.28,1.28,0,0,1,1.31.9,3,3,0,0,1-.18,1.83l-.09-.07a2.36,2.36,0,0,0-2.14-.7c-2.25,0-4.5,0-6.76,0a3.47,3.47,0,0,1-2-.33A.72.72,0,0,1,124.93,107.59Z"/><path class="cls-20" d="M109.31,108.79v-.6a1.6,1.6,0,0,1,1.2-.44c2.93,0,5.85-.07,8.78,0a2.1,2.1,0,0,1,.85.21,1.17,1.17,0,0,1,.38,1.78,1.21,1.21,0,0,1-.67.28,72.07,72.07,0,0,1-10-.09C109.28,109.75,109.5,109.17,109.31,108.79Z"/><path class="cls-49" d="M109.27,101.69l0,.89q.12.1.09.2t-.08.1l-.08.68a23.68,23.68,0,0,1-.31-4.49l.2-.21a8.68,8.68,0,0,1,3.49-.28c1.62,0,3.24,0,4.86,0,.79,0,1.6,0,2,.91a1.11,1.11,0,0,1-.11,1.07,3.06,3.06,0,0,1-2,.38c-1.95,0-3.89,0-5.84,0A2.83,2.83,0,0,0,109.27,101.69Z"/><path class="cls-31" d="M108.63,96.73c.07-.57.46-.67,1-.67,2.65,0,5.31.05,8,0,1,0,1.08.65,1.42,1.21a.28.28,0,0,1-.06.44c-1.13.52-2.32.25-3.49.28-1.37,0-2.75,0-4.12,0a2.47,2.47,0,0,0-2.3,1l-.08.06A6.17,6.17,0,0,1,108.63,96.73Z"/><path class="cls-50" d="M132.38,98.74a6.29,6.29,0,0,1-1.53,2.36,44.92,44.92,0,0,0-5.66-.17c-.72,0-1.48.07-2-.57-.29-.76.14-1.23.64-1.69,1.78-.78,3.66-.33,5.49-.39C130.32,98.25,131.44,98,132.38,98.74Z"/><path class="cls-33" d="M120.2,108.19H109.3V107c3.14,0,6.28,0,9.42,0,.51,0,1.1-.2,1.5.33A.59.59,0,0,1,120.2,108.19Z"/><path class="cls-51" d="M132.38,98.74l-7.17,0a2.19,2.19,0,0,0-1.4.3c-.43-.42-.19-.86,0-1.3a1.78,1.78,0,0,1,1.71-.91c1.9-.05,3.8-.08,5.69,0,.7,0,1.54,0,1.5,1.13C132.65,98.25,132.66,98.55,132.38,98.74Z"/><path class="cls-52" d="M132.67,98a1,1,0,0,0-1-.71h-6.59a1,1,0,0,0-1.07,1,1.34,1.34,0,0,1-.86-1.52c.12-.82.77-.61,1.27-.61,2.84,0,5.69,0,8.53,0A2.89,2.89,0,0,1,132.67,98Z"/><path class="cls-53" d="M123.06,100.17c2.09.69,4.25.16,6.37.34.52,0,1.24-.3,1.42.6a1.08,1.08,0,0,0,0,.27,28.84,28.84,0,0,1-9.63,0A1.84,1.84,0,0,1,123.06,100.17Z"/><path class="cls-33" d="M109.31,108.79c.3.23.23.57.25.88a1.1,1.1,0,0,1,0,1.48q0,.89,0,1.77t0,1.48l-.1.38A36.32,36.32,0,0,1,109.31,108.79Z"/><path class="cls-25" d="M139.72,95.17a1.88,1.88,0,0,1-.63-1.66c-.33-.9.12-1.35.94-1.39q4.71-.22,9.42,0c.82,0,1.28.48.94,1.39a2.3,2.3,0,0,1-.63,1.65A79.08,79.08,0,0,0,139.72,95.17Z"/><path class="cls-38" d="M150.39,93.5c0-.76-.35-1-1.09-1q-4.57,0-9.13,0c-.75,0-1.11.24-1.08,1a4.06,4.06,0,0,1-.09-2.8,29.69,29.69,0,0,1,11.41,0A3.53,3.53,0,0,1,150.39,93.5Z"/><path class="cls-10" d="M138.88,100.8V98.73a1,1,0,0,1,.81-.27c3.13.28,6.27,0,9.41.12a2,2,0,0,1,1.51.45v1.77a2,2,0,0,1-1.51.46q-4.36,0-8.71,0A2,2,0,0,1,138.88,100.8Z"/><path class="cls-54" d="M139.94,88.64a5.64,5.64,0,0,1,9.58,0,1.58,1.58,0,0,1-1.37.71c-2.29.12-4.59.1-6.88,0A1.33,1.33,0,0,1,139.94,88.64Z"/><path class="cls-9" d="M150.61,105.23V107a2,2,0,0,1-1.51.46q-4.36,0-8.71,0a2,2,0,0,1-1.51-.46v-1.77a2,2,0,0,1,1.51-.46q4.36,0,8.71,0A2,2,0,0,1,150.61,105.23Z"/><path class="cls-15" d="M138.88,112.92v-1.77a2,2,0,0,1,1.51-.46q4.36,0,8.71,0a2,2,0,0,1,1.51.46v1.77a2,2,0,0,1-1.51.46q-4.36,0-8.71,0A2,2,0,0,1,138.88,112.92Z"/><path class="cls-55" d="M150.61,118.84c.22.75-.13,1.09-.84,1.18-3.26.39-6.53.76-9.78,1.18-.87.11-1.31-.05-1.16-1a11.63,11.63,0,0,0,.06-1.32,2,2,0,0,1,1.51-.46q4.36,0,8.71,0A2,2,0,0,1,150.61,118.84Z"/><path class="cls-56" d="M139.94,88.64a4.69,4.69,0,0,0,2.73.31c2.28-.08,4.59.31,6.85-.3a3,3,0,0,1,.89,2.07L139,90.7A3.67,3.67,0,0,1,139.94,88.64Z"/><path class="cls-57" d="M139.72,95.17c.06-.52.42-.59.84-.58h8.35c.42,0,.79,0,.86.57A4,4,0,0,1,148,97a17.76,17.76,0,0,0-6.59,0A3.66,3.66,0,0,1,139.72,95.17Z"/><path class="cls-58" d="M138.88,115.88V114.4a2,2,0,0,1,1.51-.46q4.36,0,8.71,0a2,2,0,0,1,1.51.46v1.48a2,2,0,0,1-1.51.46q-4.36,0-8.71,0A2,2,0,0,1,138.88,115.88Z"/><path class="cls-59" d="M138.88,100.8h11.73v1.48a1.91,1.91,0,0,1-1.51.44c-2.9,0-5.81,0-8.71,0a1.91,1.91,0,0,1-1.51-.44Z"/><path class="cls-20" d="M150.61,108.19v1.48a2,2,0,0,1-1.51.46q-4.36,0-8.71,0a2,2,0,0,1-1.51-.46v-1.48a2,2,0,0,1,1.51-.46q4.36,0,8.71,0A2,2,0,0,1,150.61,108.19Z"/><path class="cls-60" d="M150.61,118.84H138.88v-1.48a2,2,0,0,1,1.51-.46q4.36,0,8.71,0a2,2,0,0,1,1.51.46Z"/><path class="cls-18" d="M150.61,117.36H138.88v-1.48h11.73Z"/><path class="cls-24" d="M138.88,109.67h11.73v1.48H138.88Z"/><path class="cls-27" d="M150.61,114.4H138.88v-1.48h11.73Z"/><path class="cls-61" d="M150.61,99c-3.91-.09-7.83.24-11.73-.3.36-1,1.22-.43,1.84-.57a7.81,7.81,0,0,1,1.58-.05c.3-.15.33-.34.07-.56h0a.58.58,0,0,1,.33-.72c.94-.53,4.09-.11,4.89.64a.43.43,0,0,0,.39.1,6,6,0,0,0,1-.11C150.45,97.06,150.95,97.6,150.61,99Z"/><path class="cls-33" d="M150.61,108.19H138.88V107h11.73Z"/><path class="cls-29" d="M150.61,105.23H138.88v-1.18a1.91,1.91,0,0,1,1.51-.44h8.71a1.9,1.9,0,0,1,1.51.44Z"/><path class="cls-13" d="M138.88,102.28h11.73v.89a2,2,0,0,1-1.51.43c-2.9,0-5.8,0-8.7,0a2,2,0,0,1-1.51-.43Z"/><path class="cls-62" d="M138.88,103.16h11.73v.89H138.88Z"/><path class="cls-63" d="M148,97.58c-.17.22-.44.35-.63.16-1.44-1.52-3.13-.67-4.74-.53-.1,0-.17.22-.26.34a1.19,1.19,0,0,1-.92-.51,1,1,0,0,1,.81-.57c1.94.09,4-.79,5.78.57C148.05,97.22,147.45,97.35,148,97.58Z"/><path class="cls-63" d="M142.37,97.55c.28,0,.69,0,.64.38s-.46.15-.71.18Z"/><path class="cls-15" d="M208.38,111.55a3.82,3.82,0,0,1-.63,2l-.27-.07a12.41,12.41,0,0,0-2.79-.12H187.76a13.87,13.87,0,0,1-2.2-.13,4.5,4.5,0,0,1-.93-2.05c.59-.59,1.36-.45,2.07-.46a82.48,82.48,0,0,0,8.32-.21c1.18.13,2.33.73,3.56.27,2.8-.16,5.6-.09,8.39,0C207.53,110.73,208.36,110.55,208.38,111.55Z"/><path class="cls-17" d="M205.73,92.83a4.78,4.78,0,0,1-.34,2.06,2.6,2.6,0,0,1-1.81.46c-5.15,0-10.3,0-15.45,0-.71,0-1.52.1-1.92-.74a8.63,8.63,0,0,1,1.72-2.08,4.31,4.31,0,0,1,1.45-.19c4.76,0,9.51,0,14.27,0C204.37,92.35,205.14,92.23,205.73,92.83Z"/><path class="cls-10" d="M183.54,100.51l.3-1.2c.41-.72,1.12-.74,1.81-.75q8.72,0,17.44,0a2.2,2.2,0,0,1,1.66.47l-.52,3a.57.57,0,0,1-.41.17,2,2,0,0,1-1.12-.67c-1.86-1.82-3.92-1.77-6.13-.75-.69.31-1.28,1-2.18.67-2.93-.33-5.86-.06-8.79-.16C184.86,101.21,184,101.39,183.54,100.51Z"/><path class="cls-38" d="M205.73,92.83l-15.94,0a3.3,3.3,0,0,1-1.86-.29A8.44,8.44,0,0,1,190,90.75c4.93-.38,9.88-.12,14.82-.15a1.47,1.47,0,0,1,1.2.45A3.82,3.82,0,0,1,205.73,92.83Z"/><path class="cls-14" d="M207.18,114.41a3.19,3.19,0,0,1-.94,2.13.13.13,0,0,1,0-.16c-6.13,0-12.27-.28-18.4.17a5,5,0,0,1-1.44-1.86c.16-.83.84-.72,1.39-.72,6,0,12,0,18,0A1.66,1.66,0,0,1,207.18,114.41Z"/><path class="cls-26" d="M205,96.36a3.38,3.38,0,0,1-.24,2.14,84.26,84.26,0,0,0-9.44-.19c-2.8,0-5.61,0-8.41,0a4.68,4.68,0,0,1-2.58-.46,1.87,1.87,0,0,1,.56-1.19,2.1,2.1,0,0,1,2-.76q8.24,0,16.48,0A2.2,2.2,0,0,1,205,96.36Z"/><path class="cls-64" d="M205,96.36H186.81a3.49,3.49,0,0,0-1.86.29,5.31,5.31,0,0,1,1.26-2.05,2.8,2.8,0,0,0,1.71.28h17.48C205.59,95.45,205,95.84,205,96.36Z"/><path class="cls-18" d="M187.88,116.56c.27-.7.86-.68,1.47-.68h15.71c.46,0,1-.17,1.22.5-.41.49-.5,1.24-1.21,1.49-5.23,0-10.46-.25-15.69.13A4.16,4.16,0,0,1,187.88,116.56Z"/><path class="cls-16" d="M184.38,97.84h19.47c.49,0,.89.09,1,.67l-.06.52H185.7a3.09,3.09,0,0,0-1.86.28A2.92,2.92,0,0,1,184.38,97.84Z"/><path class="cls-65" d="M206,91.05H191.86a3.29,3.29,0,0,1-1.86-.29,6.27,6.27,0,0,1,2.33-1.5,116.68,116.68,0,0,1,12.8,0C206.16,89.49,206.57,90,206,91.05Z"/><path class="cls-60" d="M189.38,118c.08-.71.61-.64,1.11-.64H204c.42,0,.92-.11,1.05.51a4.32,4.32,0,0,1-1.78,1.5c-3.94-.13-7.88-.18-11.81,0A5,5,0,0,1,189.38,118Z"/><path class="cls-66" d="M205.14,89.23a2.77,2.77,0,0,1-1.26.33q-5.14,0-10.28,0a2.65,2.65,0,0,1-1.26-.31C196.6,87.09,200.87,86.55,205.14,89.23Z"/><path class="cls-27" d="M207.18,114.41H187.83c-.47,0-1-.16-1.38.29a2.62,2.62,0,0,1-.72-1.14c.38-.44.9-.33,1.38-.33h19.17a2.11,2.11,0,0,1,1.42.26l.06.05C207.61,113.86,207.63,114.29,207.18,114.41Z"/><path class="cls-67" d="M191.48,119.4a2,2,0,0,1,1.61-.57q4.29,0,8.57,0a2.16,2.16,0,0,1,1.63.54C199.36,121.61,195.42,121.37,191.48,119.4Z"/><path class="cls-44" d="M183.73,108a3.18,3.18,0,0,1-.27-1.81,1,1,0,0,1,.07-1.08,1.9,1.9,0,0,1,1.26-.33c2.68.1,5.38-.33,8,.25a2,2,0,0,1,.44,2.31c-2.33.28-4.68,0-7,.1A4.52,4.52,0,0,0,183.73,108Z"/><path class="cls-68" d="M183.54,100.51a2.83,2.83,0,0,0,1.71.29c2.7,0,5.41,0,8.11,0,.48,0,1.13-.28,1.36.49-.3.85-.59,1.7-1.75,1.65a28.55,28.55,0,0,0-9.73.2A6.72,6.72,0,0,1,183.54,100.51Z"/><path class="cls-48" d="M195.34,110.84c-3.56.64-7.14.15-10.71.32a.93.93,0,0,1-.29-.82c-.22-1.21.75-1.08,1.39-1.09,2.67-.05,5.35-.13,8,0C194.58,109.5,195.31,109.81,195.34,110.84Z"/><path class="cls-13" d="M183.24,103.15c.27-.52.54-.92,1.29-.9,2.48.07,5,0,7.45,0,.57,0,1.07.09,1.31.69s.06.85-.42,1.08a56.18,56.18,0,0,1-7.13.15,2.33,2.33,0,0,0-2.24,1.05l0,1A7.43,7.43,0,0,1,183.24,103.15Z"/><path class="cls-35" d="M194.16,109.66c-2.81,0-5.61,0-8.42,0-.54,0-1.25-.24-1.4.66a1,1,0,0,1-.28-.92c-.39-.91.17-1.38.9-1.46a25.6,25.6,0,0,1,8.47.14C193.92,108.5,194.49,108.87,194.16,109.66Z"/><path class="cls-27" d="M207.7,113.48l-22,.07-.16-.35c.34-.41.81-.28,1.24-.28q9.8,0,19.61,0C206.87,112.94,207.56,112.62,207.7,113.48Z"/><path class="cls-33" d="M193.53,108.49c-1.51-.61-3.08-.2-4.62-.28a22.42,22.42,0,0,0-3.21,0c-.72.06-1.66,0-1.63,1.19a2.14,2.14,0,0,1-.34-1.4c.06-.5.08-1,.8-1,2.71,0,5.42,0,8.12.05.18,0,.36.16.53.24C193.65,107.59,193.87,108,193.53,108.49Z"/><path class="cls-69" d="M203.77,102l.46,0c.91.69,1.84.05,2.76,0s1.63-.15,2.44-.23a15.36,15.36,0,0,1-.17,3.51l-.19-.15c-.22-1.34-1.07-1.6-2.31-1.59s-2.66.45-3.76-.62C202.82,102.24,203.46,102.27,203.77,102Z"/><path class="cls-10" d="M242.37,99c.61.47.54,1.14.54,1.79a2.68,2.68,0,0,1-2,.41c-3.69.07-7.39-.12-11.08.11a29.47,29.47,0,0,0-4.6.13c-3.21-.41-6.44-.07-9.66-.2-1.15,0-2.36.32-3.42-.45a3.53,3.53,0,0,1,.33-1.77,2.31,2.31,0,0,1,1.81-.44h26.23A2.58,2.58,0,0,1,242.37,99Z"/><path class="cls-64" d="M240.81,94.59l.76,1.43c-.37.76-1.09.8-1.77.8q-12.15.06-24.3,0a2,2,0,0,1-1.82-.75,3.27,3.27,0,0,1,.86-1.48,3.65,3.65,0,0,1,2.13-.48h22A3.29,3.29,0,0,1,240.81,94.59Z"/><path class="cls-15" d="M241.21,111.56a3.12,3.12,0,0,1-.83,1.4,3.2,3.2,0,0,1-1.84.44c-7.58,0-15.15,0-22.73,0a7.11,7.11,0,0,1-1-.12,5.08,5.08,0,0,1-1.2-2.13,2.41,2.41,0,0,1,1.93-.49c7.9,0,15.8,0,23.7,0C239.93,110.7,241,110.3,241.21,111.56Z"/><path class="cls-17" d="M240.81,94.59H214.53a6.31,6.31,0,0,1,1.65-2.12,7.39,7.39,0,0,1,2.63-.11c6.42,0,12.84,0,19.26,0a2,2,0,0,1,1.28.22A6.12,6.12,0,0,1,240.81,94.59Z"/><path class="cls-38" d="M239.35,92.53a7.92,7.92,0,0,1-2.17.3q-9.5,0-19,0a3.64,3.64,0,0,1-2-.36,4.37,4.37,0,0,1,1.5-1.46,5.63,5.63,0,0,1,2.44-.45h15.46a3.64,3.64,0,0,1,2.26.48l1.22.93Z"/><path class="cls-32" d="M241.21,111.56c-.32-.54-.85-.41-1.32-.41h-26.3a2.94,2.94,0,0,1-.6-1.48c.59-.6,1.36-.47,2.08-.48,3.29-.06,6.57.09,9.86-.1a9.88,9.88,0,0,0,4.65.18c3.44.41,6.89.1,10.33.23.69,0,1.64-.3,1.88.83A2.12,2.12,0,0,1,241.21,111.56Z"/><path class="cls-27" d="M214.79,113.29c.3-.46.77-.37,1.2-.37l24.39,0c-.26.71-.91,1.1-1.31,1.69a5.34,5.34,0,0,1-1.74.23h-19.6a3.73,3.73,0,0,1-2.13-.44A2.2,2.2,0,0,1,214.79,113.29Z"/><path class="cls-70" d="M235.25,118c-4.57,2.91-9.35,3-14.26,1a15.78,15.78,0,0,1-1.74-1c0-.91.71-1,1.32-1q6.68-.15,13.36,0C234.56,117,235.27,117.06,235.25,118Z"/><path class="cls-31" d="M213.67,96.07a7.72,7.72,0,0,0,2.17.31q11.86,0,23.73,0a3.65,3.65,0,0,0,2-.35,5,5,0,0,1,.71,1.81A2.92,2.92,0,0,1,241,98q-13,0-26,0c-.67,0-1.4.15-2-.42A2.75,2.75,0,0,1,213.67,96.07Z"/><path class="cls-14" d="M215.59,114.44l22.51,0c.34,0,.69,0,1,.25l-.3.57-.91.92-.55.25c-6.61,0-13.22-.22-19.82.1A5.66,5.66,0,0,1,215.59,114.44Z"/><path class="cls-18" d="M217.49,116.5c.09-.72.64-.62,1.12-.62h17.65c.43,0,.92-.1,1,.52-.75.44-1.18,1.3-2.05,1.58-.3-.7-.92-.62-1.51-.62h-13c-.59,0-1.21-.09-1.52.61A6.15,6.15,0,0,1,217.49,116.5Z"/><path class="cls-65" d="M237.85,91l-20.16,0a6.87,6.87,0,0,1,2.47-1.74c4.7-.37,9.4-.11,14.1-.14a4.24,4.24,0,0,1,1.84.44l1.45.9Z"/><path class="cls-66" d="M236.1,89.57H222a3.28,3.28,0,0,1-1.85-.3C224.72,86.37,231.91,86.51,236.1,89.57Z"/><path class="cls-16" d="M242.37,99H212.52a1.26,1.26,0,0,1,.28-.89,2.4,2.4,0,0,1,1.7-.29h26a3.07,3.07,0,0,1,1.86.29Z"/><path class="cls-68" d="M212.18,100.8c4,0,7.91,0,11.86,0,.51,0,1.24-.33,1.43.56-.15,1-.65,1.62-1.75,1.56-3.94-.27-7.88-.58-11.79.21A5.06,5.06,0,0,1,212.18,100.8Z"/><path class="cls-13" d="M211.93,103.15a1.27,1.27,0,0,1,1.31-.9c3.2.05,6.39,0,9.59,0,.55,0,1.12-.05,1.23.71.25.53,0,.86-.46,1.06-3.08.33-6.16.06-9.25.15-.79,0-1.63,0-1.8,1.05a1,1,0,0,1-.42.65A6.15,6.15,0,0,1,211.93,103.15Z"/><path class="cls-20" d="M225.31,109.33a3.66,3.66,0,0,1-1.86.35l-10.47,0a1,1,0,0,1-.25-.83c-.22-1.23.75-1.06,1.39-1.08,2.49-.06,5,0,7.46,0a10.88,10.88,0,0,0,2-.08A1.58,1.58,0,0,1,225.31,109.33Z"/><path class="cls-71" d="M242.33,98.14H212.8a.59.59,0,0,1,.23-.6h27.38a3,3,0,0,1,1.86.28Z"/><path class="cls-72" d="M212.13,105.91l.06-.67a1.7,1.7,0,0,1,1.22-.44c3.1,0,6.2-.06,9.29,0a2,2,0,0,1,.85.22,1.68,1.68,0,0,1,.47,2c-3.11.18-6.22,0-9.33.08a2.84,2.84,0,0,0-1.83.3,1.09,1.09,0,0,1-.44.25A3,3,0,0,1,212.13,105.91Z"/><path class="cls-33" d="M212.43,107.68l.06-.37a.86.86,0,0,1,.52-.25c3.6,0,7.2-.21,10.8.11.36.11.38.38.32.68a3.58,3.58,0,0,1-1.84.35q-4.09,0-8.18,0c-.54,0-1.24-.23-1.38.66A1.52,1.52,0,0,1,212.43,107.68Z"/><path class="cls-44" d="M243,105.92a2.83,2.83,0,0,1-.3,1.74c-3.3-.41-6.62-.12-9.93-.19a4.58,4.58,0,0,1-1.59-.09,1.9,1.9,0,0,1,.35-2.32,3.42,3.42,0,0,1,1.72-.29q4,0,8,0a2.83,2.83,0,0,1,1.71.35A.66.66,0,0,1,243,105.92Z"/><path class="cls-13" d="M243,105.92l-.05-.69c-.4-.49-.77-1-1.52-1-3.33.06-6.66-.27-10,.21-1-.45-.93-1.24-.7-2.09a1.93,1.93,0,0,1,1.63-.5c3,0,6,0,9,0,1.16,0,1.93.28,1.85,1.62A5.18,5.18,0,0,1,243,105.92Z"/><path class="cls-73" d="M241.79,110.35c-.38-.56-1-.37-1.49-.37-2.46,0-4.92,0-7.38,0a15,15,0,0,1-3.65-.33,2.46,2.46,0,0,1,1.93-1.73c3.12.23,6.25,0,9.37.13.66,0,1.51-.23,1.78.77C241.85,109.21,242.32,110,241.79,110.35Z"/><path class="cls-33" d="M242.35,108.81c-.41-.51-1-.32-1.5-.32-2.54,0-5.07,0-7.61,0a7.84,7.84,0,0,1-2.45-.31c-.28-.46-.09-.73.37-.88a2.07,2.07,0,0,1,1.26-.3h9c.52,0,1.14-.15,1.25.65A1.47,1.47,0,0,1,242.35,108.81Z"/><path class="cls-30" d="M243.16,103.45c-.22-.94-.77-1.23-1.77-1.2-3,.08-6.09,0-9.14,0-.51,0-1.1-.19-1.49.37-.76-.28-1.35-.62-.58-1.49,3.94-.16,7.88,0,11.82-.06a1.55,1.55,0,0,1,1,.27A4.13,4.13,0,0,1,243.16,103.45Z"/><path class="cls-30" d="M243,101.37l-13.12,0a.28.28,0,0,1-.27-.22c.42-.62,1.06-.38,1.61-.39,3.91,0,7.81,0,11.72,0Z"/><path class="cls-44" d="M209.27,105.27l-.09,1.74a2.81,2.81,0,0,1-2.1.46c-3.2,0-6.4,0-9.59,0a15.87,15.87,0,0,0-2.5.22c-1-.76-.77-1.66-.26-2.58a2.89,2.89,0,0,1,1.71-.35q5.47,0,10.93,0a2.45,2.45,0,0,1,1.82.44Z"/><path class="cls-20" d="M209,108.57a3.41,3.41,0,0,1-.3,1.79,47.93,47.93,0,0,0-7-.23,12.49,12.49,0,0,1-2.78-.15c-.34-.08-.6-.34-1-.38a10.38,10.38,0,0,0-1.89,0c-1.22,0-1.43-.41-.83-1.62a3,3,0,0,1,1.44-.26c3.54,0,7.08,0,10.62,0C207.88,107.74,208.74,107.53,209,108.57Z"/><path class="cls-74" d="M209,108.57c-.43-.59-1.07-.36-1.63-.37-4.1,0-8.2,0-12.31,0a.37.37,0,0,1,0-.51c.15-.88.84-.66,1.39-.66,4.27,0,8.53,0,12.8,0A2.6,2.6,0,0,1,209,108.57Z"/><path class="cls-48" d="M198.61,109.67c2.89,0,5.78,0,8.68,0,.55,0,1.24-.2,1.38.68a1.81,1.81,0,0,1-.28,1.2c-.37-.58-1-.4-1.47-.4-2.9,0-5.79,0-8.69,0a.64.64,0,0,1-.09-.39C198.22,110.36,198.22,109.93,198.61,109.67Z"/><path class="cls-75" d="M125.06,108.49l0-.89c-1.5-1.46-3.11-.81-4.71-.24,0,.28,0,.56,0,.84a2.58,2.58,0,0,1,.26,1.48c-.44.63,0,1,.36,1.47l1.42-.3,2.18-1.45C124.84,109.18,125.23,109,125.06,108.49Zm-3.31,1.68c-.94,0-.31-1-.58-1.36-.16-.72.16-.93.69-.85s1.35,0,1.32.77A1.55,1.55,0,0,1,121.75,110.17Z"/><path class="cls-48" d="M120.45,109.67l.36,1.47H109.57q0-.74,0-1.48Z"/><path class="cls-76" d="M123.06,100.17l-1.8,1.16-1.65.35a1,1,0,0,1-.3-1.18l-.06-.9c-.05-.69-.83-1.29-.28-2.06l0-.3c-.07-.88.54-1.06,1.2-1.15a4.49,4.49,0,0,1,3,.58L124,98.2l-.19.82Z"/><path class="cls-77" d="M109.3,102.87v-.3h23.62c-.49.51-1.11.28-1.67.29Q120.27,102.88,109.3,102.87Z"/><path class="cls-53" d="M119.31,100.5l.3,1.18H109.27c0-1.19.83-1.17,1.62-1.18C113.7,100.49,116.5,100.5,119.31,100.5Z"/><path class="cls-35" d="M124.41,109.39l.54-.9c3.25,0,6.49,0,9.74,0,.88,0,1.32.23,1.15,1.17l-10.16,0A2.2,2.2,0,0,1,124.41,109.39Z"/><path class="cls-78" d="M119,97.54l.28,2.06c-.37-.59-.94-.59-1.55-.59-2.9,0-5.81,0-8.71,0-.18-1.12.34-1.48,1.42-1.47C113.26,97.57,116.12,97.54,119,97.54Z"/><path class="cls-79" d="M203.77,102c-1.87-2.14-4.08-3.1-6.86-1.87-.75.33-1.46.76-2.19,1.15L193.29,103a1.12,1.12,0,0,1-.3.8,1.05,1.05,0,0,0-.08,1.47l.28,2.07.35,1.18.63,1.17,1.19,1.18c.94.25,1.83,1,2.88.29l.11-.29a2.92,2.92,0,0,0-.07-1.76,10.13,10.13,0,0,0-2.13.18c-1.14.34-1.23-.2-1.11-1.07l0-.51a5.89,5.89,0,0,1-.25-2.44,1.82,1.82,0,0,1,1.87-1.49c1.56-.12,3.11-.45,4.69-.49a1.94,1.94,0,0,0,1.72-.65C203.29,102.44,203.84,102.64,203.77,102Zm-9.71,1c2.34-2.52,4.66-2.82,7.06-.84Z"/><path class="cls-29" d="M193,103.77l-.08,1.47h-9.4c-.19-1.13.22-1.55,1.42-1.51C187.61,103.82,190.3,103.76,193,103.77Z"/><path class="cls-80" d="M194.73,105.23c-.46-1.18-.25-1.74,1.2-1.83,2.37-.14,4.72-.52,7.08-.8,1.26,1,2.75.47,4.13.53,2.1.1,2.1,0,2,2.07Z"/><path class="cls-79" d="M231.38,104.38l-.62-1.72-.92-1.24-.27-.22a4.18,4.18,0,0,0-4.1.18L224.06,103l-.3.79a1,1,0,0,0-.1,1.46q.14.88.27,1.77s0,0-.06.12,0,.14.12.19l.14.54,1.18,1.48c1.25.9,2.6.69,4,.32l1.52-1.46.37-.88.28-2.07A.62.62,0,0,0,231.38,104.38Zm-3.73,5c-1.3.16-2.5-.83-3-2.5a4.41,4.41,0,0,1,.2-3.7,2.07,2.07,0,0,1,3.61-.32,5.48,5.48,0,0,1,1.17,3C229.59,107.78,228.73,109.22,227.65,109.35Z"/><path class="cls-81" d="M223.76,103.77l-.1,1.46H212.19c-.21-1.14.22-1.54,1.42-1.51C217,103.81,220.38,103.77,223.76,103.77Z"/><path class="cls-82" d="M223.93,107l.06.31h-11.5c0-.43.27-.59.67-.59,3.36,0,6.73,0,10.09,0A2.09,2.09,0,0,1,223.93,107Z"/><path class="cls-29" d="M231.44,105.23l-.06-.86c.13-.81.77-.61,1.27-.61,2.94,0,5.89,0,8.83,0,1.2,0,1.63.36,1.43,1.51Z"/><path class="cls-74" d="M198.33,110.84l-.07-1.76a.71.71,0,0,1,.34.59C198.52,110.06,198.7,110.51,198.33,110.84Z"/><path class="cls-83" d="M123.17,108.73a1.55,1.55,0,0,1-1.43,1.44c-.94,0-.31-1-.58-1.36-.16-.72.16-.93.69-.85S123.2,107.94,123.17,108.73Z"/><path class="cls-84" d="M119.74,97.91c-.07-.28-.16-.69.29-.62.86.15,1.8.3,2,1.39a2.26,2.26,0,0,1-1.53,2.1c-.43,0-.48-.24-.51-.54C119.9,99.47,119.82,98.69,119.74,97.91Z"/></svg>