<svg xmlns="http://www.w3.org/2000/svg" viewBox="0 0 211.43 211.57"><defs><style>.cls-1{isolation:isolate;}.cls-2,.cls-8{fill:#d14039;}.cls-17,.cls-3{opacity:0.5;}.cls-16,.cls-17,.cls-3,.cls-8{mix-blend-mode:multiply;}.cls-4{fill:#fff;}.cls-5{fill:#af6228;}.cls-6{fill:#f3b44a;}.cls-7{fill:#f9dc63;}.cls-9{fill:#ec5c56;}.cls-10{opacity:0.34;}.cls-11{fill:#afafaf;}.cls-12{fill:#f7ab86;}.cls-13,.cls-17{fill:#e88a74;}.cls-14{fill:#9e2b2b;}.cls-15{fill:#4b9d85;}.cls-16{opacity:0.3;}.cls-18{fill:#231f20;}</style></defs><title>middle</title><g class="cls-1"><g id="Layer_1" data-name="Layer 1"><path class="cls-2" d="M135.94,55.74s13.45-14.19,14.58-14.27,6.57,6.76,6.87,7.48,0,8.14-1.38,15.88a67.84,67.84,0,0,1-6.05,17Z"/><g class="cls-3"><path class="cls-2" d="M137.15,58,150,81.84a67.83,67.83,0,0,0,6.05-17,83.87,83.87,0,0,0,1.47-15.29l-.25-.23C151.61,57.86,142.66,58.45,137.15,58Z"/></g><path class="cls-4" d="M146.5,43.66c0-.41,3.58-3,4-3.08s7.93,7.46,7.93,7.89.16,5.39-.47,5.49S146.57,44.59,146.5,43.66Z"/><path d="M150.34,41.28s.61-7.36,5.35-8.9,8.16,7.76,7.76,11.48c-.36,3.36-6.23,5.44-6.23,5.44Z"/><path class="cls-5" d="M153,48.84a1.46,1.46,0,0,0,1.68,1.23h0a1.46,1.46,0,0,0,1.23-1.47L154.1,23l-3.58.28Z"/><g class="cls-3"><path class="cls-6" d="M154.1,23l-3.58.28.4,4a18.28,18.28,0,0,1,3.81,4.33Z"/></g><path class="cls-6" d="M139.8,8.39a.21.21,0,0,0,.08.36c6.44,2.45,1.42,16.67,12.18,16.22,12.62-.52,5.23-14.63,11-17.86a.22.22,0,0,0,0-.4C158.54,5,154.94,4.87,150.86,5,146.47,5.06,141.74,6.84,139.8,8.39Z"/><path class="cls-7" d="M160.94,10A4.62,4.62,0,0,1,163,7.11a.22.22,0,0,0,0-.4C158.54,5,154.94,4.87,150.86,5c-4.39.1-9.12,1.88-11.06,3.43a.21.21,0,0,0,.08.36,4.79,4.79,0,0,1,2.52,2.32C144.34,9.94,150.52,7.17,160.94,10Z"/><g class="cls-3"><path class="cls-6" d="M155.95,21.65c-1.68,2.43-4.38,3-6.77,3a8.67,8.67,0,0,0,2.87.32c12.62-.52,5.23-14.63,11-17.86l0,0,0-.38C151.88,8.15,159,17.27,155.95,21.65Z"/></g><path d="M154.89,34s-5.23,8.28,2.61,13.31l4.33-2.12Z"/><path class="cls-2" d="M197.62,140.3S177.17,118.94,166.36,108l-35.6,24.06,15.09,26.86s14.74-4.85,25.27-8.7C181,146.61,197.62,140.3,197.62,140.3Z"/><path class="cls-8" d="M197.62,139.47s-13.24-.82-27.75-1.66c0,0,7.41-6.61,4.56-22-2.42-2.71-5.08-3.28-7-6.19l-1.47-1.37-35,23.68,14.95,27s14.33-4.85,24.85-8.7C178.59,147.36,192.49,142,197.62,139.47Z"/><path d="M190.24,132.64s1.6,7.17-1.5,11c0,0,14-.52,14.92-1.07s0-16.08-.45-16-4.56,7.36-5.24,7.5S190.24,132.64,190.24,132.64Z"/><path class="cls-2" d="M89.57,138s1.63,36,19.88,62.85c4.64-6.2,11-12.91,18.29-21.85,6-7.33,18.93-20.44,18.93-20.44l-10.37-29.67Z"/><path class="cls-8" d="M115.28,133,90,143.09c1,9.19,4.14,29.26,13.57,47.75,6.37-9.71,17.45-22.58,35.64-24.85,2.58-2.55,7.46-7.46,7.46-7.46l-10.21-29.7Z"/><path d="M103.88,191.76s7,2.76,12.68.35c0,0-.88,6.58-1.08,7.22s8.54,5,8.43,5.61-20.21,1.67-20.6.92S103.88,191.76,103.88,191.76Z"/><path class="cls-9" d="M81.79,99.82s-27.15-5.23-35.51-26c-7-17.32-7.41-35.5-8.66-39.23C34,23.85,22.76,22.81,22.76,22.81S54.74,16,75.46,16s38.83,10.24,46.7,25Z"/><g class="cls-3"><path class="cls-9" d="M114.11,52.75,83.95,28.81c-34.94,6.69-29.59,45-29.59,45-11.87-15.24-3.34-37-11-45.37-4.6-5-13-5.67-19.06-5.41,3.19.71,10.56,3.21,13.36,11.55,1.25,3.73,1.68,21.92,8.66,39.23,8.36,20.75,35.51,26,35.51,26Z"/></g><path class="cls-4" d="M78.06,92.94s-15.7-6.62-19.68-22c-3.53-13.69,2.36-31.1,18.12-41.08s49.45-10.14,54.11,21.41Z"/><g class="cls-10"><path class="cls-11" d="M67.53,66.82c-6.24-.93-8.76-4.46-9.93-7.53a32.87,32.87,0,0,0,.78,11.61c4,15.41,19.68,22,19.68,22l7-5.57Z"/></g><circle class="cls-4" cx="19.84" cy="23.47" r="9.49" transform="translate(-7.69 9.81) rotate(-23.39)"/><g class="cls-10"><path class="cls-11" d="M28.55,19.7a9.46,9.46,0,0,0-2.17-3.11v0A9.49,9.49,0,0,1,11.15,27.26a9.49,9.49,0,0,0,17.4-7.56Z"/></g><path class="cls-12" d="M79.1,93.64S68.77,88.12,67.6,68.37c-1.08-18.09,8.9-27.55,22.16-33.3,13.59-5.89,35.22-2.76,40.85,16.17Z"/><path class="cls-13" d="M71.24,65.05S68.91,54.64,79.37,43.8c8.92-9.23,25.72-13,38.42-8.08-8.76-4.47-19.85-4.2-28-.66C76.5,40.82,66.52,50.28,67.6,68.37c1.18,19.75,11.5,25.28,11.5,25.28l11.61-9.56C84.05,81.26,73.82,75.36,71.24,65.05Z"/><path class="cls-9" d="M78.06,92.94s-5.73,31.34,3.4,53.07c12.54,29.82,56.24,9.78,67,2.31,19.1-13.32,29.88-31.27,16.71-55.38-8.36-15.31-37.52-36.41-37.52-36.41Z"/><g class="cls-3"><path class="cls-9" d="M170.71,117.08c-8.23,15.06-25.08,27.83-48.54,23-24.07-4.9-37.58-37.52-41.63-49l-2.48,1.82s-5.73,31.34,3.4,53.07c12.54,29.82,56.24,9.78,67,2.31C160.5,139.9,169.25,129.61,170.71,117.08Z"/></g><path class="cls-14" d="M144.3,148.86c-7.53-38.49-20.84-56.52-21-56.69l.88-.66c.14.18,13.59,18.38,21.17,57.15Z"/><path d="M136.53,127.88c-21.77,12.27-46.92,15.87-55.67,16.6.2.52.4,1,.61,1.54a27.09,27.09,0,0,0,4.47,7.33c12.73-2.15,43.32-8.85,60-20.33a92.71,92.71,0,0,0,24.65-24.49,42.24,42.24,0,0,0-3-10.45C163.39,105.51,154.28,117.87,136.53,127.88Z"/><polygon class="cls-5" points="130.97 134.3 147.86 123.13 152.47 128.72 153.97 126.87 147.53 119.69 129.04 132.86 130.97 134.3"/><path class="cls-6" d="M149.6,114.91l-27.52,16.77S133.37,147.3,134,147.44s24.35-19.13,24.35-19.13ZM131,133.59l17-12.19,4.47,6.74-18,12Z"/><path class="cls-7" d="M149.6,114.91l-21.26,13A53.54,53.54,0,0,0,141,126.43l7-5,1.52,2.29q2.19-.9,4.45-2.06Z"/><polygon class="cls-5" points="122.08 131.69 122.08 132.72 133.32 148.05 133.97 147.44 122.08 131.69"/><path class="cls-15" d="M102.41,109S88.21,88.58,61.22,87.84s-52.68,25-55.56,51.08c-2.43,22,12.3,45.95,45.11,45.86,31.17-.08,36.53-26.25,37.35-34.09s3.12-31.07,5.91-33.46Z"/><g class="cls-16"><path class="cls-15" d="M88.12,150.69c.81-7.84,3.12-31.07,5.91-33.46l.18-.17c-4.89-7.2-15.17-18.71-28.27-13.23-15.22,6.37-14.57,22.93-11.39,30.73.22-5.34,2-13.72,7.92-17.26,0,0-2.7,12.18,7.69,17.08,0,0-4.36-11.05,1.61-18.89,0,0,11.91,21.67,5,41.64-5.7,16.49-23.27,26.16-39.84,26.07a57.4,57.4,0,0,0,13.83,1.57C81.95,184.7,87.31,158.53,88.12,150.69Z"/></g><path class="cls-4" d="M100.18,55.7c4.08-2.44,27.64-13.92,41.44,0,10.81,10.93,10.87,29.95,5,45.06S126,125.3,126,125.3s2-6.14-.95-8.78C118.58,110.67,98,115.06,86.53,106,69.19,92.39,74.7,70.91,100.18,55.7Z"/><g class="cls-10"><path class="cls-11" d="M126.61,108.61c-7.14-6.58-26.22-4.64-27.48-4.51,2.23-.16,6-2.53,6-2.53-7.73,1.27-14.77-3.5-14.77-3.5,2,.65,5.2,0,5.2,0C81.64,95.1,81.38,78.45,81.82,72c-8.27,12-7,24.83,4.71,34.06,11.46,9,32.06,4.63,38.52,10.48,2.91,2.64.95,8.78.95,8.78s.56-.36,1.51-1C129.21,121.19,132.31,113.86,126.61,108.61Z"/></g><path d="M98.5,79a1.22,1.22,0,0,1-.61-1.88,36.91,36.91,0,0,1,8.94-8.58,29.14,29.14,0,0,1,11.34-4.68,1.21,1.21,0,0,1,1.4,1.14c.13,3-.12,10.31-5.18,13.63S101.75,80,98.5,79Z"/><path class="cls-2" d="M108.77,70.77c-4,2.52-4.52,7.56-4.56,9.49,3.36.43,7.25.3,10.2-1.63s4.25-5.22,4.81-8.22C116.87,69.47,112.57,68.38,108.77,70.77Z"/><path class="cls-13" d="M111.86,55.46c1.77,3.65-1.1,9.68-6.88,12.49S92.69,69.25,90.93,65.6s1.49-8.88,7.27-11.68S110.1,51.81,111.86,55.46Z"/><path class="cls-17" d="M90.81,61.4a5.5,5.5,0,0,0,.12,4.2c1.77,3.65,8.28,5.14,14.06,2.34s8.64-8.84,6.88-12.49C104.49,64.49,95.27,62.92,90.81,61.4Z"/><path class="cls-4" d="M75.15,59a1.65,1.65,0,0,1-1.65-1.52,8,8,0,0,1,2.24-6c1.7-1.55,4.13-2.08,7.23-1.57a1.66,1.66,0,0,1-.54,3.27c-2-.34-3.53-.09-4.44.73a4.65,4.65,0,0,0-1.19,3.35A1.66,1.66,0,0,1,75.27,59Z"/><path class="cls-4" d="M97.77,43.81a1.65,1.65,0,0,1-1.6-2.05,8.4,8.4,0,0,1,4-5c2.26-1.18,5-1.17,8.23,0a1.65,1.65,0,1,1-1.16,3.1c-2.26-.85-4.11-.92-5.5-.21a5.07,5.07,0,0,0-2.33,2.9A1.67,1.67,0,0,1,97.77,43.81Z"/><path class="cls-18" d="M85.79,62.4h0a.42.42,0,0,1-.33-.5,11.26,11.26,0,0,1,2.79-5,6.54,6.54,0,0,0-5.27,2.28.42.42,0,0,1-.81-.21c0-.46,2.34-3.24,7.09-2.89l1,.07-.73.66s-2.68,2.47-3.22,5.26A.42.42,0,0,1,85.79,62.4Z"/><path class="cls-18" d="M100.82,50.41l.29-1a7.11,7.11,0,0,1,4.72-5,.42.42,0,0,1,.21.82,6.15,6.15,0,0,0-3.76,3.42,12.08,12.08,0,0,1,6.26-1,.42.42,0,1,1-.13.84c-3.17-.5-6.65,1.37-6.68,1.38Z"/><path class="cls-15" d="M95.58,119.4s4.25,5.12,4.79,10.5-.77,13-.17,14.12,3.47.43,5.58-.89a14.6,14.6,0,0,0,4.82-5.23,10.94,10.94,0,0,0,7.54-1.15c1-.62,3-2.36,3-3.37,0-.63-6.8-13.63-17.58-18.81Z"/><g class="cls-16"><path class="cls-15" d="M117.43,127.05c-3-4.26-7.83-9.6-13.85-12.49l-8,4.84s.27.33.69.91A36.13,36.13,0,0,1,105,131.7a27.72,27.72,0,0,0-2.32-10.82S108,121.33,117.43,127.05Z"/></g><path class="cls-2" d="M68,115.15s-.64,8.81,0,12.24c.64,3.65,3.85,8.88,12.81,8s15.73-12.51,15.73-12.51-6.13-8.4-6.93-9.12l-4.3,2S78.31,110.2,68,115.15Z"/><g class="cls-3"><path class="cls-2" d="M96.48,122.83l-1.27-1.74c-4.95,4.49-9.12,5.44-9.12,5.44s-.28-1.95-1.64-1.83c-.93.08-1.23,1.4-1.32,2.22a1.81,1.81,0,0,0-1.75-2c-2.22-.2-3.22,2.91-3.22,2.91-5.36-.61-8.77-5.23-10.42-8.18a45.9,45.9,0,0,0,.19,7.69c.64,3.65,3.85,8.88,12.81,8S96.48,122.83,96.48,122.83Z"/></g><path d="M91.39,113.52s2.94-5.53,5.84-6.81a11.15,11.15,0,0,1,11.45,1.19c3.33,2.41,4,9.07,1.63,10.67-3,2-4.66-.88-8.44-.18a6,6,0,0,0-4.53,3.9Z"/><path class="cls-4" d="M87.43,113.69a8.3,8.3,0,0,1,3.76-1.8c.5,0,7,9,7.34,9.44s-2.48,4.2-3,3.92S87,114.22,87.43,113.69Z"/></g></g></svg>